{"glyphs":{"0":{"ha":806,"x_min":93,"x_max":713,"o":"m 403 -17 q 175 67 257 -17 q 93 299 93 150 l 93 611 q 175 843 93 760 q 403 926 257 926 q 631 843 549 926 q 713 611 713 760 l 713 299 q 631 67 713 150 q 403 -17 549 -17 m 403 88 q 544 141 493 88 q 594 288 594 194 l 594 622 q 544 769 594 717 q 403 822 493 822 q 262 769 313 822 q 211 622 211 717 l 211 288 q 262 141 211 194 q 403 88 313 88 z "},"1":{"ha":631,"x_min":56,"x_max":610,"o":"m 69 0 q 56 14 56 0 l 56 93 q 69 107 56 107 l 286 107 l 286 775 l 78 710 q 64 719 64 706 l 64 801 q 72 815 64 813 l 363 913 q 372 915 367 914 q 382 915 376 915 l 390 915 q 404 901 404 915 l 404 107 l 596 107 q 610 93 610 107 l 610 14 q 596 0 610 0 l 69 0 z "},"2":{"ha":750,"x_min":97,"x_max":665,"o":"m 111 0 q 97 14 97 0 l 97 110 q 122 228 97 176 q 186 321 146 281 q 274 395 226 361 q 370 460 322 429 q 458 523 418 492 q 523 591 499 554 q 547 674 547 628 l 547 703 q 505 792 547 763 q 381 822 463 822 q 259 786 299 822 q 219 685 219 750 q 207 671 219 671 l 117 671 q 103 685 103 671 q 135 817 103 763 q 231 899 167 871 q 393 926 296 926 q 598 868 531 926 q 665 697 665 810 q 641 572 665 624 q 577 480 617 519 q 490 409 538 440 q 394 349 442 378 q 308 286 347 319 q 244 210 268 253 q 219 107 219 167 l 647 107 q 661 93 661 107 l 661 14 q 647 0 661 0 l 111 0 z "},"3":{"ha":761,"x_min":83,"x_max":678,"o":"m 365 -17 q 209 13 272 -17 q 115 98 146 43 q 83 225 83 153 q 97 239 83 239 l 186 239 q 200 225 200 239 q 241 123 200 158 q 363 88 282 88 q 508 127 457 88 q 560 238 560 167 l 560 274 q 369 415 560 415 l 249 415 q 235 429 235 415 l 235 504 q 249 518 235 518 l 371 518 q 495 556 453 518 q 538 665 538 593 l 538 701 q 495 792 538 763 q 368 822 453 822 q 242 790 283 822 q 201 685 201 757 q 188 671 201 671 l 99 671 q 85 685 85 671 q 158 866 85 806 q 378 926 231 926 q 588 870 519 926 q 656 694 656 814 q 619 551 656 606 q 521 476 582 496 l 521 474 q 640 392 601 447 q 678 250 678 338 q 597 52 678 121 q 365 -17 517 -17 z "},"4":{"ha":753,"x_min":14,"x_max":719,"o":"m 500 0 q 486 14 486 0 l 486 179 l 28 179 q 14 193 14 179 l 14 201 q 18 221 14 214 l 392 899 q 410 910 399 910 l 501 910 q 511 894 519 910 l 175 286 l 488 286 l 488 590 q 501 604 488 604 l 586 604 q 600 590 600 604 l 600 286 l 706 286 q 719 272 719 286 l 719 193 q 706 179 719 179 l 600 179 l 600 14 q 586 0 600 0 l 500 0 z "},"5":{"ha":725,"x_min":69,"x_max":656,"o":"m 339 -17 q 192 11 253 -17 q 101 92 132 39 q 69 225 69 146 q 83 239 69 239 l 171 239 q 185 225 185 239 q 226 122 185 157 q 349 88 268 88 q 493 129 449 88 q 538 258 538 171 l 538 300 q 517 401 538 361 q 455 459 497 440 q 346 478 413 478 q 241 465 303 478 q 122 425 179 451 q 103 425 111 419 q 97 440 96 431 l 139 896 q 153 910 140 910 l 589 910 q 603 896 603 910 l 603 817 q 589 803 603 803 l 243 803 l 225 558 q 308 574 269 569 q 376 578 346 578 q 581 504 507 578 q 656 286 656 431 q 574 61 656 139 q 339 -17 493 -17 z "},"6":{"ha":789,"x_min":93,"x_max":710,"o":"m 403 -17 q 175 60 257 -17 q 93 282 93 136 l 93 632 q 176 849 93 771 q 413 926 260 926 q 556 903 496 926 q 650 838 617 881 q 683 736 683 796 q 669 722 683 722 l 581 722 q 567 736 567 722 q 526 799 567 776 q 414 822 485 822 q 262 776 313 822 q 211 636 211 731 l 211 283 q 262 140 211 192 q 401 88 313 88 q 542 140 492 88 q 592 286 592 193 l 592 325 q 553 438 592 400 q 438 476 514 476 q 313 451 378 476 q 192 376 249 425 l 192 476 q 324 553 256 528 q 467 579 393 579 q 649 512 588 579 q 710 313 710 444 q 630 70 710 157 q 403 -17 550 -17 z "},"7":{"ha":735,"x_min":76,"x_max":714,"o":"m 208 0 q 199 5 201 0 q 199 17 196 10 l 557 803 l 193 803 l 193 689 q 179 675 193 675 l 90 675 q 76 689 76 675 l 76 896 q 90 910 76 910 l 700 910 q 714 896 714 910 l 714 889 q 710 868 714 879 l 322 13 q 303 0 317 0 l 208 0 z "},"8":{"ha":800,"x_min":76,"x_max":724,"o":"m 400 -17 q 161 48 246 -17 q 76 244 76 113 q 119 397 76 335 q 233 485 161 458 q 144 559 174 513 q 115 689 115 606 q 189 863 115 799 q 400 926 263 926 q 611 863 538 926 q 685 689 685 799 q 656 559 685 606 q 567 485 626 513 q 681 397 639 458 q 724 244 724 335 q 639 48 724 113 q 400 -17 554 -17 m 400 83 q 554 124 503 83 q 606 238 606 164 l 606 261 q 551 392 606 346 q 400 439 496 439 q 249 392 304 439 q 194 261 194 346 l 194 238 q 246 124 194 164 q 400 83 297 83 m 400 531 q 524 568 481 531 q 567 671 567 606 l 567 692 q 524 790 567 753 q 400 826 482 826 q 276 790 319 826 q 233 692 233 753 l 233 671 q 276 568 233 606 q 400 531 319 531 z "},"9":{"ha":806,"x_min":93,"x_max":713,"o":"m 392 -17 q 183 40 257 -17 q 110 204 110 97 q 124 218 110 218 l 213 218 q 226 204 226 218 q 269 125 226 163 q 393 88 311 88 q 545 138 496 88 q 594 285 594 188 l 594 626 q 542 770 594 718 q 397 822 489 822 q 259 772 307 822 q 211 626 211 721 l 211 574 q 254 467 211 506 q 374 428 297 428 q 495 453 435 428 q 614 529 556 478 l 615 429 q 488 349 549 374 q 357 325 428 325 q 160 397 228 325 q 93 607 93 469 q 172 844 93 763 q 399 926 251 926 q 630 844 547 926 q 713 618 713 763 l 713 292 q 632 62 713 140 q 392 -17 551 -17 z "},"A":{"ha":778,"x_min":-3,"x_max":781,"o":"m 13 0 q 1 15 -3 0 l 308 899 q 325 910 313 910 l 449 910 q 465 899 461 910 l 776 15 q 765 0 781 0 l 667 0 q 650 11 654 0 l 442 636 q 414 719 428 678 q 385 803 400 761 l 383 803 q 356 722 369 763 q 328 640 342 681 l 122 11 q 106 0 118 0 l 13 0 m 167 213 l 196 315 l 574 315 l 604 213 l 167 213 z "},"Á":{"ha":778,"x_min":-3,"x_max":781,"o":"m 13 0 q 1 15 -3 0 l 308 899 q 325 910 313 910 l 449 910 q 465 899 461 910 l 776 15 q 765 0 781 0 l 667 0 q 650 11 654 0 l 442 636 q 414 719 428 678 q 385 803 400 761 l 383 803 q 356 722 369 763 q 328 640 342 681 l 122 11 q 106 0 118 0 l 13 0 m 167 213 l 196 315 l 574 315 l 604 213 l 167 213 m 322 986 q 314 990 315 986 q 315 1000 313 994 l 393 1142 q 407 1151 399 1151 l 508 1151 q 517 1147 515 1151 q 515 1135 519 1142 l 415 994 q 400 986 410 986 l 322 986 z "},"Ă":{"ha":778,"x_min":-3,"x_max":781,"o":"m 13 0 q 1 15 -3 0 l 308 899 q 325 910 313 910 l 449 910 q 465 899 461 910 l 776 15 q 765 0 781 0 l 667 0 q 650 11 654 0 l 442 636 q 414 719 428 678 q 385 803 400 761 l 383 803 q 356 722 369 763 q 328 640 342 681 l 122 11 q 106 0 118 0 l 13 0 m 167 213 l 196 315 l 574 315 l 604 213 l 167 213 m 388 994 q 274 1016 325 994 q 206 1050 224 1038 q 197 1067 197 1057 l 197 1143 q 201 1154 197 1151 q 213 1153 206 1157 q 287 1116 239 1139 q 388 1093 335 1093 q 488 1116 440 1093 q 563 1153 536 1139 q 574 1154 569 1157 q 578 1143 578 1151 l 578 1067 q 569 1050 578 1057 q 501 1016 551 1038 q 388 994 450 994 z "},"Â":{"ha":778,"x_min":-3,"x_max":781,"o":"m 13 0 q 1 15 -3 0 l 308 899 q 325 910 313 910 l 449 910 q 465 899 461 910 l 776 15 q 765 0 781 0 l 667 0 q 650 11 654 0 l 442 636 q 414 719 428 678 q 385 803 400 761 l 383 803 q 356 722 369 763 q 328 640 342 681 l 122 11 q 106 0 118 0 l 13 0 m 167 213 l 196 315 l 574 315 l 604 213 l 167 213 m 208 997 q 193 1006 193 990 l 193 1075 q 203 1089 193 1085 l 378 1167 q 397 1167 388 1172 l 572 1089 q 582 1075 582 1085 l 582 1006 q 567 997 582 990 l 388 1061 l 208 997 z "},"Ä":{"ha":778,"x_min":-3,"x_max":781,"o":"m 13 0 q 1 15 -3 0 l 308 899 q 325 910 313 910 l 449 910 q 465 899 461 910 l 776 15 q 765 0 781 0 l 667 0 q 650 11 654 0 l 442 636 q 414 719 428 678 q 385 803 400 761 l 383 803 q 356 722 369 763 q 328 640 342 681 l 122 11 q 106 0 118 0 l 13 0 m 167 213 l 196 315 l 574 315 l 604 213 l 167 213 m 271 988 q 215 1008 232 988 q 199 1058 199 1028 l 199 1072 q 215 1124 199 1104 q 271 1143 232 1143 q 326 1124 310 1143 q 343 1072 343 1104 l 343 1058 q 326 1008 343 1028 q 271 988 310 988 m 504 988 q 449 1008 465 988 q 432 1058 432 1028 l 432 1072 q 449 1124 432 1104 q 504 1143 465 1143 q 560 1124 543 1143 q 576 1072 576 1104 l 576 1058 q 560 1008 576 1028 q 504 988 543 988 z "},"À":{"ha":778,"x_min":-3,"x_max":781,"o":"m 13 0 q 1 15 -3 0 l 308 899 q 325 910 313 910 l 449 910 q 465 899 461 910 l 776 15 q 765 0 781 0 l 667 0 q 650 11 654 0 l 442 636 q 414 719 428 678 q 385 803 400 761 l 383 803 q 356 722 369 763 q 328 640 342 681 l 122 11 q 106 0 118 0 l 13 0 m 167 213 l 196 315 l 574 315 l 604 213 l 167 213 m 375 986 q 360 994 365 986 l 260 1135 q 258 1147 256 1142 q 267 1151 260 1151 l 368 1151 q 382 1142 378 1151 l 460 1000 q 461 990 463 994 q 453 986 460 986 l 375 986 z "},"Ā":{"ha":778,"x_min":-3,"x_max":781,"o":"m 13 0 q 1 15 -3 0 l 308 899 q 325 910 313 910 l 449 910 q 465 899 461 910 l 776 15 q 765 0 781 0 l 667 0 q 650 11 654 0 l 442 636 q 414 719 428 678 q 385 803 400 761 l 383 803 q 356 722 369 763 q 328 640 342 681 l 122 11 q 106 0 118 0 l 13 0 m 167 213 l 196 315 l 574 315 l 604 213 l 167 213 m 238 996 q 224 1010 224 996 l 224 1082 q 238 1096 224 1096 l 536 1096 q 550 1082 550 1096 l 550 1010 q 536 996 550 996 l 238 996 z "},"Ą":{"ha":778,"x_min":-3,"x_max":782,"o":"m 13 0 q 1 15 -3 0 l 308 899 q 325 910 313 910 l 449 910 q 465 899 461 910 l 776 15 q 765 0 781 0 l 667 0 q 650 11 654 0 l 442 636 q 414 719 428 678 q 385 803 400 761 l 383 803 q 356 722 369 763 q 328 640 342 681 l 122 11 q 106 0 118 0 l 13 0 m 167 213 l 196 315 l 574 315 l 604 213 l 167 213 m 715 -274 q 611 -242 644 -274 q 578 -161 578 -211 l 578 -144 q 619 -40 578 -87 q 731 32 661 8 l 758 17 l 758 1 q 699 -51 719 -18 q 678 -121 678 -85 l 678 -135 q 735 -186 678 -186 q 753 -186 746 -186 q 769 -185 761 -186 q 782 -194 782 -183 l 782 -256 q 780 -265 782 -261 q 771 -269 778 -268 q 742 -272 757 -271 q 715 -274 728 -274 z "},"Å":{"ha":778,"x_min":-3,"x_max":781,"o":"m 776 15 q 765 0 781 0 l 667 0 q 650 11 654 0 l 583 213 l 188 213 l 122 11 q 106 0 118 0 l 13 0 q 1 15 -3 0 l 296 864 q 251 909 267 881 q 235 976 235 938 q 276 1076 235 1042 q 389 1110 318 1110 q 501 1076 458 1110 q 543 976 543 1042 q 526 907 543 936 q 478 863 510 878 l 776 15 m 318 976 q 334 931 318 949 q 389 913 350 913 q 444 931 428 913 q 460 976 460 949 q 444 1022 460 1004 q 389 1040 428 1040 q 334 1022 350 1040 q 318 976 318 1004 m 222 315 l 549 315 l 442 636 q 414 719 428 678 q 385 803 400 761 l 383 803 q 356 722 369 763 q 328 640 342 681 l 222 315 z "},"Ã":{"ha":778,"x_min":-3,"x_max":781,"o":"m 13 0 q 1 15 -3 0 l 308 899 q 325 910 313 910 l 449 910 q 465 899 461 910 l 776 15 q 765 0 781 0 l 667 0 q 650 11 654 0 l 442 636 q 414 719 428 678 q 385 803 400 761 l 383 803 q 356 722 369 763 q 328 640 342 681 l 122 11 q 106 0 118 0 l 13 0 m 167 213 l 196 315 l 574 315 l 604 213 l 167 213 m 465 999 q 410 1008 435 999 q 363 1025 386 1017 q 310 1033 339 1033 q 253 1024 281 1033 q 211 1007 226 1015 q 194 1015 194 997 l 194 1081 q 203 1099 194 1094 q 244 1119 218 1106 q 314 1133 271 1133 q 376 1125 351 1133 q 421 1108 400 1117 q 468 1099 442 1099 q 524 1108 497 1099 q 567 1125 551 1117 q 583 1117 583 1135 l 583 1051 q 575 1033 583 1040 q 534 1011 561 1024 q 465 999 507 999 z "},"Æ":{"ha":1158,"x_min":-1,"x_max":1058,"o":"m 13 0 q 2 5 6 0 q 3 17 -1 10 l 461 900 q 478 910 467 910 l 1044 910 q 1058 896 1058 910 l 1058 817 q 1044 803 1058 803 l 654 803 l 654 514 l 1011 514 q 1025 500 1025 514 l 1025 425 q 1011 411 1025 411 l 654 411 l 654 107 l 1044 107 q 1058 93 1058 107 l 1058 14 q 1044 0 1058 0 l 550 0 q 536 14 536 0 l 536 213 l 228 213 l 125 10 q 108 0 119 0 l 13 0 m 281 315 l 536 315 l 536 694 q 536 753 536 726 q 538 824 536 781 l 535 824 q 506 762 521 793 q 475 699 490 731 l 281 315 z "},"B":{"ha":796,"x_min":118,"x_max":733,"o":"m 132 0 q 118 14 118 0 l 118 896 q 132 910 118 910 l 379 910 q 616 853 538 910 q 694 682 694 797 q 658 560 694 607 q 540 483 622 514 l 540 481 q 685 404 638 463 q 733 250 733 346 q 648 61 733 122 q 381 0 563 0 l 132 0 m 236 103 l 379 103 q 561 139 507 103 q 615 258 615 175 q 560 384 615 344 q 383 424 506 424 l 236 424 l 236 103 m 236 519 l 374 519 q 528 555 479 519 q 576 667 576 590 q 527 776 576 744 q 361 808 478 808 l 236 808 l 236 519 z "},"C":{"ha":879,"x_min":101,"x_max":797,"o":"m 444 -17 q 188 68 275 -17 q 101 310 101 153 l 101 600 q 190 842 101 757 q 446 926 278 926 q 634 890 553 926 q 756 784 715 853 q 783 619 797 715 q 779 606 782 613 q 768 600 776 600 l 678 600 q 665 614 663 600 q 613 768 669 714 q 447 822 557 822 q 278 765 338 822 q 219 601 219 708 l 219 308 q 278 144 219 201 q 447 88 338 88 q 617 142 557 88 q 665 296 676 197 q 678 310 663 310 l 767 310 q 783 290 781 310 q 751 128 792 197 q 631 22 710 60 q 444 -17 551 -17 z "},"Ć":{"ha":879,"x_min":101,"x_max":797,"o":"m 444 -17 q 188 68 275 -17 q 101 310 101 153 l 101 600 q 190 842 101 757 q 446 926 278 926 q 634 890 553 926 q 756 784 715 853 q 783 619 797 715 q 779 606 782 613 q 768 600 776 600 l 678 600 q 665 614 663 600 q 613 768 669 714 q 447 822 557 822 q 278 765 338 822 q 219 601 219 708 l 219 308 q 278 144 219 201 q 447 88 338 88 q 617 142 557 88 q 665 296 676 197 q 678 310 663 310 l 767 310 q 783 290 781 310 q 751 128 792 197 q 631 22 710 60 q 444 -17 551 -17 m 375 986 q 367 990 368 986 q 368 1000 365 994 l 446 1142 q 460 1151 451 1151 l 561 1151 q 570 1147 568 1151 q 568 1135 572 1142 l 468 994 q 453 986 463 986 l 375 986 z "},"Č":{"ha":879,"x_min":101,"x_max":797,"o":"m 444 -17 q 188 68 275 -17 q 101 310 101 153 l 101 600 q 190 842 101 757 q 446 926 278 926 q 634 890 553 926 q 756 784 715 853 q 783 619 797 715 q 779 606 782 613 q 768 600 776 600 l 678 600 q 665 614 663 600 q 613 768 669 714 q 447 822 557 822 q 278 765 338 822 q 219 601 219 708 l 219 308 q 278 144 219 201 q 447 88 338 88 q 617 142 557 88 q 665 296 676 197 q 678 310 663 310 l 767 310 q 783 290 781 310 q 751 128 792 197 q 631 22 710 60 q 444 -17 551 -17 m 431 997 l 256 1075 q 246 1089 246 1079 l 246 1158 q 261 1167 246 1174 l 440 1103 l 619 1167 q 635 1158 635 1174 l 635 1089 q 625 1075 635 1079 l 450 997 q 431 997 440 993 z "},"Ç":{"ha":879,"x_min":101,"x_max":797,"o":"m 444 -17 q 188 68 275 -17 q 101 310 101 153 l 101 600 q 190 842 101 757 q 446 926 278 926 q 634 890 553 926 q 756 784 715 853 q 783 619 797 715 q 779 606 782 613 q 768 600 776 600 l 678 600 q 665 614 663 600 q 613 768 669 714 q 447 822 557 822 q 278 765 338 822 q 219 601 219 708 l 219 308 q 278 144 219 201 q 447 88 338 88 q 617 142 557 88 q 665 296 676 197 q 678 310 663 310 l 767 310 q 783 290 781 310 q 751 128 792 197 q 631 22 710 60 q 444 -17 551 -17 m 426 -274 q 399 -272 413 -274 q 369 -268 385 -271 q 358 -257 358 -267 l 358 -206 q 369 -196 358 -194 q 390 -198 379 -197 q 408 -199 401 -199 q 452 -189 439 -199 q 465 -165 465 -179 l 465 -147 q 453 -119 465 -126 q 418 -111 442 -111 l 386 -111 q 376 -101 376 -111 q 377 -87 376 -94 q 379 -74 378 -79 l 411 31 q 424 39 414 39 l 490 39 q 497 24 501 39 l 472 -57 l 485 -57 q 540 -81 521 -57 q 558 -146 558 -106 l 558 -167 q 526 -248 558 -222 q 426 -274 493 -274 z "},"Ċ":{"ha":879,"x_min":101,"x_max":797,"o":"m 444 -17 q 188 68 275 -17 q 101 310 101 153 l 101 600 q 190 842 101 757 q 446 926 278 926 q 634 890 553 926 q 756 784 715 853 q 783 619 797 715 q 779 606 782 613 q 768 600 776 600 l 678 600 q 665 614 663 600 q 613 768 669 714 q 447 822 557 822 q 278 765 338 822 q 219 601 219 708 l 219 308 q 278 144 219 201 q 447 88 338 88 q 617 142 557 88 q 665 296 676 197 q 678 310 663 310 l 767 310 q 783 290 781 310 q 751 128 792 197 q 631 22 710 60 q 444 -17 551 -17 m 440 1007 q 382 1028 400 1007 q 364 1083 364 1050 l 364 1097 q 382 1152 364 1131 q 440 1174 400 1174 q 499 1152 481 1174 q 517 1097 517 1131 l 517 1083 q 499 1028 517 1050 q 440 1007 481 1007 z "},"D":{"ha":890,"x_min":118,"x_max":800,"o":"m 132 0 q 118 14 118 0 l 118 896 q 132 910 118 910 l 375 910 q 694 810 589 910 q 800 510 800 711 l 800 440 q 695 109 800 218 q 375 0 590 0 l 132 0 m 236 100 l 367 100 q 606 181 529 100 q 682 432 682 261 l 682 518 q 606 739 682 668 q 367 810 529 810 l 236 810 l 236 100 z "},"Ð":{"ha":890,"x_min":7,"x_max":800,"o":"m 21 414 q 7 428 7 414 l 7 497 q 21 511 7 511 l 118 511 l 440 511 q 454 497 454 511 l 454 428 q 440 414 454 414 l 21 414 m 132 0 q 118 14 118 0 l 118 896 q 132 910 118 910 l 375 910 q 694 810 589 910 q 800 510 800 711 l 800 440 q 695 109 800 218 q 375 0 590 0 l 132 0 m 236 100 l 367 100 q 606 181 529 100 q 682 432 682 261 l 682 518 q 606 739 682 668 q 367 810 529 810 l 236 810 l 236 100 z "},"Ď":{"ha":890,"x_min":118,"x_max":800,"o":"m 132 0 q 118 14 118 0 l 118 896 q 132 910 118 910 l 375 910 q 694 810 589 910 q 800 510 800 711 l 800 440 q 695 109 800 218 q 375 0 590 0 l 132 0 m 236 100 l 367 100 q 606 181 529 100 q 682 432 682 261 l 682 518 q 606 739 682 668 q 367 810 529 810 l 236 810 l 236 100 m 397 997 l 222 1075 q 213 1089 213 1079 l 213 1158 q 228 1167 213 1174 l 407 1103 l 586 1167 q 601 1158 601 1174 l 601 1089 q 592 1075 601 1079 l 417 997 q 397 997 407 993 z "},"Đ":{"ha":890,"x_min":7,"x_max":800,"o":"m 21 414 q 7 428 7 414 l 7 497 q 21 511 7 511 l 118 511 l 440 511 q 454 497 454 511 l 454 428 q 440 414 454 414 l 21 414 m 132 0 q 118 14 118 0 l 118 896 q 132 910 118 910 l 375 910 q 694 810 589 910 q 800 510 800 711 l 800 440 q 695 109 800 218 q 375 0 590 0 l 132 0 m 236 100 l 367 100 q 606 181 529 100 q 682 432 682 261 l 682 518 q 606 739 682 668 q 367 810 529 810 l 236 810 l 236 100 z "},"E":{"ha":740,"x_min":118,"x_max":640,"o":"m 132 0 q 118 14 118 0 l 118 896 q 132 910 118 910 l 626 910 q 640 896 640 910 l 640 817 q 626 803 640 803 l 236 803 l 236 514 l 593 514 q 607 500 607 514 l 607 425 q 593 411 607 411 l 236 411 l 236 107 l 626 107 q 640 93 640 107 l 640 14 q 626 0 640 0 l 132 0 z "},"É":{"ha":740,"x_min":118,"x_max":640,"o":"m 132 0 q 118 14 118 0 l 118 896 q 132 910 118 910 l 626 910 q 640 896 640 910 l 640 817 q 626 803 640 803 l 236 803 l 236 514 l 593 514 q 607 500 607 514 l 607 425 q 593 411 607 411 l 236 411 l 236 107 l 626 107 q 640 93 640 107 l 640 14 q 626 0 640 0 l 132 0 m 324 986 q 315 990 317 986 q 317 1000 314 994 l 394 1142 q 408 1151 400 1151 l 510 1151 q 519 1147 517 1151 q 517 1135 521 1142 l 417 994 q 401 986 411 986 l 324 986 z "},"Ě":{"ha":740,"x_min":118,"x_max":640,"o":"m 132 0 q 118 14 118 0 l 118 896 q 132 910 118 910 l 626 910 q 640 896 640 910 l 640 817 q 626 803 640 803 l 236 803 l 236 514 l 593 514 q 607 500 607 514 l 607 425 q 593 411 607 411 l 236 411 l 236 107 l 626 107 q 640 93 640 107 l 640 14 q 626 0 640 0 l 132 0 m 379 997 l 204 1075 q 194 1089 194 1079 l 194 1158 q 210 1167 194 1174 l 389 1103 l 568 1167 q 583 1158 583 1174 l 583 1089 q 574 1075 583 1079 l 399 997 q 379 997 389 993 z "},"Ê":{"ha":740,"x_min":118,"x_max":640,"o":"m 132 0 q 118 14 118 0 l 118 896 q 132 910 118 910 l 626 910 q 640 896 640 910 l 640 817 q 626 803 640 803 l 236 803 l 236 514 l 593 514 q 607 500 607 514 l 607 425 q 593 411 607 411 l 236 411 l 236 107 l 626 107 q 640 93 640 107 l 640 14 q 626 0 640 0 l 132 0 m 210 997 q 194 1006 194 990 l 194 1075 q 204 1089 194 1085 l 379 1167 q 399 1167 389 1172 l 574 1089 q 583 1075 583 1085 l 583 1006 q 568 997 583 990 l 389 1061 l 210 997 z "},"Ë":{"ha":740,"x_min":118,"x_max":640,"o":"m 132 0 q 118 14 118 0 l 118 896 q 132 910 118 910 l 626 910 q 640 896 640 910 l 640 817 q 626 803 640 803 l 236 803 l 236 514 l 593 514 q 607 500 607 514 l 607 425 q 593 411 607 411 l 236 411 l 236 107 l 626 107 q 640 93 640 107 l 640 14 q 626 0 640 0 l 132 0 m 272 988 q 217 1008 233 988 q 200 1058 200 1028 l 200 1072 q 217 1124 200 1104 q 272 1143 233 1143 q 328 1124 311 1143 q 344 1072 344 1104 l 344 1058 q 328 1008 344 1028 q 272 988 311 988 m 506 988 q 450 1008 467 988 q 433 1058 433 1028 l 433 1072 q 450 1124 433 1104 q 506 1143 467 1143 q 561 1124 544 1143 q 578 1072 578 1104 l 578 1058 q 561 1008 578 1028 q 506 988 544 988 z "},"Ė":{"ha":740,"x_min":118,"x_max":640,"o":"m 132 0 q 118 14 118 0 l 118 896 q 132 910 118 910 l 626 910 q 640 896 640 910 l 640 817 q 626 803 640 803 l 236 803 l 236 514 l 593 514 q 607 500 607 514 l 607 425 q 593 411 607 411 l 236 411 l 236 107 l 626 107 q 640 93 640 107 l 640 14 q 626 0 640 0 l 132 0 m 389 1007 q 331 1028 349 1007 q 313 1083 313 1050 l 313 1097 q 331 1152 313 1131 q 389 1174 349 1174 q 447 1152 429 1174 q 465 1097 465 1131 l 465 1083 q 447 1028 465 1050 q 389 1007 429 1007 z "},"È":{"ha":740,"x_min":118,"x_max":640,"o":"m 132 0 q 118 14 118 0 l 118 896 q 132 910 118 910 l 626 910 q 640 896 640 910 l 640 817 q 626 803 640 803 l 236 803 l 236 514 l 593 514 q 607 500 607 514 l 607 425 q 593 411 607 411 l 236 411 l 236 107 l 626 107 q 640 93 640 107 l 640 14 q 626 0 640 0 l 132 0 m 376 986 q 361 994 367 986 l 261 1135 q 259 1147 257 1142 q 268 1151 261 1151 l 369 1151 q 383 1142 379 1151 l 461 1000 q 463 990 464 994 q 454 986 461 986 l 376 986 z "},"Ē":{"ha":740,"x_min":118,"x_max":640,"o":"m 132 0 q 118 14 118 0 l 118 896 q 132 910 118 910 l 626 910 q 640 896 640 910 l 640 817 q 626 803 640 803 l 236 803 l 236 514 l 593 514 q 607 500 607 514 l 607 425 q 593 411 607 411 l 236 411 l 236 107 l 626 107 q 640 93 640 107 l 640 14 q 626 0 640 0 l 132 0 m 239 996 q 225 1010 225 996 l 225 1082 q 239 1096 225 1096 l 538 1096 q 551 1082 551 1096 l 551 1010 q 538 996 551 996 l 239 996 z "},"Ę":{"ha":740,"x_min":118,"x_max":640,"o":"m 132 0 q 118 14 118 0 l 118 896 q 132 910 118 910 l 626 910 q 640 896 640 910 l 640 817 q 626 803 640 803 l 236 803 l 236 514 l 593 514 q 607 500 607 514 l 607 425 q 593 411 607 411 l 236 411 l 236 107 l 626 107 q 640 93 640 107 l 640 14 q 626 0 640 0 l 132 0 m 557 -274 q 453 -242 486 -274 q 419 -161 419 -211 l 419 -144 q 461 -40 419 -87 q 572 32 503 8 l 600 17 l 600 1 q 540 -51 561 -18 q 519 -121 519 -85 l 519 -135 q 576 -186 519 -186 q 595 -186 588 -186 q 611 -185 603 -186 q 624 -194 624 -183 l 624 -256 q 622 -265 624 -261 q 613 -269 619 -268 q 584 -272 599 -271 q 557 -274 569 -274 z "},"F":{"ha":700,"x_min":118,"x_max":640,"o":"m 132 0 q 118 14 118 0 l 118 896 q 132 910 118 910 l 626 910 q 640 896 640 910 l 640 817 q 626 803 640 803 l 236 803 l 236 500 l 574 500 q 588 486 588 500 l 588 411 q 574 397 588 397 l 236 397 l 236 14 q 222 0 236 0 l 132 0 z "},"G":{"ha":907,"x_min":101,"x_max":800,"o":"m 425 -17 q 251 22 324 -17 q 140 134 179 61 q 101 310 101 207 l 101 600 q 194 840 101 753 q 450 926 288 926 q 640 890 560 926 q 759 786 719 853 q 785 628 799 719 q 769 614 783 614 l 679 614 q 667 628 664 614 q 647 735 671 692 q 575 800 624 778 q 453 822 526 822 q 278 767 338 822 q 219 601 219 711 l 219 308 q 275 142 219 197 q 443 88 331 88 q 619 144 558 88 q 679 308 679 201 l 679 361 l 463 361 q 449 375 449 361 l 449 450 q 463 464 449 464 l 775 464 q 789 450 789 464 l 789 176 q 791 94 789 133 q 799 15 793 54 q 797 4 800 8 q 786 0 793 0 l 713 0 q 703 3 707 0 q 697 11 699 6 q 692 51 694 29 q 688 99 689 74 l 686 99 q 620 34 660 60 q 531 -4 581 8 q 425 -17 482 -17 z "},"Ğ":{"ha":907,"x_min":101,"x_max":800,"o":"m 425 -17 q 251 22 324 -17 q 140 134 179 61 q 101 310 101 207 l 101 600 q 194 840 101 753 q 450 926 288 926 q 640 890 560 926 q 759 786 719 853 q 785 628 799 719 q 769 614 783 614 l 679 614 q 667 628 664 614 q 647 735 671 692 q 575 800 624 778 q 453 822 526 822 q 278 767 338 822 q 219 601 219 711 l 219 308 q 275 142 219 197 q 443 88 331 88 q 619 144 558 88 q 679 308 679 201 l 679 361 l 463 361 q 449 375 449 361 l 449 450 q 463 464 449 464 l 775 464 q 789 450 789 464 l 789 176 q 791 94 789 133 q 799 15 793 54 q 797 4 800 8 q 786 0 793 0 l 713 0 q 703 3 707 0 q 697 11 699 6 q 692 51 694 29 q 688 99 689 74 l 686 99 q 620 34 660 60 q 531 -4 581 8 q 425 -17 482 -17 m 431 994 q 317 1016 368 994 q 249 1050 267 1038 q 240 1067 240 1057 l 240 1143 q 244 1154 240 1151 q 256 1153 249 1157 q 330 1116 282 1139 q 431 1093 378 1093 q 531 1116 483 1093 q 606 1153 579 1139 q 617 1154 613 1157 q 621 1143 621 1151 l 621 1067 q 613 1050 621 1057 q 544 1016 594 1038 q 431 994 493 994 z "},"Ģ":{"ha":907,"x_min":101,"x_max":800,"o":"m 425 -17 q 251 22 324 -17 q 140 134 179 61 q 101 310 101 207 l 101 600 q 194 840 101 753 q 450 926 288 926 q 640 890 560 926 q 759 786 719 853 q 785 628 799 719 q 769 614 783 614 l 679 614 q 667 628 664 614 q 647 735 671 692 q 575 800 624 778 q 453 822 526 822 q 278 767 338 822 q 219 601 219 711 l 219 308 q 275 142 219 197 q 443 88 331 88 q 619 144 558 88 q 679 308 679 201 l 679 361 l 463 361 q 449 375 449 361 l 449 450 q 463 464 449 464 l 775 464 q 789 450 789 464 l 789 176 q 791 94 789 133 q 799 15 793 54 q 797 4 800 8 q 786 0 793 0 l 713 0 q 703 3 707 0 q 697 11 699 6 q 692 51 694 29 q 688 99 689 74 l 686 99 q 620 34 660 60 q 531 -4 581 8 q 425 -17 482 -17 m 406 -321 q 397 -308 396 -321 l 419 -215 q 388 -194 397 -208 q 379 -158 379 -181 l 379 -135 q 396 -93 379 -108 q 440 -78 413 -78 q 492 -93 476 -78 q 508 -135 508 -108 l 508 -160 q 506 -195 508 -178 q 497 -229 503 -212 l 469 -312 q 456 -321 467 -321 l 406 -321 z "},"Ġ":{"ha":907,"x_min":101,"x_max":800,"o":"m 425 -17 q 251 22 324 -17 q 140 134 179 61 q 101 310 101 207 l 101 600 q 194 840 101 753 q 450 926 288 926 q 640 890 560 926 q 759 786 719 853 q 785 628 799 719 q 769 614 783 614 l 679 614 q 667 628 664 614 q 647 735 671 692 q 575 800 624 778 q 453 822 526 822 q 278 767 338 822 q 219 601 219 711 l 219 308 q 275 142 219 197 q 443 88 331 88 q 619 144 558 88 q 679 308 679 201 l 679 361 l 463 361 q 449 375 449 361 l 449 450 q 463 464 449 464 l 775 464 q 789 450 789 464 l 789 176 q 791 94 789 133 q 799 15 793 54 q 797 4 800 8 q 786 0 793 0 l 713 0 q 703 3 707 0 q 697 11 699 6 q 692 51 694 29 q 688 99 689 74 l 686 99 q 620 34 660 60 q 531 -4 581 8 q 425 -17 482 -17 m 431 1007 q 372 1028 390 1007 q 354 1083 354 1050 l 354 1097 q 372 1152 354 1131 q 431 1174 390 1174 q 489 1152 471 1174 q 507 1097 507 1131 l 507 1083 q 489 1028 507 1050 q 431 1007 471 1007 z "},"H":{"ha":918,"x_min":118,"x_max":800,"o":"m 132 0 q 118 14 118 0 l 118 896 q 132 910 118 910 l 222 910 q 236 896 236 910 l 236 521 l 682 521 l 682 896 q 696 910 682 910 l 786 910 q 800 896 800 910 l 800 14 q 786 0 800 0 l 696 0 q 682 14 682 0 l 682 418 l 236 418 l 236 14 q 222 0 236 0 l 132 0 z "},"Ħ":{"ha":918,"x_min":40,"x_max":878,"o":"m 54 717 q 40 731 40 717 l 40 801 q 54 815 40 815 l 864 815 q 878 801 878 815 l 878 731 q 864 717 878 717 l 800 717 l 118 717 l 54 717 m 132 0 q 118 14 118 0 l 118 896 q 132 910 118 910 l 222 910 q 236 896 236 910 l 236 521 l 682 521 l 682 896 q 696 910 682 910 l 786 910 q 800 896 800 910 l 800 14 q 786 0 800 0 l 696 0 q 682 14 682 0 l 682 418 l 236 418 l 236 14 q 222 0 236 0 l 132 0 z "},"I":{"ha":354,"x_min":118,"x_max":236,"o":"m 132 0 q 118 14 118 0 l 118 896 q 132 910 118 910 l 222 910 q 236 896 236 910 l 236 14 q 222 0 236 0 l 132 0 z "},"Ĳ":{"ha":722,"x_min":118,"x_max":604,"o":"m 132 0 q 118 14 118 0 l 118 896 q 132 910 118 910 l 222 910 q 236 896 236 910 l 236 14 q 222 0 236 0 l 132 0 m 406 -193 q 371 -187 375 -200 l 347 -106 q 372 -83 343 -90 q 458 -19 429 -69 q 486 114 486 31 l 486 896 q 500 910 486 910 l 590 910 q 604 896 604 910 l 604 119 q 553 -92 604 -15 q 406 -193 503 -169 z "},"Í":{"ha":354,"x_min":103,"x_max":310,"o":"m 132 0 q 118 14 118 0 l 118 896 q 132 910 118 910 l 222 910 q 236 896 236 910 l 236 14 q 222 0 236 0 l 132 0 m 113 986 q 104 990 106 986 q 106 1000 103 994 l 183 1142 q 197 1151 189 1151 l 299 1151 q 308 1147 306 1151 q 306 1135 310 1142 l 206 994 q 190 986 200 986 l 113 986 z "},"Î":{"ha":354,"x_min":-17,"x_max":372,"o":"m 132 0 q 118 14 118 0 l 118 896 q 132 910 118 910 l 222 910 q 236 896 236 910 l 236 14 q 222 0 236 0 l 132 0 m -1 997 q -17 1006 -17 990 l -17 1075 q -7 1089 -17 1085 l 168 1167 q 188 1167 178 1172 l 363 1089 q 372 1075 372 1085 l 372 1006 q 357 997 372 990 l 178 1061 l -1 997 z "},"Ï":{"ha":354,"x_min":-11,"x_max":367,"o":"m 132 0 q 118 14 118 0 l 118 896 q 132 910 118 910 l 222 910 q 236 896 236 910 l 236 14 q 222 0 236 0 l 132 0 m 61 988 q 6 1008 22 988 q -11 1058 -11 1028 l -11 1072 q 6 1124 -11 1104 q 61 1143 22 1143 q 117 1124 100 1143 q 133 1072 133 1104 l 133 1058 q 117 1008 133 1028 q 61 988 100 988 m 294 988 q 239 1008 256 988 q 222 1058 222 1028 l 222 1072 q 239 1124 222 1104 q 294 1143 256 1143 q 350 1124 333 1143 q 367 1072 367 1104 l 367 1058 q 350 1008 367 1028 q 294 988 333 988 z "},"İ":{"ha":354,"x_min":101,"x_max":254,"o":"m 132 0 q 118 14 118 0 l 118 896 q 132 910 118 910 l 222 910 q 236 896 236 910 l 236 14 q 222 0 236 0 l 132 0 m 178 1007 q 119 1028 138 1007 q 101 1083 101 1050 l 101 1097 q 119 1152 101 1131 q 178 1174 138 1174 q 236 1152 218 1174 q 254 1097 254 1131 l 254 1083 q 236 1028 254 1050 q 178 1007 218 1007 z "},"Ì":{"ha":354,"x_min":46,"x_max":253,"o":"m 132 0 q 118 14 118 0 l 118 896 q 132 910 118 910 l 222 910 q 236 896 236 910 l 236 14 q 222 0 236 0 l 132 0 m 165 986 q 150 994 156 986 l 50 1135 q 48 1147 46 1142 q 57 1151 50 1151 l 158 1151 q 172 1142 168 1151 l 250 1000 q 251 990 253 994 q 243 986 250 986 l 165 986 z "},"Ī":{"ha":354,"x_min":14,"x_max":340,"o":"m 132 0 q 118 14 118 0 l 118 896 q 132 910 118 910 l 222 910 q 236 896 236 910 l 236 14 q 222 0 236 0 l 132 0 m 28 996 q 14 1010 14 996 l 14 1082 q 28 1096 14 1096 l 326 1096 q 340 1082 340 1096 l 340 1010 q 326 996 340 996 l 28 996 z "},"Į":{"ha":354,"x_min":47,"x_max":251,"o":"m 132 0 q 118 14 118 0 l 118 896 q 132 910 118 910 l 222 910 q 236 896 236 910 l 236 14 q 222 0 236 0 l 132 0 m 185 -274 q 81 -242 114 -274 q 47 -161 47 -211 l 47 -144 q 89 -40 47 -87 q 200 32 131 8 l 228 17 l 228 1 q 168 -51 189 -18 q 147 -121 147 -85 l 147 -135 q 204 -186 147 -186 q 223 -186 215 -186 q 239 -185 231 -186 q 251 -194 251 -183 l 251 -256 q 249 -265 251 -261 q 240 -269 247 -268 q 212 -272 226 -271 q 185 -274 197 -274 z "},"J":{"ha":368,"x_min":-11,"x_max":250,"o":"m 51 -193 q 17 -187 21 -200 l -7 -106 q 18 -83 -11 -90 q 103 -19 75 -69 q 132 114 132 31 l 132 896 q 146 910 132 910 l 236 910 q 250 896 250 910 l 250 119 q 199 -92 250 -15 q 51 -193 149 -169 z "},"K":{"ha":826,"x_min":118,"x_max":807,"o":"m 132 0 q 118 14 118 0 l 118 896 q 132 910 118 910 l 222 910 q 236 896 236 910 l 236 628 q 236 544 236 586 q 235 460 236 501 l 236 460 q 300 531 268 496 q 364 601 332 565 l 635 903 q 651 910 640 910 l 769 910 q 781 905 778 910 q 778 893 785 900 l 451 540 l 803 17 q 805 5 807 10 q 794 0 803 0 l 679 0 q 663 10 669 0 l 369 450 l 236 306 l 236 14 q 222 0 236 0 l 132 0 z "},"Ķ":{"ha":826,"x_min":118,"x_max":807,"o":"m 132 0 q 118 14 118 0 l 118 896 q 132 910 118 910 l 222 910 q 236 896 236 910 l 236 628 q 236 544 236 586 q 235 460 236 501 l 236 460 q 300 531 268 496 q 364 601 332 565 l 635 903 q 651 910 640 910 l 769 910 q 781 905 778 910 q 778 893 785 900 l 451 540 l 803 17 q 805 5 807 10 q 794 0 803 0 l 679 0 q 663 10 669 0 l 369 450 l 236 306 l 236 14 q 222 0 236 0 l 132 0 m 403 -321 q 394 -308 393 -321 l 417 -215 q 385 -194 394 -208 q 376 -158 376 -181 l 376 -135 q 393 -93 376 -108 q 438 -78 410 -78 q 490 -93 474 -78 q 506 -135 506 -108 l 506 -160 q 503 -195 506 -178 q 494 -229 500 -212 l 467 -312 q 453 -321 464 -321 l 403 -321 z "},"L":{"ha":661,"x_min":118,"x_max":633,"o":"m 132 0 q 118 14 118 0 l 118 896 q 132 910 118 910 l 222 910 q 236 896 236 910 l 236 107 l 619 107 q 633 93 633 107 l 633 14 q 619 0 633 0 l 132 0 z "},"Ĺ":{"ha":661,"x_min":101,"x_max":633,"o":"m 132 0 q 118 14 118 0 l 118 896 q 132 910 118 910 l 222 910 q 236 896 236 910 l 236 107 l 619 107 q 633 93 633 107 l 633 14 q 619 0 633 0 l 132 0 m 111 986 q 103 990 104 986 q 104 1000 101 994 l 182 1142 q 196 1151 188 1151 l 297 1151 q 306 1147 304 1151 q 304 1135 308 1142 l 204 994 q 189 986 199 986 l 111 986 z "},"Ľ":{"ha":661,"x_min":118,"x_max":633,"o":"m 132 0 q 118 14 118 0 l 118 896 q 132 910 118 910 l 222 910 q 236 896 236 910 l 236 107 l 619 107 q 633 93 633 107 l 633 14 q 619 0 633 0 l 132 0 m 394 694 q 382 710 379 694 l 401 789 q 370 808 379 796 q 361 842 361 819 l 361 876 q 378 913 361 899 q 422 926 394 926 q 474 913 458 926 q 490 876 490 899 l 490 840 q 488 807 490 822 q 479 775 486 792 l 454 706 q 438 694 450 694 l 394 694 z "},"Ļ":{"ha":661,"x_min":118,"x_max":633,"o":"m 132 0 q 118 14 118 0 l 118 896 q 132 910 118 910 l 222 910 q 236 896 236 910 l 236 107 l 619 107 q 633 93 633 107 l 633 14 q 619 0 633 0 l 132 0 m 347 -321 q 339 -308 338 -321 l 361 -215 q 330 -194 339 -208 q 321 -158 321 -181 l 321 -135 q 338 -93 321 -108 q 382 -78 354 -78 q 434 -93 418 -78 q 450 -135 450 -108 l 450 -160 q 447 -195 450 -178 q 439 -229 444 -212 l 411 -312 q 397 -321 408 -321 l 347 -321 z "},"Ł":{"ha":661,"x_min":-18,"x_max":633,"o":"m -1 367 q -18 378 -18 360 l -18 456 q -7 471 -18 467 l 411 643 q 428 632 428 650 l 428 556 q 417 540 428 544 l -1 367 m 132 0 q 118 14 118 0 l 118 896 q 132 910 118 910 l 222 910 q 236 896 236 910 l 236 107 l 619 107 q 633 93 633 107 l 633 14 q 619 0 633 0 l 132 0 z "},"M":{"ha":1068,"x_min":97,"x_max":971,"o":"m 111 0 q 97 14 97 0 l 117 896 q 131 910 117 910 l 278 910 q 293 899 288 910 l 536 353 l 775 899 q 790 910 781 910 l 938 910 q 951 896 951 910 l 971 14 q 957 0 971 0 l 869 0 q 856 14 856 0 l 842 572 q 842 674 840 624 q 846 775 844 724 l 843 775 q 801 674 822 724 q 756 572 779 624 l 550 126 q 535 117 546 117 l 532 117 q 517 126 521 117 l 308 579 q 266 677 286 628 q 226 775 246 726 l 224 775 q 227 676 226 726 q 226 578 228 626 l 213 14 q 199 0 213 0 l 111 0 z "},"N":{"ha":919,"x_min":118,"x_max":801,"o":"m 132 0 q 118 14 118 0 l 118 896 q 132 910 118 910 l 293 910 q 310 900 306 910 l 571 369 q 617 276 597 318 q 653 199 638 235 q 683 128 669 163 l 686 128 q 686 209 686 167 q 685 294 686 251 q 685 375 685 338 l 685 896 q 699 910 685 910 l 788 910 q 801 896 801 910 l 801 14 q 788 0 801 0 l 631 0 q 614 10 618 0 l 357 526 q 314 615 335 572 q 274 699 293 657 q 236 782 254 740 l 233 782 q 234 692 233 735 q 235 606 235 649 q 235 515 235 564 l 235 14 q 221 0 235 0 l 132 0 z "},"Ń":{"ha":919,"x_min":118,"x_max":801,"o":"m 132 0 q 118 14 118 0 l 118 896 q 132 910 118 910 l 293 910 q 310 900 306 910 l 571 369 q 617 276 597 318 q 653 199 638 235 q 683 128 669 163 l 686 128 q 686 209 686 167 q 685 294 686 251 q 685 375 685 338 l 685 896 q 699 910 685 910 l 788 910 q 801 896 801 910 l 801 14 q 788 0 801 0 l 631 0 q 614 10 618 0 l 357 526 q 314 615 335 572 q 274 699 293 657 q 236 782 254 740 l 233 782 q 234 692 233 735 q 235 606 235 649 q 235 515 235 564 l 235 14 q 221 0 235 0 l 132 0 m 394 986 q 386 990 388 986 q 388 1000 385 994 l 465 1142 q 479 1151 471 1151 l 581 1151 q 590 1147 588 1151 q 588 1135 592 1142 l 488 994 q 472 986 482 986 l 394 986 z "},"Ň":{"ha":919,"x_min":118,"x_max":801,"o":"m 132 0 q 118 14 118 0 l 118 896 q 132 910 118 910 l 293 910 q 310 900 306 910 l 571 369 q 617 276 597 318 q 653 199 638 235 q 683 128 669 163 l 686 128 q 686 209 686 167 q 685 294 686 251 q 685 375 685 338 l 685 896 q 699 910 685 910 l 788 910 q 801 896 801 910 l 801 14 q 788 0 801 0 l 631 0 q 614 10 618 0 l 357 526 q 314 615 335 572 q 274 699 293 657 q 236 782 254 740 l 233 782 q 234 692 233 735 q 235 606 235 649 q 235 515 235 564 l 235 14 q 221 0 235 0 l 132 0 m 450 997 l 275 1075 q 265 1089 265 1079 l 265 1158 q 281 1167 265 1174 l 460 1103 l 639 1167 q 654 1158 654 1174 l 654 1089 q 644 1075 654 1079 l 469 997 q 450 997 460 993 z "},"Ņ":{"ha":919,"x_min":118,"x_max":801,"o":"m 132 0 q 118 14 118 0 l 118 896 q 132 910 118 910 l 293 910 q 310 900 306 910 l 571 369 q 617 276 597 318 q 653 199 638 235 q 683 128 669 163 l 686 128 q 686 209 686 167 q 685 294 686 251 q 685 375 685 338 l 685 896 q 699 910 685 910 l 788 910 q 801 896 801 910 l 801 14 q 788 0 801 0 l 631 0 q 614 10 618 0 l 357 526 q 314 615 335 572 q 274 699 293 657 q 236 782 254 740 l 233 782 q 234 692 233 735 q 235 606 235 649 q 235 515 235 564 l 235 14 q 221 0 235 0 l 132 0 m 421 -321 q 413 -308 411 -321 l 435 -215 q 403 -194 413 -208 q 394 -158 394 -181 l 394 -135 q 411 -93 394 -108 q 456 -78 428 -78 q 508 -93 492 -78 q 524 -135 524 -108 l 524 -160 q 521 -195 524 -178 q 513 -229 518 -212 l 485 -312 q 471 -321 482 -321 l 421 -321 z "},"Ŋ":{"ha":919,"x_min":118,"x_max":801,"o":"m 617 -260 l 563 -192 q 560 -179 557 -185 q 576 -167 564 -174 q 642 -97 615 -140 q 678 0 668 -53 l 631 0 q 614 10 618 0 l 357 526 q 314 615 335 572 q 274 699 293 657 q 236 782 254 740 l 233 782 q 234 692 233 735 q 235 606 235 649 q 235 515 235 564 l 235 14 q 221 0 235 0 l 132 0 q 118 14 118 0 l 118 896 q 132 910 118 910 l 293 910 q 310 900 306 910 l 571 369 q 617 276 597 318 q 653 199 638 235 q 683 128 669 163 l 686 128 q 686 209 686 167 q 685 294 686 251 q 685 375 685 338 l 685 896 q 699 910 685 910 l 788 910 q 801 896 801 910 l 801 83 q 785 -62 801 3 q 735 -175 768 -128 q 654 -253 703 -222 q 630 -264 638 -262 q 617 -260 622 -265 z "},"Ñ":{"ha":919,"x_min":118,"x_max":801,"o":"m 132 0 q 118 14 118 0 l 118 896 q 132 910 118 910 l 293 910 q 310 900 306 910 l 571 369 q 617 276 597 318 q 653 199 638 235 q 683 128 669 163 l 686 128 q 686 209 686 167 q 685 294 686 251 q 685 375 685 338 l 685 896 q 699 910 685 910 l 788 910 q 801 896 801 910 l 801 14 q 788 0 801 0 l 631 0 q 614 10 618 0 l 357 526 q 314 615 335 572 q 274 699 293 657 q 236 782 254 740 l 233 782 q 234 692 233 735 q 235 606 235 649 q 235 515 235 564 l 235 14 q 221 0 235 0 l 132 0 m 538 999 q 483 1008 507 999 q 435 1025 458 1017 q 382 1033 411 1033 q 326 1024 353 1033 q 283 1007 299 1015 q 267 1015 267 997 l 267 1081 q 275 1099 267 1094 q 317 1119 290 1106 q 386 1133 343 1133 q 448 1125 424 1133 q 493 1108 472 1117 q 540 1099 514 1099 q 597 1108 569 1099 q 639 1125 624 1117 q 656 1117 656 1135 l 656 1051 q 647 1033 656 1040 q 606 1011 633 1024 q 538 999 579 999 z "},"O":{"ha":892,"x_min":101,"x_max":790,"o":"m 446 -17 q 187 69 272 -17 q 101 310 101 154 l 101 600 q 187 842 101 757 q 446 926 272 926 q 705 842 619 926 q 790 600 790 757 l 790 310 q 705 69 790 154 q 446 -17 619 -17 m 446 88 q 615 144 557 88 q 672 311 672 201 l 672 599 q 615 766 672 710 q 446 822 557 822 q 278 766 336 822 q 219 599 219 710 l 219 311 q 278 144 219 201 q 446 88 336 88 z "},"Ó":{"ha":892,"x_min":101,"x_max":790,"o":"m 446 -17 q 187 69 272 -17 q 101 310 101 154 l 101 600 q 187 842 101 757 q 446 926 272 926 q 705 842 619 926 q 790 600 790 757 l 790 310 q 705 69 790 154 q 446 -17 619 -17 m 446 88 q 615 144 557 88 q 672 311 672 201 l 672 599 q 615 766 672 710 q 446 822 557 822 q 278 766 336 822 q 219 599 219 710 l 219 311 q 278 144 219 201 q 446 88 336 88 m 381 986 q 372 990 374 986 q 374 1000 371 994 l 451 1142 q 465 1151 457 1151 l 567 1151 q 576 1147 574 1151 q 574 1135 578 1142 l 474 994 q 458 986 468 986 l 381 986 z "},"Ô":{"ha":892,"x_min":101,"x_max":790,"o":"m 446 -17 q 187 69 272 -17 q 101 310 101 154 l 101 600 q 187 842 101 757 q 446 926 272 926 q 705 842 619 926 q 790 600 790 757 l 790 310 q 705 69 790 154 q 446 -17 619 -17 m 446 88 q 615 144 557 88 q 672 311 672 201 l 672 599 q 615 766 672 710 q 446 822 557 822 q 278 766 336 822 q 219 599 219 710 l 219 311 q 278 144 219 201 q 446 88 336 88 m 267 997 q 251 1006 251 990 l 251 1075 q 261 1089 251 1085 l 436 1167 q 456 1167 446 1172 l 631 1089 q 640 1075 640 1085 l 640 1006 q 625 997 640 990 l 446 1061 l 267 997 z "},"Ö":{"ha":892,"x_min":101,"x_max":790,"o":"m 446 -17 q 187 69 272 -17 q 101 310 101 154 l 101 600 q 187 842 101 757 q 446 926 272 926 q 705 842 619 926 q 790 600 790 757 l 790 310 q 705 69 790 154 q 446 -17 619 -17 m 446 88 q 615 144 557 88 q 672 311 672 201 l 672 599 q 615 766 672 710 q 446 822 557 822 q 278 766 336 822 q 219 599 219 710 l 219 311 q 278 144 219 201 q 446 88 336 88 m 329 988 q 274 1008 290 988 q 257 1058 257 1028 l 257 1072 q 274 1124 257 1104 q 329 1143 290 1143 q 385 1124 368 1143 q 401 1072 401 1104 l 401 1058 q 385 1008 401 1028 q 329 988 368 988 m 563 988 q 507 1008 524 988 q 490 1058 490 1028 l 490 1072 q 507 1124 490 1104 q 563 1143 524 1143 q 618 1124 601 1143 q 635 1072 635 1104 l 635 1058 q 618 1008 635 1028 q 563 988 601 988 z "},"Ò":{"ha":892,"x_min":101,"x_max":790,"o":"m 446 -17 q 187 69 272 -17 q 101 310 101 154 l 101 600 q 187 842 101 757 q 446 926 272 926 q 705 842 619 926 q 790 600 790 757 l 790 310 q 705 69 790 154 q 446 -17 619 -17 m 446 88 q 615 144 557 88 q 672 311 672 201 l 672 599 q 615 766 672 710 q 446 822 557 822 q 278 766 336 822 q 219 599 219 710 l 219 311 q 278 144 219 201 q 446 88 336 88 m 433 986 q 418 994 424 986 l 318 1135 q 316 1147 314 1142 q 325 1151 318 1151 l 426 1151 q 440 1142 436 1151 l 518 1000 q 519 990 521 994 q 511 986 518 986 l 433 986 z "},"Ő":{"ha":892,"x_min":101,"x_max":790,"o":"m 446 -17 q 187 69 272 -17 q 101 310 101 154 l 101 600 q 187 842 101 757 q 446 926 272 926 q 705 842 619 926 q 790 600 790 757 l 790 310 q 705 69 790 154 q 446 -17 619 -17 m 446 88 q 615 144 557 88 q 672 311 672 201 l 672 599 q 615 766 672 710 q 446 822 557 822 q 278 766 336 822 q 219 599 219 710 l 219 311 q 278 144 219 201 q 446 88 336 88 m 496 986 q 488 1001 481 986 l 547 1140 q 563 1151 551 1151 l 653 1151 q 661 1135 671 1151 l 586 996 q 569 986 581 986 l 496 986 m 299 986 q 290 1001 283 986 l 350 1140 q 365 1151 354 1151 l 456 1151 q 464 1135 474 1151 l 389 996 q 372 986 383 986 l 299 986 z "},"Ō":{"ha":892,"x_min":101,"x_max":790,"o":"m 446 -17 q 187 69 272 -17 q 101 310 101 154 l 101 600 q 187 842 101 757 q 446 926 272 926 q 705 842 619 926 q 790 600 790 757 l 790 310 q 705 69 790 154 q 446 -17 619 -17 m 446 88 q 615 144 557 88 q 672 311 672 201 l 672 599 q 615 766 672 710 q 446 822 557 822 q 278 766 336 822 q 219 599 219 710 l 219 311 q 278 144 219 201 q 446 88 336 88 m 296 996 q 282 1010 282 996 l 282 1082 q 296 1096 282 1096 l 594 1096 q 608 1082 608 1096 l 608 1010 q 594 996 608 996 l 296 996 z "},"Ø":{"ha":892,"x_min":60,"x_max":832,"o":"m 72 -69 q 62 -65 64 -69 q 64 -53 60 -60 l 178 125 l 219 190 l 619 819 l 640 853 l 715 971 q 732 979 721 979 l 819 979 q 830 974 828 979 q 828 963 832 969 l 711 779 l 679 728 l 281 104 l 253 60 l 176 -61 q 160 -69 171 -69 l 72 -69 m 446 -17 q 187 69 272 -17 q 101 310 101 154 l 101 600 q 187 842 101 757 q 446 926 272 926 q 705 842 619 926 q 790 600 790 757 l 790 310 q 705 69 790 154 q 446 -17 619 -17 m 446 88 q 615 144 557 88 q 672 311 672 201 l 672 599 q 615 766 672 710 q 446 822 557 822 q 278 766 336 822 q 219 599 219 710 l 219 311 q 278 144 219 201 q 446 88 336 88 z "},"Õ":{"ha":892,"x_min":101,"x_max":790,"o":"m 446 -17 q 187 69 272 -17 q 101 310 101 154 l 101 600 q 187 842 101 757 q 446 926 272 926 q 705 842 619 926 q 790 600 790 757 l 790 310 q 705 69 790 154 q 446 -17 619 -17 m 446 88 q 615 144 557 88 q 672 311 672 201 l 672 599 q 615 766 672 710 q 446 822 557 822 q 278 766 336 822 q 219 599 219 710 l 219 311 q 278 144 219 201 q 446 88 336 88 m 524 999 q 469 1008 493 999 q 421 1025 444 1017 q 368 1033 397 1033 q 312 1024 339 1033 q 269 1007 285 1015 q 253 1015 253 997 l 253 1081 q 261 1099 253 1094 q 303 1119 276 1106 q 372 1133 329 1133 q 434 1125 410 1133 q 479 1108 458 1117 q 526 1099 500 1099 q 583 1108 556 1099 q 625 1125 610 1117 q 642 1117 642 1135 l 642 1051 q 633 1033 642 1040 q 592 1011 619 1024 q 524 999 565 999 z "},"Œ":{"ha":1214,"x_min":101,"x_max":1114,"o":"m 446 -17 q 188 69 274 -17 q 101 310 101 156 l 101 600 q 188 840 101 754 q 446 926 274 926 q 522 922 482 926 q 592 910 563 918 l 1100 910 q 1114 896 1114 910 l 1114 817 q 1100 803 1114 803 l 710 803 l 710 514 l 1067 514 q 1081 500 1081 514 l 1081 425 q 1067 411 1081 411 l 710 411 l 710 107 l 1100 107 q 1114 93 1114 107 l 1114 14 q 1100 0 1114 0 l 592 0 q 522 -12 563 -8 q 446 -17 482 -17 m 446 88 q 526 91 486 88 q 592 100 565 94 l 592 810 q 526 819 565 817 q 446 822 486 822 q 278 765 336 822 q 219 601 219 708 l 219 308 q 278 144 219 201 q 446 88 336 88 z "},"P":{"ha":757,"x_min":118,"x_max":701,"o":"m 132 0 q 118 14 118 0 l 118 896 q 132 910 118 910 l 364 910 q 617 838 532 910 q 701 626 701 767 q 616 415 701 488 q 364 343 531 343 l 236 343 l 236 14 q 222 0 236 0 l 132 0 m 236 443 l 361 443 q 531 487 478 443 q 583 622 583 531 q 528 765 583 721 q 358 810 474 810 l 236 810 l 236 443 z "},"Þ":{"ha":757,"x_min":118,"x_max":701,"o":"m 132 0 q 118 14 118 0 l 118 896 q 132 910 118 910 l 222 910 q 236 896 236 910 l 236 756 l 364 756 q 617 684 532 756 q 701 472 701 613 q 616 261 701 333 q 364 189 531 189 l 236 189 l 236 14 q 222 0 236 0 l 132 0 m 236 289 l 361 289 q 531 333 478 289 q 583 468 583 376 q 528 611 583 567 q 358 656 474 656 l 236 656 l 236 289 z "},"Q":{"ha":892,"x_min":101,"x_max":790,"o":"m 613 -253 q 512 -221 553 -253 q 451 -122 471 -189 q 436 47 432 -56 q 450 61 436 61 l 535 56 q 549 40 549 56 q 567 -103 546 -62 q 635 -144 588 -144 q 656 -142 644 -144 q 678 -137 667 -139 q 689 -140 685 -136 q 693 -150 693 -143 l 693 -226 q 676 -244 693 -239 q 647 -250 665 -247 q 613 -253 629 -253 m 446 -17 q 187 69 272 -17 q 101 310 101 154 l 101 600 q 187 842 101 757 q 446 926 272 926 q 705 842 619 926 q 790 600 790 757 l 790 310 q 705 69 790 154 q 446 -17 619 -17 m 446 88 q 615 144 557 88 q 672 311 672 201 l 672 599 q 615 766 672 710 q 446 822 557 822 q 278 766 336 822 q 219 599 219 710 l 219 311 q 278 144 219 201 q 446 88 336 88 z "},"R":{"ha":839,"x_min":118,"x_max":778,"o":"m 132 0 q 118 14 118 0 l 118 896 q 132 910 118 910 l 400 910 q 645 847 565 910 q 725 660 725 785 q 677 494 725 560 q 542 403 629 428 l 542 401 l 774 17 q 775 5 778 10 q 764 0 772 0 l 657 0 q 640 10 646 0 l 414 388 l 236 388 l 236 14 q 222 0 236 0 l 132 0 m 236 482 l 388 482 q 556 522 504 482 q 607 651 607 563 q 559 774 607 738 q 396 810 511 810 l 236 810 l 236 482 z "},"Ŕ":{"ha":839,"x_min":118,"x_max":778,"o":"m 132 0 q 118 14 118 0 l 118 896 q 132 910 118 910 l 400 910 q 645 847 565 910 q 725 660 725 785 q 677 494 725 560 q 542 403 629 428 l 542 401 l 774 17 q 775 5 778 10 q 764 0 772 0 l 657 0 q 640 10 646 0 l 414 388 l 236 388 l 236 14 q 222 0 236 0 l 132 0 m 236 482 l 388 482 q 556 522 504 482 q 607 651 607 563 q 559 774 607 738 q 396 810 511 810 l 236 810 l 236 482 m 319 986 q 311 990 313 986 q 313 1000 310 994 l 390 1142 q 404 1151 396 1151 l 506 1151 q 515 1147 513 1151 q 513 1135 517 1142 l 413 994 q 397 986 407 986 l 319 986 z "},"Ř":{"ha":839,"x_min":118,"x_max":778,"o":"m 132 0 q 118 14 118 0 l 118 896 q 132 910 118 910 l 400 910 q 645 847 565 910 q 725 660 725 785 q 677 494 725 560 q 542 403 629 428 l 542 401 l 774 17 q 775 5 778 10 q 764 0 772 0 l 657 0 q 640 10 646 0 l 414 388 l 236 388 l 236 14 q 222 0 236 0 l 132 0 m 236 482 l 388 482 q 556 522 504 482 q 607 651 607 563 q 559 774 607 738 q 396 810 511 810 l 236 810 l 236 482 m 375 997 l 200 1075 q 190 1089 190 1079 l 190 1158 q 206 1167 190 1174 l 385 1103 l 564 1167 q 579 1158 579 1174 l 579 1089 q 569 1075 579 1079 l 394 997 q 375 997 385 993 z "},"Ŗ":{"ha":839,"x_min":118,"x_max":778,"o":"m 132 0 q 118 14 118 0 l 118 896 q 132 910 118 910 l 400 910 q 645 847 565 910 q 725 660 725 785 q 677 494 725 560 q 542 403 629 428 l 542 401 l 774 17 q 775 5 778 10 q 764 0 772 0 l 657 0 q 640 10 646 0 l 414 388 l 236 388 l 236 14 q 222 0 236 0 l 132 0 m 236 482 l 388 482 q 556 522 504 482 q 607 651 607 563 q 559 774 607 738 q 396 810 511 810 l 236 810 l 236 482 m 381 -321 q 372 -308 371 -321 l 394 -215 q 363 -194 372 -208 q 354 -158 354 -181 l 354 -135 q 371 -93 354 -108 q 415 -78 388 -78 q 467 -93 451 -78 q 483 -135 483 -108 l 483 -160 q 481 -195 483 -178 q 472 -229 478 -212 l 444 -312 q 431 -321 442 -321 l 381 -321 z "},"S":{"ha":789,"x_min":64,"x_max":714,"o":"m 386 -17 q 142 55 219 -17 q 72 242 64 126 q 89 267 74 267 l 176 267 q 193 244 193 267 q 243 123 193 160 q 396 86 293 86 q 545 122 494 86 q 596 229 596 157 q 584 291 596 265 q 544 336 572 317 q 469 375 517 356 l 265 460 q 162 519 201 486 q 105 594 122 551 q 88 690 88 636 q 165 865 89 806 q 385 925 240 925 q 556 896 483 925 q 665 811 628 867 q 696 675 703 756 q 681 649 693 649 l 592 649 q 581 654 585 649 q 579 675 578 660 q 531 784 585 746 q 381 822 478 822 q 251 792 294 822 q 206 697 207 761 q 217 639 206 664 q 258 593 229 614 q 336 551 286 572 l 538 467 q 640 408 601 440 q 697 334 679 376 q 714 232 714 292 q 635 49 714 115 q 386 -17 556 -17 z "},"Ś":{"ha":789,"x_min":64,"x_max":714,"o":"m 386 -17 q 142 55 219 -17 q 72 242 64 126 q 89 267 74 267 l 176 267 q 193 244 193 267 q 243 123 193 160 q 396 86 293 86 q 545 122 494 86 q 596 229 596 157 q 584 291 596 265 q 544 336 572 317 q 469 375 517 356 l 265 460 q 162 519 201 486 q 105 594 122 551 q 88 690 88 636 q 165 865 89 806 q 385 925 240 925 q 556 896 483 925 q 665 811 628 867 q 696 675 703 756 q 681 649 693 649 l 592 649 q 581 654 585 649 q 579 675 578 660 q 531 784 585 746 q 381 822 478 822 q 251 792 294 822 q 206 697 207 761 q 217 639 206 664 q 258 593 229 614 q 336 551 286 572 l 538 467 q 640 408 601 440 q 697 334 679 376 q 714 232 714 292 q 635 49 714 115 q 386 -17 556 -17 m 325 986 q 317 990 318 986 q 318 1000 315 994 l 396 1142 q 410 1151 401 1151 l 511 1151 q 520 1147 518 1151 q 518 1135 522 1142 l 418 994 q 403 986 413 986 l 325 986 z "},"Š":{"ha":789,"x_min":64,"x_max":714,"o":"m 386 -17 q 142 55 219 -17 q 72 242 64 126 q 89 267 74 267 l 176 267 q 193 244 193 267 q 243 123 193 160 q 396 86 293 86 q 545 122 494 86 q 596 229 596 157 q 584 291 596 265 q 544 336 572 317 q 469 375 517 356 l 265 460 q 162 519 201 486 q 105 594 122 551 q 88 690 88 636 q 165 865 89 806 q 385 925 240 925 q 556 896 483 925 q 665 811 628 867 q 696 675 703 756 q 681 649 693 649 l 592 649 q 581 654 585 649 q 579 675 578 660 q 531 784 585 746 q 381 822 478 822 q 251 792 294 822 q 206 697 207 761 q 217 639 206 664 q 258 593 229 614 q 336 551 286 572 l 538 467 q 640 408 601 440 q 697 334 679 376 q 714 232 714 292 q 635 49 714 115 q 386 -17 556 -17 m 381 997 l 206 1075 q 196 1089 196 1079 l 196 1158 q 211 1167 196 1174 l 390 1103 l 569 1167 q 585 1158 585 1174 l 585 1089 q 575 1075 585 1079 l 400 997 q 381 997 390 993 z "},"Ş":{"ha":789,"x_min":64,"x_max":714,"o":"m 386 -17 q 142 55 219 -17 q 72 242 64 126 q 89 267 74 267 l 176 267 q 193 244 193 267 q 243 123 193 160 q 396 86 293 86 q 545 122 494 86 q 596 229 596 157 q 584 291 596 265 q 544 336 572 317 q 469 375 517 356 l 265 460 q 162 519 201 486 q 105 594 122 551 q 88 690 88 636 q 165 865 89 806 q 385 925 240 925 q 556 896 483 925 q 665 811 628 867 q 696 675 703 756 q 681 649 693 649 l 592 649 q 581 654 585 649 q 579 675 578 660 q 531 784 585 746 q 381 822 478 822 q 251 792 294 822 q 206 697 207 761 q 217 639 206 664 q 258 593 229 614 q 336 551 286 572 l 538 467 q 640 408 601 440 q 697 334 679 376 q 714 232 714 292 q 635 49 714 115 q 386 -17 556 -17 m 374 -274 q 346 -272 360 -274 q 317 -268 332 -271 q 306 -257 306 -267 l 306 -206 q 317 -196 306 -194 q 338 -198 326 -197 q 356 -199 349 -199 q 399 -189 386 -199 q 413 -165 413 -179 l 413 -147 q 401 -119 413 -126 q 365 -111 389 -111 l 333 -111 q 324 -101 324 -111 q 324 -87 324 -94 q 326 -74 325 -79 l 358 31 q 371 39 361 39 l 438 39 q 444 24 449 39 l 419 -57 l 432 -57 q 487 -81 468 -57 q 506 -146 506 -106 l 506 -167 q 473 -248 506 -222 q 374 -274 440 -274 z "},"Ș":{"ha":789,"x_min":64,"x_max":714,"o":"m 386 -17 q 142 55 219 -17 q 72 242 64 126 q 89 267 74 267 l 176 267 q 193 244 193 267 q 243 123 193 160 q 396 86 293 86 q 545 122 494 86 q 596 229 596 157 q 584 291 596 265 q 544 336 572 317 q 469 375 517 356 l 265 460 q 162 519 201 486 q 105 594 122 551 q 88 690 88 636 q 165 865 89 806 q 385 925 240 925 q 556 896 483 925 q 665 811 628 867 q 696 675 703 756 q 681 649 693 649 l 592 649 q 581 654 585 649 q 579 675 578 660 q 531 784 585 746 q 381 822 478 822 q 251 792 294 822 q 206 697 207 761 q 217 639 206 664 q 258 593 229 614 q 336 551 286 572 l 538 467 q 640 408 601 440 q 697 334 679 376 q 714 232 714 292 q 635 49 714 115 q 386 -17 556 -17 m 367 -321 q 358 -308 357 -321 l 381 -215 q 349 -194 358 -208 q 340 -158 340 -181 l 340 -135 q 357 -93 340 -108 q 401 -78 374 -78 q 453 -93 438 -78 q 469 -135 469 -108 l 469 -160 q 467 -195 469 -178 q 458 -229 464 -212 l 431 -312 q 417 -321 428 -321 l 367 -321 z "},"ẞ":{"ha":904,"x_min":118,"x_max":842,"o":"m 549 -17 q 417 8 471 -17 q 335 75 363 32 q 313 175 308 118 q 319 194 314 190 q 331 197 324 197 l 413 197 q 426 175 426 197 q 458 109 426 132 q 550 86 489 86 q 681 132 638 86 q 724 271 724 178 q 673 412 724 369 q 504 454 622 454 l 439 454 q 425 468 425 454 l 425 519 q 431 538 425 528 l 597 803 l 236 803 l 236 14 q 222 0 236 0 l 132 0 q 118 14 118 0 l 118 896 q 132 910 118 910 l 768 910 q 781 899 779 910 q 776 876 783 889 l 565 549 q 773 472 704 540 q 842 274 842 404 q 766 58 842 133 q 549 -17 690 -17 z "},"T":{"ha":743,"x_min":49,"x_max":694,"o":"m 326 0 q 313 14 313 0 l 313 803 l 63 803 q 49 817 49 803 l 49 896 q 63 910 49 910 l 681 910 q 694 896 694 910 l 694 817 q 681 803 694 803 l 431 803 l 431 14 q 417 0 431 0 l 326 0 z "},"Ŧ":{"ha":743,"x_min":49,"x_max":694,"o":"m 171 421 q 157 435 157 421 l 157 497 q 171 511 157 511 l 572 511 q 586 497 586 511 l 586 435 q 572 421 586 421 l 431 421 l 313 421 l 171 421 m 326 0 q 313 14 313 0 l 313 803 l 63 803 q 49 817 49 803 l 49 896 q 63 910 49 910 l 681 910 q 694 896 694 910 l 694 817 q 681 803 694 803 l 431 803 l 431 14 q 417 0 431 0 l 326 0 z "},"Ť":{"ha":743,"x_min":49,"x_max":694,"o":"m 326 0 q 313 14 313 0 l 313 803 l 63 803 q 49 817 49 803 l 49 896 q 63 910 49 910 l 681 910 q 694 896 694 910 l 694 817 q 681 803 694 803 l 431 803 l 431 14 q 417 0 431 0 l 326 0 m 363 997 l 188 1075 q 178 1089 178 1079 l 178 1158 q 193 1167 178 1174 l 372 1103 l 551 1167 q 567 1158 567 1174 l 567 1089 q 557 1075 567 1079 l 382 997 q 363 997 372 993 z "},"Ţ":{"ha":743,"x_min":49,"x_max":694,"o":"m 326 0 q 313 14 313 0 l 313 803 l 63 803 q 49 817 49 803 l 49 896 q 63 910 49 910 l 681 910 q 694 896 694 910 l 694 817 q 681 803 694 803 l 431 803 l 431 14 q 417 0 431 0 l 326 0 m 340 -274 q 313 -272 326 -274 q 283 -268 299 -271 q 272 -257 272 -267 l 272 -206 q 283 -196 272 -194 q 304 -198 293 -197 q 322 -199 315 -199 q 366 -189 353 -199 q 379 -165 379 -179 l 379 -147 q 367 -119 379 -126 q 332 -111 356 -111 l 300 -111 q 290 -101 290 -111 q 291 -87 290 -94 q 293 -74 292 -79 l 325 31 q 338 39 328 39 l 404 39 q 411 24 415 39 l 386 -57 l 399 -57 q 453 -81 435 -57 q 472 -146 472 -106 l 472 -167 q 440 -248 472 -222 q 340 -274 407 -274 z "},"Ț":{"ha":743,"x_min":49,"x_max":694,"o":"m 326 0 q 313 14 313 0 l 313 803 l 63 803 q 49 817 49 803 l 49 896 q 63 910 49 910 l 681 910 q 694 896 694 910 l 694 817 q 681 803 694 803 l 431 803 l 431 14 q 417 0 431 0 l 326 0 m 333 -321 q 325 -308 324 -321 l 347 -215 q 316 -194 325 -208 q 307 -158 307 -181 l 307 -135 q 324 -93 307 -108 q 368 -78 340 -78 q 420 -93 404 -78 q 436 -135 436 -108 l 436 -160 q 433 -195 436 -178 q 425 -229 431 -212 l 397 -312 q 383 -321 394 -321 l 333 -321 z "},"U":{"ha":894,"x_min":111,"x_max":783,"o":"m 447 -17 q 199 68 288 -17 q 111 313 111 153 l 111 896 q 125 910 111 910 l 215 910 q 229 896 229 910 l 229 308 q 285 145 229 203 q 447 88 342 88 q 609 145 553 88 q 665 308 665 203 l 665 896 q 679 910 665 910 l 769 910 q 783 896 783 910 l 783 310 q 694 71 783 158 q 447 -17 604 -17 z "},"Ú":{"ha":894,"x_min":111,"x_max":783,"o":"m 447 -17 q 199 68 288 -17 q 111 313 111 153 l 111 896 q 125 910 111 910 l 215 910 q 229 896 229 910 l 229 308 q 285 145 229 203 q 447 88 342 88 q 609 145 553 88 q 665 308 665 203 l 665 896 q 679 910 665 910 l 769 910 q 783 896 783 910 l 783 310 q 694 71 783 158 q 447 -17 604 -17 m 382 986 q 374 990 375 986 q 375 1000 372 994 l 453 1142 q 467 1151 458 1151 l 568 1151 q 577 1147 575 1151 q 575 1135 579 1142 l 475 994 q 460 986 469 986 l 382 986 z "},"Û":{"ha":894,"x_min":111,"x_max":783,"o":"m 447 -17 q 199 68 288 -17 q 111 313 111 153 l 111 896 q 125 910 111 910 l 215 910 q 229 896 229 910 l 229 308 q 285 145 229 203 q 447 88 342 88 q 609 145 553 88 q 665 308 665 203 l 665 896 q 679 910 665 910 l 769 910 q 783 896 783 910 l 783 310 q 694 71 783 158 q 447 -17 604 -17 m 268 997 q 253 1006 253 990 l 253 1075 q 263 1089 253 1085 l 438 1167 q 457 1167 447 1172 l 632 1089 q 642 1075 642 1085 l 642 1006 q 626 997 642 990 l 447 1061 l 268 997 z "},"Ü":{"ha":894,"x_min":111,"x_max":783,"o":"m 447 -17 q 199 68 288 -17 q 111 313 111 153 l 111 896 q 125 910 111 910 l 215 910 q 229 896 229 910 l 229 308 q 285 145 229 203 q 447 88 342 88 q 609 145 553 88 q 665 308 665 203 l 665 896 q 679 910 665 910 l 769 910 q 783 896 783 910 l 783 310 q 694 71 783 158 q 447 -17 604 -17 m 331 988 q 275 1008 292 988 q 258 1058 258 1028 l 258 1072 q 275 1124 258 1104 q 331 1143 292 1143 q 386 1124 369 1143 q 403 1072 403 1104 l 403 1058 q 386 1008 403 1028 q 331 988 369 988 m 564 988 q 508 1008 525 988 q 492 1058 492 1028 l 492 1072 q 508 1124 492 1104 q 564 1143 525 1143 q 619 1124 603 1143 q 636 1072 636 1104 l 636 1058 q 619 1008 636 1028 q 564 988 603 988 z "},"Ù":{"ha":894,"x_min":111,"x_max":783,"o":"m 447 -17 q 199 68 288 -17 q 111 313 111 153 l 111 896 q 125 910 111 910 l 215 910 q 229 896 229 910 l 229 308 q 285 145 229 203 q 447 88 342 88 q 609 145 553 88 q 665 308 665 203 l 665 896 q 679 910 665 910 l 769 910 q 783 896 783 910 l 783 310 q 694 71 783 158 q 447 -17 604 -17 m 435 986 q 419 994 425 986 l 319 1135 q 317 1147 315 1142 q 326 1151 319 1151 l 428 1151 q 442 1142 438 1151 l 519 1000 q 521 990 522 994 q 513 986 519 986 l 435 986 z "},"Ű":{"ha":894,"x_min":111,"x_max":783,"o":"m 447 -17 q 199 68 288 -17 q 111 313 111 153 l 111 896 q 125 910 111 910 l 215 910 q 229 896 229 910 l 229 308 q 285 145 229 203 q 447 88 342 88 q 609 145 553 88 q 665 308 665 203 l 665 896 q 679 910 665 910 l 769 910 q 783 896 783 910 l 783 310 q 694 71 783 158 q 447 -17 604 -17 m 497 986 q 489 1001 482 986 l 549 1140 q 564 1151 553 1151 l 654 1151 q 663 1135 672 1151 l 588 996 q 571 986 582 986 l 497 986 m 300 986 q 292 1001 285 986 l 351 1140 q 367 1151 356 1151 l 457 1151 q 465 1135 475 1151 l 390 996 q 374 986 385 986 l 300 986 z "},"Ū":{"ha":894,"x_min":111,"x_max":783,"o":"m 447 -17 q 199 68 288 -17 q 111 313 111 153 l 111 896 q 125 910 111 910 l 215 910 q 229 896 229 910 l 229 308 q 285 145 229 203 q 447 88 342 88 q 609 145 553 88 q 665 308 665 203 l 665 896 q 679 910 665 910 l 769 910 q 783 896 783 910 l 783 310 q 694 71 783 158 q 447 -17 604 -17 m 297 996 q 283 1010 283 996 l 283 1082 q 297 1096 283 1096 l 596 1096 q 610 1082 610 1096 l 610 1010 q 596 996 610 996 l 297 996 z "},"Ų":{"ha":894,"x_min":111,"x_max":783,"o":"m 447 -17 q 199 68 288 -17 q 111 313 111 153 l 111 896 q 125 910 111 910 l 215 910 q 229 896 229 910 l 229 308 q 285 145 229 203 q 447 88 342 88 q 609 145 553 88 q 665 308 665 203 l 665 896 q 679 910 665 910 l 769 910 q 783 896 783 910 l 783 310 q 694 71 783 158 q 447 -17 604 -17 m 531 -274 q 426 -242 460 -274 q 393 -161 393 -211 l 393 -144 q 435 -40 393 -87 q 546 32 476 8 l 574 17 l 574 1 q 514 -51 535 -18 q 493 -121 493 -85 l 493 -135 q 550 -186 493 -186 q 569 -186 561 -186 q 585 -185 576 -186 q 597 -194 597 -183 l 597 -256 q 595 -265 597 -261 q 586 -269 593 -268 q 558 -272 572 -271 q 531 -274 543 -274 z "},"Ů":{"ha":894,"x_min":111,"x_max":783,"o":"m 447 -17 q 199 68 288 -17 q 111 313 111 153 l 111 896 q 125 910 111 910 l 215 910 q 229 896 229 910 l 229 308 q 285 145 229 203 q 447 88 342 88 q 609 145 553 88 q 665 308 665 203 l 665 896 q 679 910 665 910 l 769 910 q 783 896 783 910 l 783 310 q 694 71 783 158 q 447 -17 604 -17 m 447 929 q 335 964 378 929 q 293 1063 293 999 q 335 1162 293 1128 q 447 1196 376 1196 q 559 1162 517 1196 q 601 1063 601 1128 q 560 964 601 999 q 447 929 518 929 m 447 999 q 502 1017 486 999 q 518 1063 518 1035 q 502 1108 518 1090 q 447 1126 486 1126 q 392 1108 408 1126 q 376 1063 376 1090 q 392 1017 376 1035 q 447 999 408 999 z "},"V":{"ha":811,"x_min":18,"x_max":793,"o":"m 336 0 q 319 11 324 0 l 22 894 q 33 910 18 910 l 131 910 q 147 899 143 910 l 339 307 q 370 211 354 260 q 400 114 386 163 l 403 114 q 434 208 418 161 q 465 303 450 256 l 665 899 q 682 910 669 910 l 778 910 q 789 894 793 910 l 485 11 q 468 0 481 0 l 336 0 z "},"W":{"ha":1176,"x_min":25,"x_max":1151,"o":"m 299 0 q 283 11 286 0 l 29 894 q 42 910 25 910 l 133 910 q 149 899 146 910 l 310 325 q 328 260 319 293 q 345 195 336 228 q 363 129 354 163 l 364 129 q 394 225 379 178 q 422 319 408 272 l 539 707 l 489 881 q 491 892 488 888 q 501 896 494 896 l 596 896 q 611 883 608 896 l 768 307 q 792 218 781 263 q 817 129 804 174 l 818 129 q 835 193 826 161 q 851 257 843 225 q 868 321 860 289 l 1024 899 q 1039 910 1026 910 l 1135 910 q 1147 894 1151 910 l 903 11 q 888 0 900 0 l 756 0 q 740 11 743 0 l 646 338 q 619 429 632 383 q 594 521 607 475 l 593 521 q 566 431 579 476 q 539 342 553 386 l 440 11 q 425 0 436 0 l 299 0 z "},"Ẃ":{"ha":1176,"x_min":25,"x_max":1151,"o":"m 299 0 q 283 11 286 0 l 29 894 q 42 910 25 910 l 133 910 q 149 899 146 910 l 310 325 q 328 260 319 293 q 345 195 336 228 q 363 129 354 163 l 364 129 q 394 225 379 178 q 422 319 408 272 l 539 707 l 489 881 q 491 892 488 888 q 501 896 494 896 l 596 896 q 611 883 608 896 l 768 307 q 792 218 781 263 q 817 129 804 174 l 818 129 q 835 193 826 161 q 851 257 843 225 q 868 321 860 289 l 1024 899 q 1039 910 1026 910 l 1135 910 q 1147 894 1151 910 l 903 11 q 888 0 900 0 l 756 0 q 740 11 743 0 l 646 338 q 619 429 632 383 q 594 521 607 475 l 593 521 q 566 431 579 476 q 539 342 553 386 l 440 11 q 425 0 436 0 l 299 0 m 524 986 q 515 990 517 986 q 517 1000 514 994 l 594 1142 q 608 1151 600 1151 l 710 1151 q 719 1147 717 1151 q 717 1135 721 1142 l 617 994 q 601 986 611 986 l 524 986 z "},"Ŵ":{"ha":1176,"x_min":25,"x_max":1151,"o":"m 299 0 q 283 11 286 0 l 29 894 q 42 910 25 910 l 133 910 q 149 899 146 910 l 310 325 q 328 260 319 293 q 345 195 336 228 q 363 129 354 163 l 364 129 q 394 225 379 178 q 422 319 408 272 l 539 707 l 489 881 q 491 892 488 888 q 501 896 494 896 l 596 896 q 611 883 608 896 l 768 307 q 792 218 781 263 q 817 129 804 174 l 818 129 q 835 193 826 161 q 851 257 843 225 q 868 321 860 289 l 1024 899 q 1039 910 1026 910 l 1135 910 q 1147 894 1151 910 l 903 11 q 888 0 900 0 l 756 0 q 740 11 743 0 l 646 338 q 619 429 632 383 q 594 521 607 475 l 593 521 q 566 431 579 476 q 539 342 553 386 l 440 11 q 425 0 436 0 l 299 0 m 410 997 q 394 1006 394 990 l 394 1075 q 404 1089 394 1085 l 579 1167 q 599 1167 589 1172 l 774 1089 q 783 1075 783 1085 l 783 1006 q 768 997 783 990 l 589 1061 l 410 997 z "},"Ẅ":{"ha":1176,"x_min":25,"x_max":1151,"o":"m 299 0 q 283 11 286 0 l 29 894 q 42 910 25 910 l 133 910 q 149 899 146 910 l 310 325 q 328 260 319 293 q 345 195 336 228 q 363 129 354 163 l 364 129 q 394 225 379 178 q 422 319 408 272 l 539 707 l 489 881 q 491 892 488 888 q 501 896 494 896 l 596 896 q 611 883 608 896 l 768 307 q 792 218 781 263 q 817 129 804 174 l 818 129 q 835 193 826 161 q 851 257 843 225 q 868 321 860 289 l 1024 899 q 1039 910 1026 910 l 1135 910 q 1147 894 1151 910 l 903 11 q 888 0 900 0 l 756 0 q 740 11 743 0 l 646 338 q 619 429 632 383 q 594 521 607 475 l 593 521 q 566 431 579 476 q 539 342 553 386 l 440 11 q 425 0 436 0 l 299 0 m 472 988 q 417 1008 433 988 q 400 1058 400 1028 l 400 1072 q 417 1124 400 1104 q 472 1143 433 1143 q 528 1124 511 1143 q 544 1072 544 1104 l 544 1058 q 528 1008 544 1028 q 472 988 511 988 m 706 988 q 650 1008 667 988 q 633 1058 633 1028 l 633 1072 q 650 1124 633 1104 q 706 1143 667 1143 q 761 1124 744 1143 q 778 1072 778 1104 l 778 1058 q 761 1008 778 1028 q 706 988 744 988 z "},"Ẁ":{"ha":1176,"x_min":25,"x_max":1151,"o":"m 299 0 q 283 11 286 0 l 29 894 q 42 910 25 910 l 133 910 q 149 899 146 910 l 310 325 q 328 260 319 293 q 345 195 336 228 q 363 129 354 163 l 364 129 q 394 225 379 178 q 422 319 408 272 l 539 707 l 489 881 q 491 892 488 888 q 501 896 494 896 l 596 896 q 611 883 608 896 l 768 307 q 792 218 781 263 q 817 129 804 174 l 818 129 q 835 193 826 161 q 851 257 843 225 q 868 321 860 289 l 1024 899 q 1039 910 1026 910 l 1135 910 q 1147 894 1151 910 l 903 11 q 888 0 900 0 l 756 0 q 740 11 743 0 l 646 338 q 619 429 632 383 q 594 521 607 475 l 593 521 q 566 431 579 476 q 539 342 553 386 l 440 11 q 425 0 436 0 l 299 0 m 576 986 q 561 994 567 986 l 461 1135 q 459 1147 457 1142 q 468 1151 461 1151 l 569 1151 q 583 1142 579 1151 l 661 1000 q 663 990 664 994 q 654 986 661 986 l 576 986 z "},"X":{"ha":765,"x_min":6,"x_max":760,"o":"m 18 0 q 8 5 10 0 q 10 17 6 10 l 307 469 l 29 893 q 27 905 25 900 q 38 910 29 910 l 149 910 q 164 901 158 910 l 321 661 q 353 609 336 636 q 386 557 371 582 l 388 557 q 422 613 404 585 q 457 667 439 640 l 608 901 q 625 910 615 910 l 731 910 q 741 905 739 910 q 739 893 743 900 l 463 467 l 756 17 q 758 5 760 10 q 747 0 756 0 l 636 0 q 619 8 626 0 l 454 263 q 417 320 436 290 q 382 378 399 350 l 381 378 q 346 322 364 351 q 310 265 328 293 l 144 10 q 128 0 138 0 l 18 0 z "},"Y":{"ha":743,"x_min":13,"x_max":731,"o":"m 326 0 q 313 14 313 0 l 313 313 l 15 893 q 15 905 13 900 q 25 910 18 910 l 131 910 q 147 900 143 910 l 300 586 q 336 512 318 550 q 372 438 354 474 l 374 438 q 411 514 393 476 q 447 590 429 551 l 599 900 q 615 910 603 910 l 718 910 q 728 905 725 910 q 728 893 731 900 l 431 313 l 431 14 q 417 0 431 0 l 326 0 z "},"Ý":{"ha":743,"x_min":13,"x_max":731,"o":"m 326 0 q 313 14 313 0 l 313 313 l 15 893 q 15 905 13 900 q 25 910 18 910 l 131 910 q 147 900 143 910 l 300 586 q 336 512 318 550 q 372 438 354 474 l 374 438 q 411 514 393 476 q 447 590 429 551 l 599 900 q 615 910 603 910 l 718 910 q 728 905 725 910 q 728 893 731 900 l 431 313 l 431 14 q 417 0 431 0 l 326 0 m 307 986 q 299 990 300 986 q 300 1000 297 994 l 378 1142 q 392 1151 383 1151 l 493 1151 q 502 1147 500 1151 q 500 1135 504 1142 l 400 994 q 385 986 394 986 l 307 986 z "},"Ŷ":{"ha":743,"x_min":13,"x_max":731,"o":"m 326 0 q 313 14 313 0 l 313 313 l 15 893 q 15 905 13 900 q 25 910 18 910 l 131 910 q 147 900 143 910 l 300 586 q 336 512 318 550 q 372 438 354 474 l 374 438 q 411 514 393 476 q 447 590 429 551 l 599 900 q 615 910 603 910 l 718 910 q 728 905 725 910 q 728 893 731 900 l 431 313 l 431 14 q 417 0 431 0 l 326 0 m 193 997 q 178 1006 178 990 l 178 1075 q 188 1089 178 1085 l 363 1167 q 382 1167 372 1172 l 557 1089 q 567 1075 567 1085 l 567 1006 q 551 997 567 990 l 372 1061 l 193 997 z "},"Ÿ":{"ha":743,"x_min":13,"x_max":731,"o":"m 326 0 q 313 14 313 0 l 313 313 l 15 893 q 15 905 13 900 q 25 910 18 910 l 131 910 q 147 900 143 910 l 300 586 q 336 512 318 550 q 372 438 354 474 l 374 438 q 411 514 393 476 q 447 590 429 551 l 599 900 q 615 910 603 910 l 718 910 q 728 905 725 910 q 728 893 731 900 l 431 313 l 431 14 q 417 0 431 0 l 326 0 m 256 988 q 200 1008 217 988 q 183 1058 183 1028 l 183 1072 q 200 1124 183 1104 q 256 1143 217 1143 q 311 1124 294 1143 q 328 1072 328 1104 l 328 1058 q 311 1008 328 1028 q 256 988 294 988 m 489 988 q 433 1008 450 988 q 417 1058 417 1028 l 417 1072 q 433 1124 417 1104 q 489 1143 450 1143 q 544 1124 528 1143 q 561 1072 561 1104 l 561 1058 q 544 1008 561 1028 q 489 988 528 988 z "},"Ỳ":{"ha":743,"x_min":13,"x_max":731,"o":"m 326 0 q 313 14 313 0 l 313 313 l 15 893 q 15 905 13 900 q 25 910 18 910 l 131 910 q 147 900 143 910 l 300 586 q 336 512 318 550 q 372 438 354 474 l 374 438 q 411 514 393 476 q 447 590 429 551 l 599 900 q 615 910 603 910 l 718 910 q 728 905 725 910 q 728 893 731 900 l 431 313 l 431 14 q 417 0 431 0 l 326 0 m 360 986 q 344 994 350 986 l 244 1135 q 242 1147 240 1142 q 251 1151 244 1151 l 353 1151 q 367 1142 363 1151 l 444 1000 q 446 990 447 994 q 438 986 444 986 l 360 986 z "},"Z":{"ha":757,"x_min":28,"x_max":725,"o":"m 42 0 q 28 13 28 0 l 28 15 q 33 33 28 22 l 447 665 q 492 734 469 700 q 538 803 514 768 l 538 804 q 458 803 499 803 q 378 803 418 803 l 88 803 q 74 817 74 803 l 74 896 q 88 910 74 910 l 711 910 q 725 897 725 910 l 725 894 q 719 876 725 888 l 311 258 q 262 182 286 219 q 211 107 238 144 l 211 106 q 303 107 257 107 q 394 107 349 107 l 679 107 q 693 93 693 107 l 693 14 q 679 0 693 0 l 42 0 z "},"Ź":{"ha":757,"x_min":28,"x_max":725,"o":"m 42 0 q 28 13 28 0 l 28 15 q 33 33 28 22 l 447 665 q 492 734 469 700 q 538 803 514 768 l 538 804 q 458 803 499 803 q 378 803 418 803 l 88 803 q 74 817 74 803 l 74 896 q 88 910 74 910 l 711 910 q 725 897 725 910 l 725 894 q 719 876 725 888 l 311 258 q 262 182 286 219 q 211 107 238 144 l 211 106 q 303 107 257 107 q 394 107 349 107 l 679 107 q 693 93 693 107 l 693 14 q 679 0 693 0 l 42 0 m 307 986 q 299 990 300 986 q 300 1000 297 994 l 378 1142 q 392 1151 383 1151 l 493 1151 q 502 1147 500 1151 q 500 1135 504 1142 l 400 994 q 385 986 394 986 l 307 986 z "},"Ž":{"ha":757,"x_min":28,"x_max":725,"o":"m 42 0 q 28 13 28 0 l 28 15 q 33 33 28 22 l 447 665 q 492 734 469 700 q 538 803 514 768 l 538 804 q 458 803 499 803 q 378 803 418 803 l 88 803 q 74 817 74 803 l 74 896 q 88 910 74 910 l 711 910 q 725 897 725 910 l 725 894 q 719 876 725 888 l 311 258 q 262 182 286 219 q 211 107 238 144 l 211 106 q 303 107 257 107 q 394 107 349 107 l 679 107 q 693 93 693 107 l 693 14 q 679 0 693 0 l 42 0 m 363 997 l 188 1075 q 178 1089 178 1079 l 178 1158 q 193 1167 178 1174 l 372 1103 l 551 1167 q 567 1158 567 1174 l 567 1089 q 557 1075 567 1079 l 382 997 q 363 997 372 993 z "},"Ż":{"ha":757,"x_min":28,"x_max":725,"o":"m 42 0 q 28 13 28 0 l 28 15 q 33 33 28 22 l 447 665 q 492 734 469 700 q 538 803 514 768 l 538 804 q 458 803 499 803 q 378 803 418 803 l 88 803 q 74 817 74 803 l 74 896 q 88 910 74 910 l 711 910 q 725 897 725 910 l 725 894 q 719 876 725 888 l 311 258 q 262 182 286 219 q 211 107 238 144 l 211 106 q 303 107 257 107 q 394 107 349 107 l 679 107 q 693 93 693 107 l 693 14 q 679 0 693 0 l 42 0 m 372 1007 q 314 1028 332 1007 q 296 1083 296 1050 l 296 1097 q 314 1152 296 1131 q 372 1174 332 1174 q 431 1152 413 1174 q 449 1097 449 1131 l 449 1083 q 431 1028 449 1050 q 372 1007 413 1007 z "},"a":{"ha":686,"x_min":67,"x_max":594,"o":"m 497 0 q 486 6 489 0 q 481 19 483 11 q 474 67 479 31 q 468 133 469 104 l 464 186 l 464 463 q 436 561 464 532 q 339 590 408 590 q 214 504 214 590 q 201 490 214 490 l 110 490 q 94 517 96 490 q 156 645 88 596 q 343 694 225 694 q 523 638 464 694 q 582 465 582 581 l 582 168 q 585 81 582 119 q 592 15 588 43 q 578 0 594 0 l 497 0 m 232 -17 q 109 32 151 -17 q 67 174 67 81 q 95 292 67 246 q 187 363 124 338 q 356 396 250 388 l 486 407 l 486 317 l 353 306 q 221 271 257 297 q 185 182 185 244 q 204 111 185 135 q 263 88 224 88 q 358 119 308 88 q 490 235 408 150 l 490 131 q 399 45 442 78 q 317 -2 357 13 q 232 -17 276 -17 z "},"á":{"ha":686,"x_min":67,"x_max":594,"o":"m 497 0 q 486 6 489 0 q 481 19 483 11 q 474 67 479 31 q 468 133 469 104 l 464 186 l 464 463 q 436 561 464 532 q 339 590 408 590 q 214 504 214 590 q 201 490 214 490 l 110 490 q 94 517 96 490 q 156 645 88 596 q 343 694 225 694 q 523 638 464 694 q 582 465 582 581 l 582 168 q 585 81 582 119 q 592 15 588 43 q 578 0 594 0 l 497 0 m 232 -17 q 109 32 151 -17 q 67 174 67 81 q 95 292 67 246 q 187 363 124 338 q 356 396 250 388 l 486 407 l 486 317 l 353 306 q 221 271 257 297 q 185 182 185 244 q 204 111 185 135 q 263 88 224 88 q 358 119 308 88 q 490 235 408 150 l 490 131 q 399 45 442 78 q 317 -2 357 13 q 232 -17 276 -17 m 267 772 q 260 786 253 772 l 351 956 q 368 965 357 965 l 465 965 q 474 960 472 965 q 472 950 476 956 l 357 781 q 342 772 351 772 l 267 772 z "},"ă":{"ha":686,"x_min":67,"x_max":594,"o":"m 497 0 q 486 6 489 0 q 481 19 483 11 q 474 67 479 31 q 468 133 469 104 l 464 186 l 464 463 q 436 561 464 532 q 339 590 408 590 q 214 504 214 590 q 201 490 214 490 l 110 490 q 94 517 96 490 q 156 645 88 596 q 343 694 225 694 q 523 638 464 694 q 582 465 582 581 l 582 168 q 585 81 582 119 q 592 15 588 43 q 578 0 594 0 l 497 0 m 232 -17 q 109 32 151 -17 q 67 174 67 81 q 95 292 67 246 q 187 363 124 338 q 356 396 250 388 l 486 407 l 486 317 l 353 306 q 221 271 257 297 q 185 182 185 244 q 204 111 185 135 q 263 88 224 88 q 358 119 308 88 q 490 235 408 150 l 490 131 q 399 45 442 78 q 317 -2 357 13 q 232 -17 276 -17 m 338 772 q 256 785 290 772 q 201 815 222 799 q 171 840 181 831 q 165 857 165 846 l 165 932 q 169 944 165 940 q 181 940 174 947 q 241 897 200 922 q 338 871 282 871 q 435 897 394 871 q 494 940 476 922 q 506 944 501 947 q 510 932 510 940 l 510 857 q 508 847 510 851 q 504 840 507 843 q 474 815 494 831 q 419 785 453 799 q 338 772 386 772 z "},"â":{"ha":686,"x_min":67,"x_max":594,"o":"m 497 0 q 486 6 489 0 q 481 19 483 11 q 474 67 479 31 q 468 133 469 104 l 464 186 l 464 463 q 436 561 464 532 q 339 590 408 590 q 214 504 214 590 q 201 490 214 490 l 110 490 q 94 517 96 490 q 156 645 88 596 q 343 694 225 694 q 523 638 464 694 q 582 465 582 581 l 582 168 q 585 81 582 119 q 592 15 588 43 q 578 0 594 0 l 497 0 m 232 -17 q 109 32 151 -17 q 67 174 67 81 q 95 292 67 246 q 187 363 124 338 q 356 396 250 388 l 486 407 l 486 317 l 353 306 q 221 271 257 297 q 185 182 185 244 q 204 111 185 135 q 263 88 224 88 q 358 119 308 88 q 490 235 408 150 l 490 131 q 399 45 442 78 q 317 -2 357 13 q 232 -17 276 -17 m 172 767 q 157 772 157 758 l 157 843 q 167 861 157 856 l 328 953 q 347 953 338 960 l 508 861 q 518 843 518 856 l 518 772 q 503 767 518 758 l 338 849 l 172 767 z "},"ä":{"ha":686,"x_min":67,"x_max":594,"o":"m 497 0 q 486 6 489 0 q 481 19 483 11 q 474 67 479 31 q 468 133 469 104 l 464 186 l 464 463 q 436 561 464 532 q 339 590 408 590 q 214 504 214 590 q 201 490 214 490 l 110 490 q 94 517 96 490 q 156 645 88 596 q 343 694 225 694 q 523 638 464 694 q 582 465 582 581 l 582 168 q 585 81 582 119 q 592 15 588 43 q 578 0 594 0 l 497 0 m 232 -17 q 109 32 151 -17 q 67 174 67 81 q 95 292 67 246 q 187 363 124 338 q 356 396 250 388 l 486 407 l 486 317 l 353 306 q 221 271 257 297 q 185 182 185 244 q 204 111 185 135 q 263 88 224 88 q 358 119 308 88 q 490 235 408 150 l 490 131 q 399 45 442 78 q 317 -2 357 13 q 232 -17 276 -17 m 219 792 q 164 812 181 792 q 147 863 147 832 l 147 876 q 164 928 147 908 q 219 947 181 947 q 275 928 258 947 q 292 876 292 908 l 292 863 q 275 812 292 832 q 219 792 258 792 m 454 792 q 399 812 415 792 q 382 863 382 832 l 382 876 q 399 928 382 908 q 454 947 415 947 q 510 928 493 947 q 526 876 526 908 l 526 863 q 510 812 526 832 q 454 792 493 792 z "},"à":{"ha":686,"x_min":67,"x_max":594,"o":"m 497 0 q 486 6 489 0 q 481 19 483 11 q 474 67 479 31 q 468 133 469 104 l 464 186 l 464 463 q 436 561 464 532 q 339 590 408 590 q 214 504 214 590 q 201 490 214 490 l 110 490 q 94 517 96 490 q 156 645 88 596 q 343 694 225 694 q 523 638 464 694 q 582 465 582 581 l 582 168 q 585 81 582 119 q 592 15 588 43 q 578 0 594 0 l 497 0 m 232 -17 q 109 32 151 -17 q 67 174 67 81 q 95 292 67 246 q 187 363 124 338 q 356 396 250 388 l 486 407 l 486 317 l 353 306 q 221 271 257 297 q 185 182 185 244 q 204 111 185 135 q 263 88 224 88 q 358 119 308 88 q 490 235 408 150 l 490 131 q 399 45 442 78 q 317 -2 357 13 q 232 -17 276 -17 m 332 772 q 317 781 322 772 l 201 950 q 199 960 197 956 q 208 965 201 965 l 306 965 q 322 956 318 965 l 414 786 q 407 772 421 772 l 332 772 z "},"ā":{"ha":686,"x_min":67,"x_max":594,"o":"m 497 0 q 486 6 489 0 q 481 19 483 11 q 474 67 479 31 q 468 133 469 104 l 464 186 l 464 463 q 436 561 464 532 q 339 590 408 590 q 214 504 214 590 q 201 490 214 490 l 110 490 q 94 517 96 490 q 156 645 88 596 q 343 694 225 694 q 523 638 464 694 q 582 465 582 581 l 582 168 q 585 81 582 119 q 592 15 588 43 q 578 0 594 0 l 497 0 m 232 -17 q 109 32 151 -17 q 67 174 67 81 q 95 292 67 246 q 187 363 124 338 q 356 396 250 388 l 486 407 l 486 317 l 353 306 q 221 271 257 297 q 185 182 185 244 q 204 111 185 135 q 263 88 224 88 q 358 119 308 88 q 490 235 408 150 l 490 131 q 399 45 442 78 q 317 -2 357 13 q 232 -17 276 -17 m 201 792 q 188 806 188 792 l 188 878 q 201 892 188 892 l 472 892 q 486 878 486 892 l 486 806 q 472 792 486 792 l 201 792 z "},"ą":{"ha":686,"x_min":67,"x_max":610,"o":"m 497 0 q 486 6 489 0 q 481 19 483 11 q 474 67 479 31 q 468 133 469 104 l 464 186 l 464 463 q 436 561 464 532 q 339 590 408 590 q 214 504 214 590 q 201 490 214 490 l 110 490 q 94 517 96 490 q 156 645 88 596 q 343 694 225 694 q 523 638 464 694 q 582 465 582 581 l 582 168 q 585 81 582 119 q 592 15 588 43 q 578 0 594 0 l 497 0 m 232 -17 q 109 32 151 -17 q 67 174 67 81 q 95 292 67 246 q 187 363 124 338 q 356 396 250 388 l 486 407 l 486 317 l 353 306 q 221 271 257 297 q 185 182 185 244 q 204 111 185 135 q 263 88 224 88 q 358 119 308 88 q 490 235 408 150 l 490 131 q 399 45 442 78 q 317 -2 357 13 q 232 -17 276 -17 m 543 -274 q 439 -242 472 -274 q 406 -161 406 -211 l 406 -144 q 447 -40 406 -87 q 558 32 489 8 l 586 17 l 586 1 q 526 -51 547 -18 q 506 -121 506 -85 l 506 -135 q 563 -186 506 -186 q 581 -186 574 -186 q 597 -185 589 -186 q 610 -194 610 -183 l 610 -256 q 608 -265 610 -261 q 599 -269 606 -268 q 570 -272 585 -271 q 543 -274 556 -274 z "},"å":{"ha":686,"x_min":67,"x_max":594,"o":"m 497 0 q 486 6 489 0 q 481 19 483 11 q 474 67 479 31 q 468 133 469 104 l 464 186 l 464 463 q 436 561 464 532 q 339 590 408 590 q 214 504 214 590 q 201 490 214 490 l 110 490 q 94 517 96 490 q 156 645 88 596 q 343 694 225 694 q 523 638 464 694 q 582 465 582 581 l 582 168 q 585 81 582 119 q 592 15 588 43 q 578 0 594 0 l 497 0 m 232 -17 q 109 32 151 -17 q 67 174 67 81 q 95 292 67 246 q 187 363 124 338 q 356 396 250 388 l 486 407 l 486 317 l 353 306 q 221 271 257 297 q 185 182 185 244 q 204 111 185 135 q 263 88 224 88 q 358 119 308 88 q 490 235 408 150 l 490 131 q 399 45 442 78 q 317 -2 357 13 q 232 -17 276 -17 m 338 765 q 226 800 268 765 q 183 899 183 835 q 225 998 183 964 q 338 1032 267 1032 q 449 998 407 1032 q 492 899 492 964 q 450 800 492 835 q 338 765 408 765 m 338 835 q 392 853 376 835 q 408 899 408 871 q 392 944 408 926 q 338 963 376 963 q 283 944 299 963 q 267 899 267 926 q 283 853 267 871 q 338 835 299 835 z "},"ã":{"ha":686,"x_min":67,"x_max":594,"o":"m 497 0 q 486 6 489 0 q 481 19 483 11 q 474 67 479 31 q 468 133 469 104 l 464 186 l 464 463 q 436 561 464 532 q 339 590 408 590 q 214 504 214 590 q 201 490 214 490 l 110 490 q 94 517 96 490 q 156 645 88 596 q 343 694 225 694 q 523 638 464 694 q 582 465 582 581 l 582 168 q 585 81 582 119 q 592 15 588 43 q 578 0 594 0 l 497 0 m 232 -17 q 109 32 151 -17 q 67 174 67 81 q 95 292 67 246 q 187 363 124 338 q 356 396 250 388 l 486 407 l 486 317 l 353 306 q 221 271 257 297 q 185 182 185 244 q 204 111 185 135 q 263 88 224 88 q 358 119 308 88 q 490 235 408 150 l 490 131 q 399 45 442 78 q 317 -2 357 13 q 232 -17 276 -17 m 407 788 q 357 797 379 788 q 313 814 335 806 q 265 822 292 822 q 215 813 242 822 q 174 796 189 803 q 157 804 157 789 l 157 869 q 165 888 157 882 q 205 910 178 897 q 268 922 232 922 q 326 914 303 922 q 367 897 349 906 q 410 888 386 888 q 460 897 433 888 q 501 914 486 907 q 518 906 518 921 l 518 840 q 510 822 518 829 q 470 800 497 813 q 407 788 443 788 z "},"æ":{"ha":1081,"x_min":67,"x_max":997,"o":"m 228 -17 q 108 32 150 -17 q 67 174 67 81 q 95 294 67 247 q 188 366 124 340 q 356 401 251 392 l 464 411 l 464 463 q 436 561 464 532 q 339 590 408 590 q 245 569 276 590 q 214 504 214 547 q 201 490 214 490 l 110 490 q 94 517 96 490 q 119 609 90 569 q 201 672 147 649 q 328 694 256 694 q 451 671 400 694 q 529 601 501 647 q 619 670 563 646 q 746 694 676 694 q 931 625 865 694 q 997 432 997 556 l 997 329 q 983 315 997 315 l 576 315 l 576 265 q 612 128 576 169 q 729 88 647 88 q 829 108 793 88 q 865 164 865 129 q 881 188 865 188 l 971 188 q 985 156 985 188 q 913 31 985 78 q 718 -17 840 -17 q 569 17 626 -17 q 486 119 511 51 q 355 17 418 50 q 228 -17 292 -17 m 263 88 q 349 115 304 88 q 467 211 394 143 q 465 244 465 226 q 464 279 464 263 l 464 315 l 353 306 q 221 271 257 297 q 185 182 185 244 q 204 111 185 135 q 263 88 224 88 m 576 411 l 879 411 l 879 414 q 844 547 879 504 q 735 590 810 590 q 617 546 657 590 q 576 413 576 501 l 576 411 z "},"b":{"ha":744,"x_min":104,"x_max":656,"o":"m 372 -17 q 288 -11 328 -17 q 205 1 249 -6 q 104 11 161 8 l 104 935 q 118 949 104 949 l 208 949 q 222 935 222 949 l 222 101 q 291 92 254 96 q 356 88 328 88 q 494 135 450 88 q 538 276 538 182 l 538 429 q 509 551 538 513 q 424 590 481 590 q 325 562 375 590 q 196 463 275 533 l 201 578 q 326 667 267 639 q 449 694 385 694 q 603 631 550 694 q 656 436 656 567 l 656 265 q 585 55 656 126 q 372 -17 515 -17 z "},"c":{"ha":718,"x_min":86,"x_max":635,"o":"m 369 -17 q 158 53 231 -17 q 86 253 86 122 l 86 425 q 160 625 86 556 q 372 694 233 694 q 513 669 454 694 q 603 601 571 644 q 635 497 635 557 q 621 465 635 465 l 529 465 q 517 488 517 465 q 478 563 517 536 q 372 590 439 590 q 246 547 288 590 q 204 414 204 504 l 204 264 q 246 131 204 175 q 371 88 288 88 q 476 117 438 88 q 515 189 515 146 q 528 211 515 211 l 619 211 q 633 199 633 211 q 565 42 633 100 q 369 -17 497 -17 z "},"ć":{"ha":718,"x_min":86,"x_max":635,"o":"m 369 -17 q 158 53 231 -17 q 86 253 86 122 l 86 425 q 160 625 86 556 q 372 694 233 694 q 513 669 454 694 q 603 601 571 644 q 635 497 635 557 q 621 465 635 465 l 529 465 q 517 488 517 465 q 478 563 517 536 q 372 590 439 590 q 246 547 288 590 q 204 414 204 504 l 204 264 q 246 131 204 175 q 371 88 288 88 q 476 117 438 88 q 515 189 515 146 q 528 211 515 211 l 619 211 q 633 199 633 211 q 565 42 633 100 q 369 -17 497 -17 m 289 772 q 282 786 275 772 l 374 956 q 390 965 379 965 l 488 965 q 497 960 494 965 q 494 950 499 956 l 379 781 q 364 772 374 772 l 289 772 z "},"č":{"ha":718,"x_min":86,"x_max":635,"o":"m 369 -17 q 158 53 231 -17 q 86 253 86 122 l 86 425 q 160 625 86 556 q 372 694 233 694 q 513 669 454 694 q 603 601 571 644 q 635 497 635 557 q 621 465 635 465 l 529 465 q 517 488 517 465 q 478 563 517 536 q 372 590 439 590 q 246 547 288 590 q 204 414 204 504 l 204 264 q 246 131 204 175 q 371 88 288 88 q 476 117 438 88 q 515 189 515 146 q 528 211 515 211 l 619 211 q 633 199 633 211 q 565 42 633 100 q 369 -17 497 -17 m 350 767 l 189 858 q 179 876 179 864 l 179 947 q 194 953 179 961 l 360 871 l 525 953 q 540 947 540 961 l 540 876 q 531 858 540 864 l 369 767 q 350 767 360 760 z "},"ç":{"ha":718,"x_min":86,"x_max":635,"o":"m 369 -17 q 158 53 231 -17 q 86 253 86 122 l 86 425 q 160 625 86 556 q 372 694 233 694 q 513 669 454 694 q 603 601 571 644 q 635 497 635 557 q 621 465 635 465 l 529 465 q 517 488 517 465 q 478 563 517 536 q 372 590 439 590 q 246 547 288 590 q 204 414 204 504 l 204 264 q 246 131 204 175 q 371 88 288 88 q 476 117 438 88 q 515 189 515 146 q 528 211 515 211 l 619 211 q 633 199 633 211 q 565 42 633 100 q 369 -17 497 -17 m 344 -274 q 317 -272 331 -274 q 288 -268 303 -271 q 276 -257 276 -267 l 276 -206 q 288 -196 276 -194 q 308 -198 297 -197 q 326 -199 319 -199 q 370 -189 357 -199 q 383 -165 383 -179 l 383 -147 q 372 -119 383 -126 q 336 -111 360 -111 l 304 -111 q 294 -101 294 -111 q 295 -87 294 -94 q 297 -74 296 -79 l 329 31 q 342 39 332 39 l 408 39 q 415 24 419 39 l 390 -57 l 403 -57 q 458 -81 439 -57 q 476 -146 476 -106 l 476 -167 q 444 -248 476 -222 q 344 -274 411 -274 z "},"ċ":{"ha":718,"x_min":86,"x_max":635,"o":"m 369 -17 q 158 53 231 -17 q 86 253 86 122 l 86 425 q 160 625 86 556 q 372 694 233 694 q 513 669 454 694 q 603 601 571 644 q 635 497 635 557 q 621 465 635 465 l 529 465 q 517 488 517 465 q 478 563 517 536 q 372 590 439 590 q 246 547 288 590 q 204 414 204 504 l 204 264 q 246 131 204 175 q 371 88 288 88 q 476 117 438 88 q 515 189 515 146 q 528 211 515 211 l 619 211 q 633 199 633 211 q 565 42 633 100 q 369 -17 497 -17 m 360 792 q 301 813 319 792 q 283 868 283 835 l 283 882 q 301 937 283 915 q 360 958 319 958 q 418 937 400 958 q 436 882 436 915 l 436 868 q 418 813 436 835 q 360 792 400 792 z "},"d":{"ha":754,"x_min":89,"x_max":663,"o":"m 290 -17 q 141 49 193 -17 q 89 242 89 114 l 89 415 q 156 621 89 547 q 340 694 222 694 q 454 680 394 694 q 544 643 514 665 l 551 542 q 454 578 507 565 q 361 590 401 590 q 245 543 283 590 q 207 401 207 496 l 207 235 q 235 124 207 161 q 321 88 264 88 q 389 101 356 88 q 463 145 422 114 q 557 231 503 176 l 554 122 q 465 44 507 75 q 380 -2 422 13 q 290 -17 338 -17 m 564 0 q 547 15 549 0 q 540 68 544 36 q 538 121 536 100 l 531 183 l 531 935 q 544 949 531 949 l 635 949 q 649 935 649 949 l 649 157 q 650 110 649 138 q 653 58 651 83 q 658 19 656 33 q 644 0 663 0 l 564 0 z "},"ð":{"ha":739,"x_min":86,"x_max":653,"o":"m 369 -17 q 158 47 231 -17 q 86 243 86 111 l 86 389 q 145 582 86 517 q 303 647 204 647 q 439 619 378 647 q 544 531 500 590 l 544 411 q 447 508 506 474 q 326 542 388 542 q 236 501 268 542 q 204 372 204 460 l 204 254 q 244 122 204 161 q 369 83 285 83 q 497 133 456 83 q 538 274 538 182 l 538 425 q 527 588 546 513 q 467 721 508 663 q 369 819 426 779 q 242 876 311 860 q 222 886 225 881 q 224 900 218 892 l 261 954 q 273 964 267 963 q 290 963 279 965 q 481 874 400 943 q 608 706 563 806 q 653 493 653 607 l 653 271 q 581 58 653 132 q 369 -17 508 -17 m 268 715 q 250 725 257 710 l 225 778 q 233 794 221 789 l 603 961 q 621 951 614 967 l 644 899 q 636 882 649 888 l 268 715 z "},"ď":{"ha":754,"x_min":89,"x_max":840,"o":"m 290 -17 q 141 49 193 -17 q 89 242 89 114 l 89 415 q 156 621 89 547 q 340 694 222 694 q 454 680 394 694 q 544 643 514 665 l 551 542 q 454 578 507 565 q 361 590 401 590 q 245 543 283 590 q 207 401 207 496 l 207 235 q 235 124 207 161 q 321 88 264 88 q 389 101 356 88 q 463 145 422 114 q 557 231 503 176 l 554 122 q 465 44 507 75 q 380 -2 422 13 q 290 -17 338 -17 m 564 0 q 547 15 549 0 q 540 68 544 36 q 538 121 536 100 l 531 183 l 531 935 q 544 949 531 949 l 635 949 q 649 935 649 949 l 649 157 q 650 110 649 138 q 653 58 651 83 q 658 19 656 33 q 644 0 663 0 l 564 0 m 744 733 q 732 749 729 733 l 751 828 q 720 847 729 835 q 711 881 711 858 l 711 915 q 728 951 711 938 q 772 965 744 965 q 824 951 808 965 q 840 915 840 938 l 840 879 q 838 846 840 861 q 829 814 836 831 l 804 744 q 788 733 800 733 l 744 733 z "},"đ":{"ha":753,"x_min":89,"x_max":761,"o":"m 385 768 q 371 782 371 768 l 371 851 q 385 865 371 865 l 747 865 q 761 851 761 865 l 761 782 q 747 768 761 768 l 649 768 l 385 768 m 290 -17 q 141 49 193 -17 q 89 242 89 114 l 89 415 q 156 621 89 547 q 340 694 222 694 q 454 680 394 694 q 544 643 514 665 l 551 542 q 454 578 507 565 q 361 590 401 590 q 245 543 283 590 q 207 401 207 496 l 207 235 q 235 124 207 161 q 321 88 264 88 q 389 101 356 88 q 463 145 422 114 q 557 231 503 176 l 554 122 q 465 44 507 75 q 380 -2 422 13 q 290 -17 338 -17 m 564 0 q 547 15 549 0 q 540 68 544 36 q 538 121 536 100 l 531 183 l 531 935 q 544 949 531 949 l 635 949 q 649 935 649 949 l 649 157 q 650 110 649 138 q 653 58 651 83 q 658 19 656 33 q 644 0 663 0 l 564 0 z "},"e":{"ha":721,"x_min":86,"x_max":638,"o":"m 363 -17 q 158 46 229 -17 q 86 231 86 108 l 86 425 q 157 626 86 557 q 363 694 228 694 q 567 627 497 694 q 638 432 638 560 l 638 324 q 624 310 638 310 l 204 310 l 204 265 q 243 130 204 172 q 369 88 282 88 q 470 109 435 88 q 506 172 506 131 q 521 188 506 188 l 611 188 q 625 175 622 188 q 560 35 631 86 q 363 -17 489 -17 m 204 411 l 519 411 l 519 419 q 481 549 519 507 q 364 590 442 590 q 244 547 283 590 q 204 418 204 504 l 204 411 z "},"é":{"ha":721,"x_min":86,"x_max":638,"o":"m 363 -17 q 158 46 229 -17 q 86 231 86 108 l 86 425 q 157 626 86 557 q 363 694 228 694 q 567 627 497 694 q 638 432 638 560 l 638 324 q 624 310 638 310 l 204 310 l 204 265 q 243 130 204 172 q 369 88 282 88 q 470 109 435 88 q 506 172 506 131 q 521 188 506 188 l 611 188 q 625 175 622 188 q 560 35 631 86 q 363 -17 489 -17 m 204 411 l 519 411 l 519 419 q 481 549 519 507 q 364 590 442 590 q 244 547 283 590 q 204 418 204 504 l 204 411 m 288 789 q 281 803 274 789 l 372 972 q 389 982 378 982 l 486 982 q 495 977 493 982 q 493 967 497 972 l 378 797 q 363 789 372 789 l 288 789 z "},"ě":{"ha":721,"x_min":86,"x_max":638,"o":"m 363 -17 q 158 46 229 -17 q 86 231 86 108 l 86 425 q 157 626 86 557 q 363 694 228 694 q 567 627 497 694 q 638 432 638 560 l 638 324 q 624 310 638 310 l 204 310 l 204 265 q 243 130 204 172 q 369 88 282 88 q 470 109 435 88 q 506 172 506 131 q 521 188 506 188 l 611 188 q 625 175 622 188 q 560 35 631 86 q 363 -17 489 -17 m 204 411 l 519 411 l 519 419 q 481 549 519 507 q 364 590 442 590 q 244 547 283 590 q 204 418 204 504 l 204 411 m 349 783 l 188 875 q 178 893 178 881 l 178 964 q 193 969 178 978 l 358 888 l 524 969 q 539 964 539 978 l 539 893 q 529 875 539 881 l 368 783 q 349 783 358 776 z "},"ê":{"ha":721,"x_min":86,"x_max":638,"o":"m 363 -17 q 158 46 229 -17 q 86 231 86 108 l 86 425 q 157 626 86 557 q 363 694 228 694 q 567 627 497 694 q 638 432 638 560 l 638 324 q 624 310 638 310 l 204 310 l 204 265 q 243 130 204 172 q 369 88 282 88 q 470 109 435 88 q 506 172 506 131 q 521 188 506 188 l 611 188 q 625 175 622 188 q 560 35 631 86 q 363 -17 489 -17 m 204 411 l 519 411 l 519 419 q 481 549 519 507 q 364 590 442 590 q 244 547 283 590 q 204 418 204 504 l 204 411 m 193 783 q 178 789 178 775 l 178 860 q 188 878 178 872 l 349 969 q 368 969 358 976 l 529 878 q 539 860 539 872 l 539 789 q 524 783 539 775 l 358 865 l 193 783 z "},"ë":{"ha":721,"x_min":86,"x_max":638,"o":"m 363 -17 q 158 46 229 -17 q 86 231 86 108 l 86 425 q 157 626 86 557 q 363 694 228 694 q 567 627 497 694 q 638 432 638 560 l 638 324 q 624 310 638 310 l 204 310 l 204 265 q 243 130 204 172 q 369 88 282 88 q 470 109 435 88 q 506 172 506 131 q 521 188 506 188 l 611 188 q 625 175 622 188 q 560 35 631 86 q 363 -17 489 -17 m 204 411 l 519 411 l 519 419 q 481 549 519 507 q 364 590 442 590 q 244 547 283 590 q 204 418 204 504 l 204 411 m 240 808 q 185 828 201 808 q 168 879 168 849 l 168 893 q 185 944 168 925 q 240 964 201 964 q 296 944 279 964 q 313 893 313 925 l 313 879 q 296 828 313 849 q 240 808 279 808 m 475 808 q 419 828 436 808 q 403 879 403 849 l 403 893 q 419 944 403 925 q 475 964 436 964 q 531 944 514 964 q 547 893 547 925 l 547 879 q 531 828 547 849 q 475 808 514 808 z "},"ė":{"ha":721,"x_min":86,"x_max":638,"o":"m 363 -17 q 158 46 229 -17 q 86 231 86 108 l 86 425 q 157 626 86 557 q 363 694 228 694 q 567 627 497 694 q 638 432 638 560 l 638 324 q 624 310 638 310 l 204 310 l 204 265 q 243 130 204 172 q 369 88 282 88 q 470 109 435 88 q 506 172 506 131 q 521 188 506 188 l 611 188 q 625 175 622 188 q 560 35 631 86 q 363 -17 489 -17 m 204 411 l 519 411 l 519 419 q 481 549 519 507 q 364 590 442 590 q 244 547 283 590 q 204 418 204 504 l 204 411 m 358 808 q 300 830 318 808 q 282 885 282 851 l 282 899 q 300 953 282 932 q 358 975 318 975 q 417 953 399 975 q 435 899 435 932 l 435 885 q 417 830 435 851 q 358 808 399 808 z "},"è":{"ha":721,"x_min":86,"x_max":638,"o":"m 363 -17 q 158 46 229 -17 q 86 231 86 108 l 86 425 q 157 626 86 557 q 363 694 228 694 q 567 627 497 694 q 638 432 638 560 l 638 324 q 624 310 638 310 l 204 310 l 204 265 q 243 130 204 172 q 369 88 282 88 q 470 109 435 88 q 506 172 506 131 q 521 188 506 188 l 611 188 q 625 175 622 188 q 560 35 631 86 q 363 -17 489 -17 m 204 411 l 519 411 l 519 419 q 481 549 519 507 q 364 590 442 590 q 244 547 283 590 q 204 418 204 504 l 204 411 m 353 789 q 338 797 343 789 l 222 967 q 220 977 218 972 q 229 982 222 982 l 326 982 q 343 972 339 982 l 435 803 q 428 789 442 789 l 353 789 z "},"ē":{"ha":721,"x_min":86,"x_max":638,"o":"m 363 -17 q 158 46 229 -17 q 86 231 86 108 l 86 425 q 157 626 86 557 q 363 694 228 694 q 567 627 497 694 q 638 432 638 560 l 638 324 q 624 310 638 310 l 204 310 l 204 265 q 243 130 204 172 q 369 88 282 88 q 470 109 435 88 q 506 172 506 131 q 521 188 506 188 l 611 188 q 625 175 622 188 q 560 35 631 86 q 363 -17 489 -17 m 204 411 l 519 411 l 519 419 q 481 549 519 507 q 364 590 442 590 q 244 547 283 590 q 204 418 204 504 l 204 411 m 222 808 q 208 822 208 808 l 208 894 q 222 908 208 908 l 493 908 q 507 894 507 908 l 507 822 q 493 808 507 808 l 222 808 z "},"ę":{"ha":721,"x_min":86,"x_max":638,"o":"m 363 -17 q 158 46 229 -17 q 86 231 86 108 l 86 425 q 157 626 86 557 q 363 694 228 694 q 567 627 497 694 q 638 432 638 560 l 638 324 q 624 310 638 310 l 204 310 l 204 265 q 243 130 204 172 q 369 88 282 88 q 470 109 435 88 q 506 172 506 131 q 521 188 506 188 l 611 188 q 625 175 622 188 q 560 35 631 86 q 363 -17 489 -17 m 204 411 l 519 411 l 519 419 q 481 549 519 507 q 364 590 442 590 q 244 547 283 590 q 204 418 204 504 l 204 411 m 453 -272 q 349 -241 382 -272 q 315 -160 315 -210 l 315 -143 q 357 -38 315 -86 q 468 33 399 10 l 496 18 l 496 3 q 436 -50 457 -17 q 415 -119 415 -83 l 415 -133 q 472 -185 415 -185 q 491 -185 483 -185 q 507 -183 499 -185 q 519 -193 519 -182 l 519 -254 q 517 -263 519 -260 q 508 -268 515 -267 q 480 -271 494 -269 q 453 -272 465 -272 z "},"f":{"ha":510,"x_min":28,"x_max":524,"o":"m 163 0 q 153 4 157 0 q 149 14 149 8 l 149 576 l 42 576 q 32 581 36 576 q 28 590 28 585 l 28 664 q 32 674 28 671 q 42 678 36 678 l 149 678 l 149 750 q 209 909 149 853 q 375 965 269 965 q 440 959 407 965 q 497 943 474 953 q 524 919 524 933 l 524 846 q 517 835 524 838 q 492 840 511 832 q 439 856 469 850 q 383 863 408 863 q 297 833 326 863 q 267 747 267 804 l 267 678 l 468 678 q 482 664 482 678 l 482 590 q 478 581 482 585 q 468 576 475 576 l 267 576 l 267 14 q 263 4 267 8 q 253 0 260 0 l 163 0 z "},"g":{"ha":718,"x_min":49,"x_max":671,"o":"m 354 -274 q 120 -230 192 -274 q 49 -97 49 -186 q 76 2 49 -40 q 158 71 103 44 l 251 33 q 190 -8 210 21 q 171 -75 171 -36 q 213 -152 171 -131 q 360 -174 254 -174 q 512 -151 469 -174 q 554 -69 554 -129 q 535 -10 554 -29 q 471 11 515 10 l 214 25 q 135 58 171 28 q 100 151 100 88 q 121 226 100 196 q 192 293 142 256 l 267 249 q 222 218 236 236 q 208 176 208 200 q 225 141 208 151 q 276 128 242 131 l 507 114 q 630 62 589 108 q 671 -75 671 15 q 595 -227 671 -181 q 354 -274 519 -274 m 365 219 q 172 278 235 219 q 110 457 110 336 q 173 636 110 578 q 369 694 236 694 q 559 635 497 694 q 621 456 621 576 q 559 277 621 335 q 365 219 497 219 m 365 322 q 473 352 443 322 q 503 456 503 382 q 472 561 503 531 q 365 592 442 592 q 258 561 289 592 q 228 456 228 531 q 258 352 228 382 q 365 322 289 322 m 535 617 l 438 658 q 452 767 444 724 q 467 842 460 811 q 483 858 471 858 l 571 858 q 582 844 586 858 q 558 753 568 801 q 535 617 549 704 z "},"ğ":{"ha":718,"x_min":49,"x_max":671,"o":"m 354 -274 q 120 -230 192 -274 q 49 -97 49 -186 q 76 2 49 -40 q 158 71 103 44 l 251 33 q 190 -8 210 21 q 171 -75 171 -36 q 213 -152 171 -131 q 360 -174 254 -174 q 512 -151 469 -174 q 554 -69 554 -129 q 535 -10 554 -29 q 471 11 515 10 l 214 25 q 135 58 171 28 q 100 151 100 88 q 121 226 100 196 q 192 293 142 256 l 267 249 q 222 218 236 236 q 208 176 208 200 q 225 141 208 151 q 276 128 242 131 l 507 114 q 630 62 589 108 q 671 -75 671 15 q 595 -227 671 -181 q 354 -274 519 -274 m 365 219 q 172 278 235 219 q 110 457 110 336 q 173 636 110 578 q 369 694 236 694 q 559 635 497 694 q 621 456 621 576 q 559 277 621 335 q 365 219 497 219 m 365 322 q 473 352 443 322 q 503 456 503 382 q 472 561 503 531 q 365 592 442 592 q 258 561 289 592 q 228 456 228 531 q 258 352 228 382 q 365 322 289 322 m 371 772 q 290 785 324 772 q 235 815 256 799 q 204 840 214 831 q 199 857 199 846 l 199 932 q 203 944 199 940 q 214 940 207 947 q 274 897 233 922 q 371 871 315 871 q 469 897 428 871 q 528 940 510 922 q 539 944 535 947 q 543 932 543 940 l 543 857 q 542 847 543 851 q 538 840 540 843 q 507 815 528 831 q 453 785 486 799 q 371 772 419 772 z "},"ģ":{"ha":718,"x_min":49,"x_max":671,"o":"m 354 -274 q 120 -230 192 -274 q 49 -97 49 -186 q 76 2 49 -40 q 158 71 103 44 l 251 33 q 190 -8 210 21 q 171 -75 171 -36 q 213 -152 171 -131 q 360 -174 254 -174 q 512 -151 469 -174 q 554 -69 554 -129 q 535 -10 554 -29 q 471 11 515 10 l 214 25 q 135 58 171 28 q 100 151 100 88 q 121 226 100 196 q 192 293 142 256 l 267 249 q 222 218 236 236 q 208 176 208 200 q 225 141 208 151 q 276 128 242 131 l 507 114 q 630 62 589 108 q 671 -75 671 15 q 595 -227 671 -181 q 354 -274 519 -274 m 365 219 q 172 278 235 219 q 110 457 110 336 q 173 636 110 578 q 369 694 236 694 q 559 635 497 694 q 621 456 621 576 q 559 277 621 335 q 365 219 497 219 m 365 322 q 473 352 443 322 q 503 456 503 382 q 472 561 503 531 q 365 592 442 592 q 258 561 289 592 q 228 456 228 531 q 258 352 228 382 q 365 322 289 322 m 374 782 q 322 797 338 782 q 306 839 306 813 l 306 864 q 308 900 306 883 q 317 933 311 917 l 344 1017 q 358 1025 347 1025 l 408 1025 q 417 1013 419 1025 l 394 919 q 426 899 417 913 q 435 863 435 885 l 435 839 q 418 797 435 813 q 374 782 401 782 z "},"ġ":{"ha":718,"x_min":49,"x_max":671,"o":"m 354 -274 q 120 -230 192 -274 q 49 -97 49 -186 q 76 2 49 -40 q 158 71 103 44 l 251 33 q 190 -8 210 21 q 171 -75 171 -36 q 213 -152 171 -131 q 360 -174 254 -174 q 512 -151 469 -174 q 554 -69 554 -129 q 535 -10 554 -29 q 471 11 515 10 l 214 25 q 135 58 171 28 q 100 151 100 88 q 121 226 100 196 q 192 293 142 256 l 267 249 q 222 218 236 236 q 208 176 208 200 q 225 141 208 151 q 276 128 242 131 l 507 114 q 630 62 589 108 q 671 -75 671 15 q 595 -227 671 -181 q 354 -274 519 -274 m 365 219 q 172 278 235 219 q 110 457 110 336 q 173 636 110 578 q 369 694 236 694 q 559 635 497 694 q 621 456 621 576 q 559 277 621 335 q 365 219 497 219 m 365 322 q 473 352 443 322 q 503 456 503 382 q 472 561 503 531 q 365 592 442 592 q 258 561 289 592 q 228 456 228 531 q 258 352 228 382 q 365 322 289 322 m 371 792 q 313 813 331 792 q 294 868 294 835 l 294 882 q 313 937 294 915 q 371 958 331 958 q 429 937 411 958 q 447 882 447 915 l 447 868 q 429 813 447 835 q 371 792 411 792 z "},"h":{"ha":772,"x_min":104,"x_max":668,"o":"m 564 0 q 550 14 550 0 l 550 457 q 522 558 550 525 q 438 590 494 590 q 325 556 382 590 q 201 450 268 522 l 203 558 q 290 637 249 607 q 374 681 332 667 q 464 694 417 694 q 616 636 564 694 q 668 463 668 578 l 668 14 q 654 0 668 0 l 564 0 m 118 0 q 104 14 104 0 l 104 935 q 118 949 104 949 l 208 949 q 222 935 222 949 l 222 14 q 208 0 222 0 l 118 0 z "},"ħ":{"ha":772,"x_min":-8,"x_max":668,"o":"m 6 768 q -8 782 -8 768 l -8 851 q 6 865 -8 865 l 368 865 q 382 851 382 865 l 382 782 q 368 768 382 768 l 104 768 l 6 768 m 564 0 q 550 14 550 0 l 550 457 q 522 558 550 525 q 438 590 494 590 q 325 556 382 590 q 201 450 268 522 l 203 558 q 290 637 249 607 q 374 681 332 667 q 464 694 417 694 q 616 636 564 694 q 668 463 668 578 l 668 14 q 654 0 668 0 l 564 0 m 118 0 q 104 14 104 0 l 104 935 q 118 949 104 949 l 208 949 q 222 935 222 949 l 222 14 q 208 0 222 0 l 118 0 z "},"i":{"ha":326,"x_min":88,"x_max":240,"o":"m 118 0 q 104 14 104 0 l 104 664 q 118 678 104 678 l 208 678 q 222 664 222 678 l 222 14 q 208 0 222 0 l 118 0 m 164 792 q 106 813 124 792 q 88 868 88 835 l 88 882 q 106 937 88 915 q 164 958 124 958 q 222 937 204 958 q 240 882 240 915 l 240 868 q 222 813 240 835 q 164 792 204 792 z "},"ı":{"ha":326,"x_min":104,"x_max":222,"o":"m 118 0 q 104 14 104 0 l 104 664 q 118 678 104 678 l 208 678 q 222 664 222 678 l 222 14 q 208 0 222 0 l 118 0 z "},"í":{"ha":326,"x_min":79,"x_max":303,"o":"m 118 0 q 104 14 104 0 l 104 664 q 118 678 104 678 l 208 678 q 222 664 222 678 l 222 14 q 208 0 222 0 l 118 0 m 93 772 q 86 786 79 772 l 178 956 q 194 965 183 965 l 292 965 q 301 960 299 965 q 299 950 303 956 l 183 781 q 168 772 178 772 l 93 772 z "},"î":{"ha":326,"x_min":-17,"x_max":344,"o":"m 118 0 q 104 14 104 0 l 104 664 q 118 678 104 678 l 208 678 q 222 664 222 678 l 222 14 q 208 0 222 0 l 118 0 m -1 767 q -17 772 -17 758 l -17 843 q -7 861 -17 856 l 154 953 q 174 953 164 960 l 335 861 q 344 843 344 856 l 344 772 q 329 767 344 758 l 164 849 l -1 767 z "},"ï":{"ha":326,"x_min":-26,"x_max":353,"o":"m 118 0 q 104 14 104 0 l 104 664 q 118 678 104 678 l 208 678 q 222 664 222 678 l 222 14 q 208 0 222 0 l 118 0 m 46 792 q -10 812 7 792 q -26 863 -26 832 l -26 876 q -10 928 -26 908 q 46 947 7 947 q 101 928 85 947 q 118 876 118 908 l 118 863 q 101 812 118 832 q 46 792 85 792 m 281 792 q 225 812 242 792 q 208 863 208 832 l 208 876 q 225 928 208 908 q 281 947 242 947 q 336 928 319 947 q 353 876 353 908 l 353 863 q 336 812 353 832 q 281 792 319 792 z "},"ì":{"ha":326,"x_min":24,"x_max":247,"o":"m 118 0 q 104 14 104 0 l 104 664 q 118 678 104 678 l 208 678 q 222 664 222 678 l 222 14 q 208 0 222 0 l 118 0 m 158 772 q 143 781 149 772 l 28 950 q 26 960 24 956 q 35 965 28 965 l 132 965 q 149 956 144 965 l 240 786 q 233 772 247 772 l 158 772 z "},"ĳ":{"ha":654,"x_min":88,"x_max":567,"o":"m 118 0 q 104 14 104 0 l 104 664 q 118 678 104 678 l 208 678 q 222 664 222 678 l 222 14 q 208 0 222 0 l 118 0 m 164 792 q 106 813 124 792 q 88 868 88 835 l 88 882 q 106 937 88 915 q 164 958 124 958 q 222 937 204 958 q 240 882 240 915 l 240 868 q 222 813 240 835 q 164 792 204 792 m 385 -264 q 365 -260 374 -271 l 311 -192 q 308 -181 307 -185 q 315 -172 310 -176 q 377 -110 351 -147 q 417 -24 403 -74 q 431 89 431 25 l 431 664 q 435 674 431 671 q 444 678 439 678 l 535 678 q 545 674 542 678 q 549 664 549 671 l 549 82 q 531 -67 549 -1 q 478 -181 514 -132 q 385 -264 442 -229 m 490 792 q 432 813 450 792 q 414 868 414 835 l 414 882 q 432 937 414 915 q 490 958 450 958 q 549 937 531 958 q 567 882 567 915 l 567 868 q 549 813 567 835 q 490 792 531 792 z "},"ī":{"ha":326,"x_min":14,"x_max":313,"o":"m 118 0 q 104 14 104 0 l 104 664 q 118 678 104 678 l 208 678 q 222 664 222 678 l 222 14 q 208 0 222 0 l 118 0 m 28 792 q 14 806 14 792 l 14 878 q 28 892 14 892 l 299 892 q 313 878 313 892 l 313 806 q 299 792 313 792 l 28 792 z "},"į":{"ha":326,"x_min":25,"x_max":240,"o":"m 118 0 q 104 14 104 0 l 104 664 q 118 678 104 678 l 208 678 q 222 664 222 678 l 222 14 q 208 0 222 0 l 118 0 m 164 792 q 106 813 124 792 q 88 868 88 835 l 88 882 q 106 937 88 915 q 164 958 124 958 q 222 937 204 958 q 240 882 240 915 l 240 868 q 222 813 240 835 q 164 792 204 792 m 163 -274 q 58 -242 92 -274 q 25 -161 25 -211 l 25 -144 q 67 -40 25 -87 q 178 32 108 8 l 206 17 l 206 1 q 146 -51 167 -18 q 125 -121 125 -85 l 125 -135 q 182 -186 125 -186 q 201 -186 193 -186 q 217 -185 208 -186 q 229 -194 229 -183 l 229 -256 q 227 -265 229 -261 q 218 -269 225 -268 q 190 -272 204 -271 q 163 -274 175 -274 z "},"j":{"ha":328,"x_min":-19,"x_max":240,"o":"m 58 -264 q 39 -260 47 -271 l -15 -192 q -18 -181 -19 -185 q -11 -172 -17 -176 q 51 -110 25 -147 q 90 -24 76 -74 q 104 89 104 25 l 104 664 q 108 674 104 671 q 118 678 113 678 l 208 678 q 219 674 215 678 q 222 664 222 671 l 222 82 q 205 -67 222 -1 q 151 -181 188 -132 q 58 -264 115 -229 m 164 792 q 106 813 124 792 q 88 868 88 835 l 88 882 q 106 937 88 915 q 164 958 124 958 q 222 937 204 958 q 240 882 240 915 l 240 868 q 222 813 240 835 q 164 792 204 792 z "},"ȷ":{"ha":328,"x_min":-19,"x_max":222,"o":"m 58 -264 q 39 -260 47 -271 l -15 -192 q -18 -181 -19 -185 q -11 -172 -17 -176 q 51 -110 25 -147 q 90 -24 76 -74 q 104 89 104 25 l 104 664 q 108 674 104 671 q 118 678 113 678 l 208 678 q 219 674 215 678 q 222 664 222 671 l 222 82 q 205 -67 222 -1 q 151 -181 188 -132 q 58 -264 115 -229 z "},"k":{"ha":682,"x_min":104,"x_max":660,"o":"m 118 0 q 104 14 104 0 l 104 935 q 118 949 104 949 l 208 949 q 222 935 222 949 l 222 575 q 222 480 222 528 q 221 383 222 432 l 222 383 q 273 439 247 411 q 325 494 299 467 l 489 671 q 506 678 494 678 l 628 678 q 640 673 638 678 q 635 661 642 668 l 404 425 l 656 17 q 657 5 660 10 q 646 0 654 0 l 539 0 q 522 10 529 0 l 319 338 l 222 239 l 222 14 q 208 0 222 0 l 118 0 z "},"ķ":{"ha":682,"x_min":104,"x_max":660,"o":"m 118 0 q 104 14 104 0 l 104 935 q 118 949 104 949 l 208 949 q 222 935 222 949 l 222 575 q 222 480 222 528 q 221 383 222 432 l 222 383 q 273 439 247 411 q 325 494 299 467 l 489 671 q 506 678 494 678 l 628 678 q 640 673 638 678 q 635 661 642 668 l 404 425 l 656 17 q 657 5 660 10 q 646 0 654 0 l 539 0 q 522 10 529 0 l 319 338 l 222 239 l 222 14 q 208 0 222 0 l 118 0 m 315 -321 q 307 -308 306 -321 l 329 -215 q 298 -194 307 -208 q 289 -158 289 -181 l 289 -135 q 306 -93 289 -108 q 350 -78 322 -78 q 402 -93 386 -78 q 418 -135 418 -108 l 418 -160 q 415 -195 418 -178 q 407 -229 413 -212 l 379 -312 q 365 -321 376 -321 l 315 -321 z "},"ĸ":{"ha":682,"x_min":104,"x_max":660,"o":"m 118 0 q 104 14 104 0 l 104 664 q 118 678 104 678 l 208 678 q 222 664 222 678 l 222 575 q 222 480 222 528 q 221 383 222 432 l 222 383 q 273 439 247 411 q 325 494 299 467 l 489 671 q 506 678 494 678 l 628 678 q 640 673 638 678 q 635 661 642 668 l 404 425 l 656 17 q 657 5 660 10 q 646 0 654 0 l 539 0 q 522 10 529 0 l 319 338 l 222 239 l 222 14 q 208 0 222 0 l 118 0 z "},"l":{"ha":326,"x_min":104,"x_max":222,"o":"m 118 0 q 104 14 104 0 l 104 935 q 118 949 104 949 l 208 949 q 222 935 222 949 l 222 14 q 208 0 222 0 l 118 0 z "},"ĺ":{"ha":326,"x_min":89,"x_max":296,"o":"m 118 0 q 104 14 104 0 l 104 935 q 118 949 104 949 l 208 949 q 222 935 222 949 l 222 14 q 208 0 222 0 l 118 0 m 99 1025 q 90 1029 92 1025 q 92 1039 89 1033 l 169 1181 q 183 1190 175 1190 l 285 1190 q 294 1185 292 1190 q 292 1174 296 1181 l 192 1033 q 176 1025 186 1025 l 99 1025 z "},"ľ":{"ha":328,"x_min":104,"x_max":414,"o":"m 118 0 q 104 14 104 0 l 104 935 q 118 949 104 949 l 208 949 q 222 935 222 949 l 222 14 q 208 0 222 0 l 118 0 m 318 733 q 306 749 303 733 l 325 828 q 294 847 303 835 q 285 881 285 858 l 285 915 q 301 951 285 938 q 346 965 318 965 q 398 951 382 965 q 414 915 414 938 l 414 879 q 412 846 414 861 q 403 814 410 831 l 378 744 q 361 733 374 733 l 318 733 z "},"ļ":{"ha":326,"x_min":99,"x_max":228,"o":"m 118 0 q 104 14 104 0 l 104 935 q 118 949 104 949 l 208 949 q 222 935 222 949 l 222 14 q 208 0 222 0 l 118 0 m 125 -321 q 117 -308 115 -321 l 139 -215 q 108 -194 117 -208 q 99 -158 99 -181 l 99 -135 q 115 -93 99 -108 q 160 -78 132 -78 q 212 -93 196 -78 q 228 -135 228 -108 l 228 -160 q 225 -195 228 -178 q 217 -229 222 -212 l 189 -312 q 175 -321 186 -321 l 125 -321 z "},"ł":{"ha":326,"x_min":-10,"x_max":336,"o":"m 7 465 q -5 466 0 463 q -10 476 -10 469 l -10 556 q 1 571 -10 567 l 319 721 q 331 720 326 724 q 336 710 336 717 l 336 631 q 325 615 336 619 l 104 511 l 7 465 m 118 0 q 104 14 104 0 l 104 935 q 118 949 104 949 l 208 949 q 222 935 222 949 l 222 14 q 208 0 222 0 l 118 0 z "},"m":{"ha":1174,"x_min":92,"x_max":1069,"o":"m 118 0 q 104 14 104 0 l 104 508 q 102 587 104 546 q 94 661 100 628 q 110 678 92 678 l 193 678 q 207 668 206 678 q 214 624 210 647 q 219 575 218 600 q 338 666 282 638 q 457 694 393 694 q 572 662 528 694 q 633 565 615 629 q 757 664 700 633 q 881 694 814 694 q 1022 636 974 694 q 1069 464 1069 578 l 1069 14 q 1056 0 1069 0 l 965 0 q 951 14 951 0 l 951 457 q 927 557 951 524 q 851 590 903 590 q 758 562 806 590 q 646 472 710 533 l 646 14 q 632 0 646 0 l 542 0 q 528 14 528 0 l 528 457 q 503 557 528 524 q 428 590 479 590 q 334 562 382 590 q 222 472 286 533 l 222 14 q 208 0 222 0 l 118 0 z "},"n":{"ha":772,"x_min":92,"x_max":668,"o":"m 564 0 q 550 14 550 0 l 550 457 q 522 558 550 526 q 436 590 493 590 q 329 558 382 590 q 197 449 276 526 l 199 556 q 288 636 246 606 q 373 681 331 667 q 463 694 415 694 q 615 636 563 694 q 668 463 668 578 l 668 14 q 654 0 668 0 l 564 0 m 118 0 q 104 14 104 0 l 104 508 q 101 590 104 544 q 94 660 97 635 q 108 678 92 678 l 193 678 q 208 664 206 678 q 214 629 211 653 q 219 580 217 606 q 222 536 222 554 l 222 500 l 222 14 q 208 0 222 0 l 118 0 z "},"ń":{"ha":772,"x_min":92,"x_max":668,"o":"m 564 0 q 550 14 550 0 l 550 457 q 522 558 550 526 q 436 590 493 590 q 329 558 382 590 q 197 449 276 526 l 199 556 q 288 636 246 606 q 373 681 331 667 q 463 694 415 694 q 615 636 563 694 q 668 463 668 578 l 668 14 q 654 0 668 0 l 564 0 m 118 0 q 104 14 104 0 l 104 508 q 101 590 104 544 q 94 660 97 635 q 108 678 92 678 l 193 678 q 208 664 206 678 q 214 629 211 653 q 219 580 217 606 q 222 536 222 554 l 222 500 l 222 14 q 208 0 222 0 l 118 0 m 321 772 q 314 786 307 772 l 406 956 q 422 965 411 965 l 519 965 q 528 960 526 965 q 526 950 531 956 l 411 781 q 396 772 406 772 l 321 772 z "},"ň":{"ha":772,"x_min":92,"x_max":668,"o":"m 564 0 q 550 14 550 0 l 550 457 q 522 558 550 526 q 436 590 493 590 q 329 558 382 590 q 197 449 276 526 l 199 556 q 288 636 246 606 q 373 681 331 667 q 463 694 415 694 q 615 636 563 694 q 668 463 668 578 l 668 14 q 654 0 668 0 l 564 0 m 118 0 q 104 14 104 0 l 104 508 q 101 590 104 544 q 94 660 97 635 q 108 678 92 678 l 193 678 q 208 664 206 678 q 214 629 211 653 q 219 580 217 606 q 222 536 222 554 l 222 500 l 222 14 q 208 0 222 0 l 118 0 m 382 767 l 221 858 q 211 876 211 864 l 211 947 q 226 953 211 961 l 392 871 l 557 953 q 572 947 572 961 l 572 876 q 563 858 572 864 l 401 767 q 382 767 392 760 z "},"ņ":{"ha":772,"x_min":92,"x_max":668,"o":"m 564 0 q 550 14 550 0 l 550 457 q 522 558 550 526 q 436 590 493 590 q 329 558 382 590 q 197 449 276 526 l 199 556 q 288 636 246 606 q 373 681 331 667 q 463 694 415 694 q 615 636 563 694 q 668 463 668 578 l 668 14 q 654 0 668 0 l 564 0 m 118 0 q 104 14 104 0 l 104 508 q 101 590 104 544 q 94 660 97 635 q 108 678 92 678 l 193 678 q 208 664 206 678 q 214 629 211 653 q 219 580 217 606 q 222 536 222 554 l 222 500 l 222 14 q 208 0 222 0 l 118 0 m 358 -321 q 350 -308 349 -321 l 372 -215 q 341 -194 350 -208 q 332 -158 332 -181 l 332 -135 q 349 -93 332 -108 q 393 -78 365 -78 q 445 -93 429 -78 q 461 -135 461 -108 l 461 -160 q 458 -195 461 -178 q 450 -229 456 -212 l 422 -312 q 408 -321 419 -321 l 358 -321 z "},"ŋ":{"ha":772,"x_min":92,"x_max":668,"o":"m 504 -264 q 485 -260 493 -271 l 431 -192 q 428 -181 426 -185 q 435 -172 429 -176 q 498 -110 472 -146 q 537 -24 524 -74 q 550 89 550 25 l 550 457 q 522 558 550 526 q 436 590 493 590 q 338 564 386 590 q 222 472 290 538 l 222 14 q 208 0 222 0 l 118 0 q 104 14 104 0 l 104 508 q 101 590 104 544 q 94 660 97 635 q 108 678 92 678 l 193 678 q 208 664 206 678 q 215 626 211 651 q 219 576 218 601 q 340 667 283 639 q 463 694 396 694 q 615 636 563 694 q 668 463 668 578 l 668 82 q 650 -69 668 -3 q 596 -183 632 -135 q 504 -264 560 -232 z "},"ñ":{"ha":772,"x_min":92,"x_max":668,"o":"m 564 0 q 550 14 550 0 l 550 457 q 522 558 550 526 q 436 590 493 590 q 329 558 382 590 q 197 449 276 526 l 199 556 q 288 636 246 606 q 373 681 331 667 q 463 694 415 694 q 615 636 563 694 q 668 463 668 578 l 668 14 q 654 0 668 0 l 564 0 m 118 0 q 104 14 104 0 l 104 508 q 101 590 104 544 q 94 660 97 635 q 108 678 92 678 l 193 678 q 208 664 206 678 q 214 629 211 653 q 219 580 217 606 q 222 536 222 554 l 222 500 l 222 14 q 208 0 222 0 l 118 0 m 461 788 q 411 797 433 788 q 367 814 389 806 q 319 822 346 822 q 269 813 296 822 q 228 796 243 803 q 211 804 211 789 l 211 869 q 219 888 211 882 q 259 910 232 897 q 322 922 286 922 q 380 914 357 922 q 422 897 403 906 q 464 888 440 888 q 514 897 488 888 q 556 914 540 907 q 572 906 572 921 l 572 840 q 564 822 572 829 q 524 800 551 813 q 461 788 497 788 z "},"o":{"ha":744,"x_min":86,"x_max":658,"o":"m 372 -17 q 159 51 232 -17 q 86 258 86 119 l 86 419 q 158 626 86 558 q 372 694 231 694 q 585 626 513 694 q 658 419 658 558 l 658 258 q 586 51 658 119 q 372 -17 514 -17 m 372 88 q 501 133 461 88 q 540 269 540 178 l 540 408 q 501 545 540 500 q 372 590 461 590 q 244 545 283 590 q 204 408 204 500 l 204 269 q 244 133 204 178 q 372 88 283 88 z "},"ó":{"ha":744,"x_min":86,"x_max":658,"o":"m 372 -17 q 159 51 232 -17 q 86 258 86 119 l 86 419 q 158 626 86 558 q 372 694 231 694 q 585 626 513 694 q 658 419 658 558 l 658 258 q 586 51 658 119 q 372 -17 514 -17 m 372 88 q 501 133 461 88 q 540 269 540 178 l 540 408 q 501 545 540 500 q 372 590 461 590 q 244 545 283 590 q 204 408 204 500 l 204 269 q 244 133 204 178 q 372 88 283 88 m 301 772 q 294 786 288 772 l 386 956 q 403 965 392 965 l 500 965 q 509 960 507 965 q 507 950 511 956 l 392 781 q 376 772 386 772 l 301 772 z "},"ô":{"ha":744,"x_min":86,"x_max":658,"o":"m 372 -17 q 159 51 232 -17 q 86 258 86 119 l 86 419 q 158 626 86 558 q 372 694 231 694 q 585 626 513 694 q 658 419 658 558 l 658 258 q 586 51 658 119 q 372 -17 514 -17 m 372 88 q 501 133 461 88 q 540 269 540 178 l 540 408 q 501 545 540 500 q 372 590 461 590 q 244 545 283 590 q 204 408 204 500 l 204 269 q 244 133 204 178 q 372 88 283 88 m 207 767 q 192 772 192 758 l 192 843 q 201 861 192 856 l 363 953 q 382 953 372 960 l 543 861 q 553 843 553 856 l 553 772 q 538 767 553 758 l 372 849 l 207 767 z "},"ö":{"ha":744,"x_min":86,"x_max":658,"o":"m 372 -17 q 159 51 232 -17 q 86 258 86 119 l 86 419 q 158 626 86 558 q 372 694 231 694 q 585 626 513 694 q 658 419 658 558 l 658 258 q 586 51 658 119 q 372 -17 514 -17 m 372 88 q 501 133 461 88 q 540 269 540 178 l 540 408 q 501 545 540 500 q 372 590 461 590 q 244 545 283 590 q 204 408 204 500 l 204 269 q 244 133 204 178 q 372 88 283 88 m 254 792 q 199 812 215 792 q 182 863 182 832 l 182 876 q 199 928 182 908 q 254 947 215 947 q 310 928 293 947 q 326 876 326 908 l 326 863 q 310 812 326 832 q 254 792 293 792 m 489 792 q 433 812 450 792 q 417 863 417 832 l 417 876 q 433 928 417 908 q 489 947 450 947 q 544 928 528 947 q 561 876 561 908 l 561 863 q 544 812 561 832 q 489 792 528 792 z "},"ò":{"ha":744,"x_min":86,"x_max":658,"o":"m 372 -17 q 159 51 232 -17 q 86 258 86 119 l 86 419 q 158 626 86 558 q 372 694 231 694 q 585 626 513 694 q 658 419 658 558 l 658 258 q 586 51 658 119 q 372 -17 514 -17 m 372 88 q 501 133 461 88 q 540 269 540 178 l 540 408 q 501 545 540 500 q 372 590 461 590 q 244 545 283 590 q 204 408 204 500 l 204 269 q 244 133 204 178 q 372 88 283 88 m 367 772 q 351 781 357 772 l 236 950 q 234 960 232 956 q 243 965 236 965 l 340 965 q 357 956 353 965 l 449 786 q 442 772 456 772 l 367 772 z "},"ő":{"ha":744,"x_min":86,"x_max":658,"o":"m 372 -17 q 159 51 232 -17 q 86 258 86 119 l 86 419 q 158 626 86 558 q 372 694 231 694 q 585 626 513 694 q 658 419 658 558 l 658 258 q 586 51 658 119 q 372 -17 514 -17 m 372 88 q 501 133 461 88 q 540 269 540 178 l 540 408 q 501 545 540 500 q 372 590 461 590 q 244 545 283 590 q 204 408 204 500 l 204 269 q 244 133 204 178 q 372 88 283 88 m 222 772 q 214 788 207 772 l 285 954 q 300 965 289 965 l 393 965 q 400 949 410 965 l 313 782 q 297 772 307 772 l 222 772 m 408 772 q 400 788 393 772 l 471 954 q 486 965 475 965 l 579 965 q 586 949 596 965 l 499 782 q 483 772 493 772 l 408 772 z "},"ō":{"ha":744,"x_min":86,"x_max":658,"o":"m 372 -17 q 159 51 232 -17 q 86 258 86 119 l 86 419 q 158 626 86 558 q 372 694 231 694 q 585 626 513 694 q 658 419 658 558 l 658 258 q 586 51 658 119 q 372 -17 514 -17 m 372 88 q 501 133 461 88 q 540 269 540 178 l 540 408 q 501 545 540 500 q 372 590 461 590 q 244 545 283 590 q 204 408 204 500 l 204 269 q 244 133 204 178 q 372 88 283 88 m 236 792 q 222 806 222 792 l 222 878 q 236 892 222 892 l 507 892 q 521 878 521 892 l 521 806 q 507 792 521 792 l 236 792 z "},"ø":{"ha":744,"x_min":4,"x_max":740,"o":"m 18 -71 q 7 -65 10 -71 q 10 -54 4 -60 l 144 122 l 167 150 l 499 583 l 539 635 l 618 739 q 636 747 625 747 l 726 747 q 738 742 735 747 q 735 731 740 738 l 608 567 l 563 506 l 250 99 l 210 47 l 126 -62 q 108 -71 121 -71 l 18 -71 m 372 -17 q 159 51 232 -17 q 86 258 86 119 l 86 419 q 158 626 86 558 q 372 694 231 694 q 585 626 513 694 q 658 419 658 558 l 658 258 q 586 51 658 119 q 372 -17 514 -17 m 372 88 q 501 133 461 88 q 540 269 540 178 l 540 408 q 501 545 540 500 q 372 590 461 590 q 244 545 283 590 q 204 408 204 500 l 204 269 q 244 133 204 178 q 372 88 283 88 z "},"õ":{"ha":744,"x_min":86,"x_max":658,"o":"m 372 -17 q 159 51 232 -17 q 86 258 86 119 l 86 419 q 158 626 86 558 q 372 694 231 694 q 585 626 513 694 q 658 419 658 558 l 658 258 q 586 51 658 119 q 372 -17 514 -17 m 372 88 q 501 133 461 88 q 540 269 540 178 l 540 408 q 501 545 540 500 q 372 590 461 590 q 244 545 283 590 q 204 408 204 500 l 204 269 q 244 133 204 178 q 372 88 283 88 m 442 788 q 392 797 414 788 q 348 814 369 806 q 300 822 326 822 q 250 813 276 822 q 208 796 224 803 q 192 804 192 789 l 192 869 q 200 888 192 882 q 240 910 213 897 q 303 922 267 922 q 360 914 338 922 q 402 897 383 906 q 444 888 421 888 q 494 897 468 888 q 536 914 521 907 q 553 906 553 921 l 553 840 q 544 822 553 829 q 505 800 532 813 q 442 788 478 788 z "},"œ":{"ha":1161,"x_min":86,"x_max":1078,"o":"m 361 -17 q 156 53 226 -17 q 86 253 86 122 l 86 425 q 156 626 86 557 q 360 694 226 694 q 498 667 440 694 q 586 583 556 640 q 680 667 619 640 q 817 694 740 694 q 1010 626 942 694 q 1078 432 1078 558 l 1078 324 q 1064 310 1078 310 l 644 310 l 644 265 q 683 130 644 172 q 810 88 722 88 q 910 110 875 88 q 946 167 946 132 q 961 188 946 188 l 1051 188 q 1065 171 1065 188 q 994 33 1065 83 q 804 -17 924 -17 q 674 8 726 -17 q 582 92 621 32 q 489 8 542 32 q 361 -17 436 -17 m 365 88 q 487 131 447 88 q 526 264 526 175 l 526 414 q 487 547 526 503 q 365 590 447 590 q 244 547 285 590 q 204 414 204 503 l 204 264 q 244 131 204 175 q 365 88 285 88 m 644 411 l 960 411 l 960 417 q 921 547 960 504 q 804 590 882 590 q 684 546 724 590 q 644 415 644 501 l 644 411 z "},"p":{"ha":746,"x_min":93,"x_max":657,"o":"m 408 -17 q 299 -3 356 -17 q 207 35 242 11 l 203 135 q 292 100 243 113 q 383 88 340 88 q 501 135 464 88 q 539 276 539 182 l 539 429 q 510 551 539 513 q 424 590 481 590 q 326 562 375 590 q 196 461 276 533 l 196 572 q 284 642 243 615 q 365 682 325 669 q 449 694 404 694 q 604 631 551 694 q 657 436 657 567 l 657 263 q 593 56 657 128 q 408 -17 529 -17 m 118 -257 q 104 -243 104 -257 l 104 521 q 101 592 104 553 q 94 661 99 631 q 108 678 93 678 l 193 678 q 208 664 207 678 q 214 636 211 654 q 218 601 217 618 q 218 576 219 583 l 222 507 l 222 -243 q 208 -257 222 -257 l 118 -257 z "},"þ":{"ha":746,"x_min":104,"x_max":657,"o":"m 118 -257 q 104 -243 104 -257 l 104 935 q 118 949 104 949 l 208 949 q 222 935 222 949 l 222 596 q 336 672 283 649 q 449 694 389 694 q 604 631 551 694 q 657 436 657 567 l 657 263 q 593 56 657 128 q 408 -17 529 -17 q 310 -5 361 -17 q 222 25 258 7 l 222 -243 q 208 -257 222 -257 l 118 -257 m 383 88 q 501 135 464 88 q 539 276 539 182 l 539 429 q 510 551 539 513 q 424 590 481 590 q 335 567 379 590 q 222 485 290 543 l 222 125 q 303 97 260 107 q 383 88 346 88 z "},"q":{"ha":751,"x_min":89,"x_max":647,"o":"m 543 -257 q 529 -243 529 -257 l 529 575 q 454 586 494 582 q 383 590 414 590 q 249 545 290 590 q 207 401 207 500 l 207 249 q 234 126 207 164 q 321 88 261 88 q 421 114 371 88 q 549 208 471 140 l 544 96 q 421 10 481 36 q 294 -17 361 -17 q 140 47 190 -17 q 89 242 89 111 l 89 413 q 160 624 89 553 q 372 694 231 694 q 465 688 424 694 q 550 672 507 681 q 647 660 593 664 l 647 -243 q 633 -257 647 -257 l 543 -257 z "},"r":{"ha":494,"x_min":92,"x_max":475,"o":"m 118 0 q 104 14 104 0 l 104 513 q 102 588 104 551 q 94 663 100 625 q 108 678 92 678 l 193 678 q 208 665 207 678 q 217 605 214 639 q 219 547 219 571 l 222 474 l 222 14 q 208 0 222 0 l 118 0 m 207 432 l 204 546 q 272 622 233 589 q 349 675 310 656 q 422 694 389 694 q 460 690 447 694 q 472 676 471 688 q 474 617 475 647 q 469 558 474 586 q 451 547 467 543 q 428 551 440 550 q 401 553 415 553 q 332 538 367 553 q 265 495 297 522 q 207 432 233 468 z "},"ŕ":{"ha":494,"x_min":92,"x_max":475,"o":"m 118 0 q 104 14 104 0 l 104 513 q 102 588 104 551 q 94 663 100 625 q 108 678 92 678 l 193 678 q 208 665 207 678 q 217 605 214 639 q 219 547 219 571 l 222 474 l 222 14 q 208 0 222 0 l 118 0 m 207 432 l 204 546 q 272 622 233 589 q 349 675 310 656 q 422 694 389 694 q 460 690 447 694 q 472 676 471 688 q 474 617 475 647 q 469 558 474 586 q 451 547 467 543 q 428 551 440 550 q 401 553 415 553 q 332 538 367 553 q 265 495 297 522 q 207 432 233 468 m 218 772 q 211 786 204 772 l 303 956 q 319 965 308 965 l 417 965 q 426 960 424 965 q 424 950 428 956 l 308 781 q 293 772 303 772 l 218 772 z "},"ř":{"ha":494,"x_min":92,"x_max":475,"o":"m 118 0 q 104 14 104 0 l 104 513 q 102 588 104 551 q 94 663 100 625 q 108 678 92 678 l 193 678 q 208 665 207 678 q 217 605 214 639 q 219 547 219 571 l 222 474 l 222 14 q 208 0 222 0 l 118 0 m 207 432 l 204 546 q 272 622 233 589 q 349 675 310 656 q 422 694 389 694 q 460 690 447 694 q 472 676 471 688 q 474 617 475 647 q 469 558 474 586 q 451 547 467 543 q 428 551 440 550 q 401 553 415 553 q 332 538 367 553 q 265 495 297 522 q 207 432 233 468 m 279 767 l 118 858 q 108 876 108 864 l 108 947 q 124 953 108 961 l 289 871 l 454 953 q 469 947 469 961 l 469 876 q 460 858 469 864 l 299 767 q 279 767 289 760 z "},"ŗ":{"ha":494,"x_min":92,"x_max":475,"o":"m 118 0 q 104 14 104 0 l 104 513 q 102 588 104 551 q 94 663 100 625 q 108 678 92 678 l 193 678 q 208 665 207 678 q 217 605 214 639 q 219 547 219 571 l 222 474 l 222 14 q 208 0 222 0 l 118 0 m 207 432 l 204 546 q 272 622 233 589 q 349 675 310 656 q 422 694 389 694 q 460 690 447 694 q 472 676 471 688 q 474 617 475 647 q 469 558 474 586 q 451 547 467 543 q 428 551 440 550 q 401 553 415 553 q 332 538 367 553 q 265 495 297 522 q 207 432 233 468 m 129 -321 q 121 -308 119 -321 l 143 -215 q 112 -194 121 -208 q 103 -158 103 -181 l 103 -135 q 119 -93 103 -108 q 164 -78 136 -78 q 216 -93 200 -78 q 232 -135 232 -108 l 232 -160 q 229 -195 232 -178 q 221 -229 226 -212 l 193 -312 q 179 -321 190 -321 l 129 -321 z "},"s":{"ha":644,"x_min":74,"x_max":581,"o":"m 324 -17 q 136 38 199 -17 q 74 203 74 93 q 88 215 74 215 l 179 215 q 192 204 192 215 q 223 114 192 142 q 325 86 254 86 q 428 109 393 86 q 463 175 463 132 q 443 228 463 207 q 382 268 424 250 l 224 333 q 115 406 147 365 q 83 510 83 446 q 142 648 83 601 q 315 694 200 694 q 499 645 433 694 q 564 506 564 596 q 550 493 564 493 l 458 493 q 444 515 444 493 q 411 572 444 551 q 319 592 378 592 q 231 572 260 592 q 201 510 201 551 q 217 464 201 479 q 282 428 233 449 l 440 361 q 547 289 514 331 q 581 182 581 247 q 514 35 581 86 q 324 -17 447 -17 z "},"ś":{"ha":644,"x_min":74,"x_max":581,"o":"m 324 -17 q 136 38 199 -17 q 74 203 74 93 q 88 215 74 215 l 179 215 q 192 204 192 215 q 223 114 192 142 q 325 86 254 86 q 428 109 393 86 q 463 175 463 132 q 443 228 463 207 q 382 268 424 250 l 224 333 q 115 406 147 365 q 83 510 83 446 q 142 648 83 601 q 315 694 200 694 q 499 645 433 694 q 564 506 564 596 q 550 493 564 493 l 458 493 q 444 515 444 493 q 411 572 444 551 q 319 592 378 592 q 231 572 260 592 q 201 510 201 551 q 217 464 201 479 q 282 428 233 449 l 440 361 q 547 289 514 331 q 581 182 581 247 q 514 35 581 86 q 324 -17 447 -17 m 246 772 q 239 786 232 772 l 331 956 q 347 965 336 965 l 444 965 q 453 960 451 965 q 451 950 456 956 l 336 781 q 321 772 331 772 l 246 772 z "},"š":{"ha":644,"x_min":74,"x_max":581,"o":"m 324 -17 q 136 38 199 -17 q 74 203 74 93 q 88 215 74 215 l 179 215 q 192 204 192 215 q 223 114 192 142 q 325 86 254 86 q 428 109 393 86 q 463 175 463 132 q 443 228 463 207 q 382 268 424 250 l 224 333 q 115 406 147 365 q 83 510 83 446 q 142 648 83 601 q 315 694 200 694 q 499 645 433 694 q 564 506 564 596 q 550 493 564 493 l 458 493 q 444 515 444 493 q 411 572 444 551 q 319 592 378 592 q 231 572 260 592 q 201 510 201 551 q 217 464 201 479 q 282 428 233 449 l 440 361 q 547 289 514 331 q 581 182 581 247 q 514 35 581 86 q 324 -17 447 -17 m 307 767 l 146 858 q 136 876 136 864 l 136 947 q 151 953 136 961 l 317 871 l 482 953 q 497 947 497 961 l 497 876 q 488 858 497 864 l 326 767 q 307 767 317 760 z "},"ş":{"ha":644,"x_min":74,"x_max":581,"o":"m 324 -17 q 136 38 199 -17 q 74 203 74 93 q 88 215 74 215 l 179 215 q 192 204 192 215 q 223 114 192 142 q 325 86 254 86 q 428 109 393 86 q 463 175 463 132 q 443 228 463 207 q 382 268 424 250 l 224 333 q 115 406 147 365 q 83 510 83 446 q 142 648 83 601 q 315 694 200 694 q 499 645 433 694 q 564 506 564 596 q 550 493 564 493 l 458 493 q 444 515 444 493 q 411 572 444 551 q 319 592 378 592 q 231 572 260 592 q 201 510 201 551 q 217 464 201 479 q 282 428 233 449 l 440 361 q 547 289 514 331 q 581 182 581 247 q 514 35 581 86 q 324 -17 447 -17 m 308 -274 q 281 -272 294 -274 q 251 -268 267 -271 q 240 -257 240 -267 l 240 -206 q 251 -196 240 -194 q 272 -198 261 -197 q 290 -199 283 -199 q 334 -189 321 -199 q 347 -165 347 -179 l 347 -147 q 335 -119 347 -126 q 300 -111 324 -111 l 268 -111 q 258 -101 258 -111 q 259 -87 258 -94 q 261 -74 260 -79 l 293 31 q 306 39 296 39 l 372 39 q 379 24 383 39 l 354 -57 l 367 -57 q 422 -81 403 -57 q 440 -146 440 -106 l 440 -167 q 408 -248 440 -222 q 308 -274 375 -274 z "},"ș":{"ha":644,"x_min":74,"x_max":581,"o":"m 324 -17 q 136 38 199 -17 q 74 203 74 93 q 88 215 74 215 l 179 215 q 192 204 192 215 q 223 114 192 142 q 325 86 254 86 q 428 109 393 86 q 463 175 463 132 q 443 228 463 207 q 382 268 424 250 l 224 333 q 115 406 147 365 q 83 510 83 446 q 142 648 83 601 q 315 694 200 694 q 499 645 433 694 q 564 506 564 596 q 550 493 564 493 l 458 493 q 444 515 444 493 q 411 572 444 551 q 319 592 378 592 q 231 572 260 592 q 201 510 201 551 q 217 464 201 479 q 282 428 233 449 l 440 361 q 547 289 514 331 q 581 182 581 247 q 514 35 581 86 q 324 -17 447 -17 m 301 -321 q 293 -308 292 -321 l 315 -215 q 284 -194 293 -208 q 275 -158 275 -181 l 275 -135 q 292 -93 275 -108 q 336 -78 308 -78 q 388 -93 372 -78 q 404 -135 404 -108 l 404 -160 q 401 -195 404 -178 q 393 -229 399 -212 l 365 -312 q 351 -321 363 -321 l 301 -321 z "},"ß":{"ha":747,"x_min":104,"x_max":701,"o":"m 476 -17 q 364 1 408 -17 q 298 56 319 18 q 276 150 276 93 q 292 163 276 163 l 378 163 q 390 149 390 163 q 413 102 390 118 q 478 86 435 86 q 557 109 531 86 q 583 176 583 132 q 559 257 583 225 q 499 314 535 289 q 428 365 464 339 q 369 424 393 390 q 344 508 344 458 q 365 582 344 551 q 411 639 385 613 q 458 696 438 665 q 478 769 478 726 q 447 841 478 817 q 358 865 417 865 q 256 828 289 865 q 222 713 222 792 l 222 14 q 208 0 222 0 l 118 0 q 104 14 104 0 l 104 697 q 165 900 104 835 q 354 965 226 965 q 486 944 432 965 q 568 879 540 922 q 596 772 596 836 q 576 678 596 715 q 529 614 556 640 q 483 565 503 588 q 463 517 463 543 q 487 464 463 488 q 547 415 511 440 q 617 357 582 389 q 677 281 653 325 q 701 172 701 236 q 645 33 701 82 q 476 -17 589 -17 z "},"t":{"ha":535,"x_min":28,"x_max":489,"o":"m 342 -17 q 228 8 271 -17 q 167 81 186 32 q 149 201 149 129 l 149 576 l 42 576 q 28 590 28 576 l 28 664 q 42 678 28 678 l 151 678 l 167 844 q 182 858 168 858 l 251 858 q 265 844 265 858 l 267 678 l 474 678 q 488 664 488 678 l 488 590 q 474 576 488 576 l 267 576 l 267 204 q 290 113 267 139 q 368 86 313 86 q 424 92 396 86 q 472 108 451 99 q 489 99 489 115 l 489 22 q 478 7 489 11 q 419 -10 453 -3 q 342 -17 386 -17 z "},"ŧ":{"ha":535,"x_min":28,"x_max":489,"o":"m 54 365 q 40 379 40 365 l 40 449 q 54 463 40 463 l 149 463 l 267 463 l 454 463 q 468 449 468 463 l 468 379 q 454 365 468 365 l 54 365 m 342 -17 q 228 8 271 -17 q 167 81 186 32 q 149 201 149 129 l 149 576 l 42 576 q 28 590 28 576 l 28 664 q 42 678 28 678 l 151 678 l 167 844 q 182 858 168 858 l 251 858 q 265 844 265 858 l 267 678 l 474 678 q 488 664 488 678 l 488 590 q 474 576 488 576 l 267 576 l 267 204 q 290 113 267 139 q 368 86 313 86 q 424 92 396 86 q 472 108 451 99 q 489 99 489 115 l 489 22 q 478 7 489 11 q 419 -10 453 -3 q 342 -17 386 -17 z "},"ť":{"ha":538,"x_min":28,"x_max":489,"o":"m 342 -17 q 228 8 271 -17 q 167 81 186 32 q 149 201 149 129 l 149 576 l 42 576 q 28 590 28 576 l 28 664 q 42 678 28 678 l 151 678 l 167 844 q 182 858 168 858 l 251 858 q 265 844 265 858 l 267 678 l 474 678 q 488 664 488 678 l 488 590 q 474 576 488 576 l 267 576 l 267 204 q 290 113 267 139 q 368 86 313 86 q 424 92 396 86 q 472 108 451 99 q 489 99 489 115 l 489 22 q 478 7 489 11 q 419 -10 453 -3 q 342 -17 386 -17 m 381 733 q 368 749 365 733 l 388 828 q 356 847 365 835 q 347 881 347 858 l 347 915 q 364 951 347 938 q 408 965 381 965 q 460 951 444 965 q 476 915 476 938 l 476 879 q 474 846 476 861 q 465 814 472 831 l 440 744 q 424 733 436 733 l 381 733 z "},"ţ":{"ha":535,"x_min":28,"x_max":489,"o":"m 342 -17 q 228 8 271 -17 q 167 81 186 32 q 149 201 149 129 l 149 576 l 42 576 q 28 590 28 576 l 28 664 q 42 678 28 678 l 151 678 l 167 844 q 182 858 168 858 l 251 858 q 265 844 265 858 l 267 678 l 474 678 q 488 664 488 678 l 488 590 q 474 576 488 576 l 267 576 l 267 204 q 290 113 267 139 q 368 86 313 86 q 424 92 396 86 q 472 108 451 99 q 489 99 489 115 l 489 22 q 478 7 489 11 q 419 -10 453 -3 q 342 -17 386 -17 m 296 -274 q 268 -272 282 -274 q 239 -268 254 -271 q 228 -257 228 -267 l 228 -206 q 239 -196 228 -194 q 260 -198 249 -197 q 278 -199 271 -199 q 322 -189 308 -199 q 335 -165 335 -179 l 335 -147 q 323 -119 335 -126 q 288 -111 311 -111 l 256 -111 q 246 -101 246 -111 q 247 -87 246 -94 q 249 -74 247 -79 l 281 31 q 293 39 283 39 l 360 39 q 367 24 371 39 l 342 -57 l 354 -57 q 409 -81 390 -57 q 428 -146 428 -106 l 428 -167 q 395 -248 428 -222 q 296 -274 363 -274 z "},"ț":{"ha":535,"x_min":28,"x_max":489,"o":"m 342 -17 q 228 8 271 -17 q 167 81 186 32 q 149 201 149 129 l 149 576 l 42 576 q 28 590 28 576 l 28 664 q 42 678 28 678 l 151 678 l 167 844 q 182 858 168 858 l 251 858 q 265 844 265 858 l 267 678 l 474 678 q 488 664 488 678 l 488 590 q 474 576 488 576 l 267 576 l 267 204 q 290 113 267 139 q 368 86 313 86 q 424 92 396 86 q 472 108 451 99 q 489 99 489 115 l 489 22 q 478 7 489 11 q 419 -10 453 -3 q 342 -17 386 -17 m 289 -321 q 281 -308 279 -321 l 303 -215 q 272 -194 281 -208 q 263 -158 263 -181 l 263 -135 q 279 -93 263 -108 q 324 -78 296 -78 q 376 -93 360 -78 q 392 -135 392 -108 l 392 -160 q 389 -195 392 -178 q 381 -229 386 -212 l 353 -312 q 339 -321 350 -321 l 289 -321 z "},"u":{"ha":753,"x_min":104,"x_max":661,"o":"m 288 -17 q 151 43 199 -17 q 104 215 104 103 l 104 664 q 118 678 104 678 l 208 678 q 222 664 222 678 l 222 221 q 247 120 222 153 q 322 88 271 88 q 426 119 374 88 q 556 231 478 151 l 553 121 q 464 44 508 75 q 376 -1 419 14 q 288 -17 332 -17 m 565 0 q 549 14 550 0 q 542 68 544 40 q 538 125 539 96 l 531 183 l 531 664 q 544 678 531 678 l 635 678 q 649 664 649 678 l 649 169 q 651 92 649 132 q 658 14 653 51 q 643 0 661 0 l 565 0 z "},"ú":{"ha":753,"x_min":104,"x_max":661,"o":"m 288 -17 q 151 43 199 -17 q 104 215 104 103 l 104 664 q 118 678 104 678 l 208 678 q 222 664 222 678 l 222 221 q 247 120 222 153 q 322 88 271 88 q 426 119 374 88 q 556 231 478 151 l 553 121 q 464 44 508 75 q 376 -1 419 14 q 288 -17 332 -17 m 565 0 q 549 14 550 0 q 542 68 544 40 q 538 125 539 96 l 531 183 l 531 664 q 544 678 531 678 l 635 678 q 649 664 649 678 l 649 169 q 651 92 649 132 q 658 14 653 51 q 643 0 661 0 l 565 0 m 306 772 q 299 786 292 772 l 390 956 q 407 965 396 965 l 504 965 q 513 960 511 965 q 511 950 515 956 l 396 781 q 381 772 390 772 l 306 772 z "},"û":{"ha":753,"x_min":104,"x_max":661,"o":"m 288 -17 q 151 43 199 -17 q 104 215 104 103 l 104 664 q 118 678 104 678 l 208 678 q 222 664 222 678 l 222 221 q 247 120 222 153 q 322 88 271 88 q 426 119 374 88 q 556 231 478 151 l 553 121 q 464 44 508 75 q 376 -1 419 14 q 288 -17 332 -17 m 565 0 q 549 14 550 0 q 542 68 544 40 q 538 125 539 96 l 531 183 l 531 664 q 544 678 531 678 l 635 678 q 649 664 649 678 l 649 169 q 651 92 649 132 q 658 14 653 51 q 643 0 661 0 l 565 0 m 211 767 q 196 772 196 758 l 196 843 q 206 861 196 856 l 367 953 q 386 953 376 960 l 547 861 q 557 843 557 856 l 557 772 q 542 767 557 758 l 376 849 l 211 767 z "},"ü":{"ha":753,"x_min":104,"x_max":661,"o":"m 288 -17 q 151 43 199 -17 q 104 215 104 103 l 104 664 q 118 678 104 678 l 208 678 q 222 664 222 678 l 222 221 q 247 120 222 153 q 322 88 271 88 q 426 119 374 88 q 556 231 478 151 l 553 121 q 464 44 508 75 q 376 -1 419 14 q 288 -17 332 -17 m 565 0 q 549 14 550 0 q 542 68 544 40 q 538 125 539 96 l 531 183 l 531 664 q 544 678 531 678 l 635 678 q 649 664 649 678 l 649 169 q 651 92 649 132 q 658 14 653 51 q 643 0 661 0 l 565 0 m 258 792 q 203 812 219 792 q 186 863 186 832 l 186 876 q 203 928 186 908 q 258 947 219 947 q 314 928 297 947 q 331 876 331 908 l 331 863 q 314 812 331 832 q 258 792 297 792 m 493 792 q 438 812 454 792 q 421 863 421 832 l 421 876 q 438 928 421 908 q 493 947 454 947 q 549 928 532 947 q 565 876 565 908 l 565 863 q 549 812 565 832 q 493 792 532 792 z "},"ù":{"ha":753,"x_min":104,"x_max":661,"o":"m 288 -17 q 151 43 199 -17 q 104 215 104 103 l 104 664 q 118 678 104 678 l 208 678 q 222 664 222 678 l 222 221 q 247 120 222 153 q 322 88 271 88 q 426 119 374 88 q 556 231 478 151 l 553 121 q 464 44 508 75 q 376 -1 419 14 q 288 -17 332 -17 m 565 0 q 549 14 550 0 q 542 68 544 40 q 538 125 539 96 l 531 183 l 531 664 q 544 678 531 678 l 635 678 q 649 664 649 678 l 649 169 q 651 92 649 132 q 658 14 653 51 q 643 0 661 0 l 565 0 m 371 772 q 356 781 361 772 l 240 950 q 238 960 236 956 q 247 965 240 965 l 344 965 q 361 956 357 965 l 453 786 q 446 772 460 772 l 371 772 z "},"ű":{"ha":753,"x_min":104,"x_max":661,"o":"m 288 -17 q 151 43 199 -17 q 104 215 104 103 l 104 664 q 118 678 104 678 l 208 678 q 222 664 222 678 l 222 221 q 247 120 222 153 q 322 88 271 88 q 426 119 374 88 q 556 231 478 151 l 553 121 q 464 44 508 75 q 376 -1 419 14 q 288 -17 332 -17 m 565 0 q 549 14 550 0 q 542 68 544 40 q 538 125 539 96 l 531 183 l 531 664 q 544 678 531 678 l 635 678 q 649 664 649 678 l 649 169 q 651 92 649 132 q 658 14 653 51 q 643 0 661 0 l 565 0 m 226 772 q 218 788 211 772 l 289 954 q 304 965 293 965 l 397 965 q 404 949 414 965 l 317 782 q 301 772 311 772 l 226 772 m 413 772 q 404 788 397 772 l 475 954 q 490 965 479 965 l 583 965 q 590 949 600 965 l 503 782 q 488 772 497 772 l 413 772 z "},"ū":{"ha":753,"x_min":104,"x_max":661,"o":"m 288 -17 q 151 43 199 -17 q 104 215 104 103 l 104 664 q 118 678 104 678 l 208 678 q 222 664 222 678 l 222 221 q 247 120 222 153 q 322 88 271 88 q 426 119 374 88 q 556 231 478 151 l 553 121 q 464 44 508 75 q 376 -1 419 14 q 288 -17 332 -17 m 565 0 q 549 14 550 0 q 542 68 544 40 q 538 125 539 96 l 531 183 l 531 664 q 544 678 531 678 l 635 678 q 649 664 649 678 l 649 169 q 651 92 649 132 q 658 14 653 51 q 643 0 661 0 l 565 0 m 240 792 q 226 806 226 792 l 226 878 q 240 892 226 892 l 511 892 q 525 878 525 892 l 525 806 q 511 792 525 792 l 240 792 z "},"ų":{"ha":753,"x_min":104,"x_max":674,"o":"m 288 -17 q 151 43 199 -17 q 104 215 104 103 l 104 664 q 118 678 104 678 l 208 678 q 222 664 222 678 l 222 221 q 247 120 222 153 q 322 88 271 88 q 426 119 374 88 q 556 231 478 151 l 553 121 q 464 44 508 75 q 376 -1 419 14 q 288 -17 332 -17 m 565 0 q 549 14 550 0 q 542 68 544 40 q 538 125 539 96 l 531 183 l 531 664 q 544 678 531 678 l 635 678 q 649 664 649 678 l 649 169 q 651 92 649 132 q 658 14 653 51 q 643 0 661 0 l 565 0 m 607 -274 q 503 -242 536 -274 q 469 -161 469 -211 l 469 -144 q 511 -40 469 -87 q 622 32 553 8 l 650 17 l 650 1 q 590 -51 611 -18 q 569 -121 569 -85 l 569 -135 q 626 -186 569 -186 q 645 -186 638 -186 q 661 -185 653 -186 q 674 -194 674 -183 l 674 -256 q 672 -265 674 -261 q 663 -269 669 -268 q 634 -272 649 -271 q 607 -274 619 -274 z "},"ů":{"ha":753,"x_min":104,"x_max":661,"o":"m 288 -17 q 151 43 199 -17 q 104 215 104 103 l 104 664 q 118 678 104 678 l 208 678 q 222 664 222 678 l 222 221 q 247 120 222 153 q 322 88 271 88 q 426 119 374 88 q 556 231 478 151 l 553 121 q 464 44 508 75 q 376 -1 419 14 q 288 -17 332 -17 m 565 0 q 549 14 550 0 q 542 68 544 40 q 538 125 539 96 l 531 183 l 531 664 q 544 678 531 678 l 635 678 q 649 664 649 678 l 649 169 q 651 92 649 132 q 658 14 653 51 q 643 0 661 0 l 565 0 m 376 765 q 265 800 307 765 q 222 899 222 835 q 264 998 222 964 q 376 1032 306 1032 q 488 998 446 1032 q 531 899 531 964 q 489 800 531 835 q 376 765 447 765 m 376 835 q 431 853 415 835 q 447 899 447 871 q 431 944 447 926 q 376 963 415 963 q 322 944 338 963 q 306 899 306 926 q 322 853 306 871 q 376 835 338 835 z "},"v":{"ha":689,"x_min":32,"x_max":657,"o":"m 279 0 q 263 11 267 0 l 36 663 q 47 678 32 678 l 143 678 q 160 667 156 678 l 283 278 q 314 183 299 231 q 343 86 329 135 l 346 86 q 375 182 360 135 q 406 276 390 229 l 529 667 q 546 678 533 678 l 642 678 q 653 663 657 678 l 425 11 q 408 0 421 0 l 279 0 z "},"w":{"ha":994,"x_min":32,"x_max":963,"o":"m 253 0 q 238 13 242 0 l 36 663 q 47 678 32 678 l 144 678 q 160 665 156 678 l 269 282 q 294 193 282 238 q 319 104 307 149 l 322 104 q 350 190 336 147 q 378 276 364 233 l 453 508 l 411 649 q 422 664 407 664 l 510 664 q 525 653 522 664 l 628 275 q 650 190 639 232 q 672 104 661 147 l 675 104 q 699 192 688 149 q 724 279 711 236 l 835 665 q 850 678 839 678 l 947 678 q 958 663 963 678 l 756 13 q 740 0 751 0 l 614 0 q 599 11 603 0 l 556 153 q 529 249 542 200 q 503 353 517 297 l 500 353 q 472 250 486 297 q 442 157 457 203 l 394 11 q 379 0 390 0 l 253 0 z "},"ẃ":{"ha":994,"x_min":32,"x_max":963,"o":"m 253 0 q 238 13 242 0 l 36 663 q 47 678 32 678 l 144 678 q 160 665 156 678 l 269 282 q 294 193 282 238 q 319 104 307 149 l 322 104 q 350 190 336 147 q 378 276 364 233 l 453 508 l 411 649 q 422 664 407 664 l 510 664 q 525 653 522 664 l 628 275 q 650 190 639 232 q 672 104 661 147 l 675 104 q 699 192 688 149 q 724 279 711 236 l 835 665 q 850 678 839 678 l 947 678 q 958 663 963 678 l 756 13 q 740 0 751 0 l 614 0 q 599 11 603 0 l 556 153 q 529 249 542 200 q 503 353 517 297 l 500 353 q 472 250 486 297 q 442 157 457 203 l 394 11 q 379 0 390 0 l 253 0 m 426 772 q 419 786 413 772 l 511 956 q 528 965 517 965 l 625 965 q 634 960 632 965 q 632 950 636 956 l 517 781 q 501 772 511 772 l 426 772 z "},"ŵ":{"ha":994,"x_min":32,"x_max":963,"o":"m 253 0 q 238 13 242 0 l 36 663 q 47 678 32 678 l 144 678 q 160 665 156 678 l 269 282 q 294 193 282 238 q 319 104 307 149 l 322 104 q 350 190 336 147 q 378 276 364 233 l 453 508 l 411 649 q 422 664 407 664 l 510 664 q 525 653 522 664 l 628 275 q 650 190 639 232 q 672 104 661 147 l 675 104 q 699 192 688 149 q 724 279 711 236 l 835 665 q 850 678 839 678 l 947 678 q 958 663 963 678 l 756 13 q 740 0 751 0 l 614 0 q 599 11 603 0 l 556 153 q 529 249 542 200 q 503 353 517 297 l 500 353 q 472 250 486 297 q 442 157 457 203 l 394 11 q 379 0 390 0 l 253 0 m 332 767 q 317 772 317 758 l 317 843 q 326 861 317 856 l 488 953 q 507 953 497 960 l 668 861 q 678 843 678 856 l 678 772 q 663 767 678 758 l 497 849 l 332 767 z "},"ẅ":{"ha":994,"x_min":32,"x_max":963,"o":"m 253 0 q 238 13 242 0 l 36 663 q 47 678 32 678 l 144 678 q 160 665 156 678 l 269 282 q 294 193 282 238 q 319 104 307 149 l 322 104 q 350 190 336 147 q 378 276 364 233 l 453 508 l 411 649 q 422 664 407 664 l 510 664 q 525 653 522 664 l 628 275 q 650 190 639 232 q 672 104 661 147 l 675 104 q 699 192 688 149 q 724 279 711 236 l 835 665 q 850 678 839 678 l 947 678 q 958 663 963 678 l 756 13 q 740 0 751 0 l 614 0 q 599 11 603 0 l 556 153 q 529 249 542 200 q 503 353 517 297 l 500 353 q 472 250 486 297 q 442 157 457 203 l 394 11 q 379 0 390 0 l 253 0 m 379 792 q 324 812 340 792 q 307 863 307 832 l 307 876 q 324 928 307 908 q 379 947 340 947 q 435 928 418 947 q 451 876 451 908 l 451 863 q 435 812 451 832 q 379 792 418 792 m 614 792 q 558 812 575 792 q 542 863 542 832 l 542 876 q 558 928 542 908 q 614 947 575 947 q 669 928 653 947 q 686 876 686 908 l 686 863 q 669 812 686 832 q 614 792 653 792 z "},"ẁ":{"ha":994,"x_min":32,"x_max":963,"o":"m 253 0 q 238 13 242 0 l 36 663 q 47 678 32 678 l 144 678 q 160 665 156 678 l 269 282 q 294 193 282 238 q 319 104 307 149 l 322 104 q 350 190 336 147 q 378 276 364 233 l 453 508 l 411 649 q 422 664 407 664 l 510 664 q 525 653 522 664 l 628 275 q 650 190 639 232 q 672 104 661 147 l 675 104 q 699 192 688 149 q 724 279 711 236 l 835 665 q 850 678 839 678 l 947 678 q 958 663 963 678 l 756 13 q 740 0 751 0 l 614 0 q 599 11 603 0 l 556 153 q 529 249 542 200 q 503 353 517 297 l 500 353 q 472 250 486 297 q 442 157 457 203 l 394 11 q 379 0 390 0 l 253 0 m 492 772 q 476 781 482 772 l 361 950 q 359 960 357 956 q 368 965 361 965 l 465 965 q 482 956 478 965 l 574 786 q 567 772 581 772 l 492 772 z "},"x":{"ha":663,"x_min":11,"x_max":651,"o":"m 25 0 q 14 6 17 0 q 17 17 11 11 l 257 349 l 33 661 q 31 673 28 668 q 42 678 33 678 l 150 678 q 167 669 161 678 l 264 529 q 298 479 281 506 q 331 429 315 453 l 332 429 q 369 483 350 456 q 407 538 389 511 l 500 669 q 517 678 506 678 l 618 678 q 629 673 626 678 q 626 661 632 668 l 403 353 l 646 17 q 649 6 651 11 q 638 0 646 0 l 529 0 q 513 8 518 0 l 419 139 q 374 204 397 171 q 329 269 351 238 l 328 269 q 285 204 307 238 q 240 139 263 171 l 149 8 q 132 0 143 0 l 25 0 z "},"y":{"ha":690,"x_min":26,"x_max":665,"o":"m 201 -257 q 192 -240 185 -257 l 290 8 l 33 661 q 43 678 26 678 l 142 678 q 157 667 153 678 l 282 331 q 315 242 299 288 q 346 151 331 196 l 347 151 q 380 242 363 196 q 413 331 397 288 l 538 667 q 554 678 542 678 l 647 678 q 658 661 665 678 l 307 -246 q 292 -257 303 -257 l 201 -257 z "},"ý":{"ha":690,"x_min":26,"x_max":665,"o":"m 201 -257 q 192 -240 185 -257 l 290 8 l 33 661 q 43 678 26 678 l 142 678 q 157 667 153 678 l 282 331 q 315 242 299 288 q 346 151 331 196 l 347 151 q 380 242 363 196 q 413 331 397 288 l 538 667 q 554 678 542 678 l 647 678 q 658 661 665 678 l 307 -246 q 292 -257 303 -257 l 201 -257 m 271 772 q 264 786 257 772 l 356 956 q 372 965 361 965 l 469 965 q 478 960 476 965 q 476 950 481 956 l 361 781 q 346 772 356 772 l 271 772 z "},"ŷ":{"ha":690,"x_min":26,"x_max":665,"o":"m 201 -257 q 192 -240 185 -257 l 290 8 l 33 661 q 43 678 26 678 l 142 678 q 157 667 153 678 l 282 331 q 315 242 299 288 q 346 151 331 196 l 347 151 q 380 242 363 196 q 413 331 397 288 l 538 667 q 554 678 542 678 l 647 678 q 658 661 665 678 l 307 -246 q 292 -257 303 -257 l 201 -257 m 176 767 q 161 772 161 758 l 161 843 q 171 861 161 856 l 332 953 q 351 953 342 960 l 513 861 q 522 843 522 856 l 522 772 q 507 767 522 758 l 342 849 l 176 767 z "},"ÿ":{"ha":690,"x_min":26,"x_max":665,"o":"m 201 -257 q 192 -240 185 -257 l 290 8 l 33 661 q 43 678 26 678 l 142 678 q 157 667 153 678 l 282 331 q 315 242 299 288 q 346 151 331 196 l 347 151 q 380 242 363 196 q 413 331 397 288 l 538 667 q 554 678 542 678 l 647 678 q 658 661 665 678 l 307 -246 q 292 -257 303 -257 l 201 -257 m 224 792 q 168 812 185 792 q 151 863 151 832 l 151 876 q 168 928 151 908 q 224 947 185 947 q 279 928 263 947 q 296 876 296 908 l 296 863 q 279 812 296 832 q 224 792 263 792 m 458 792 q 403 812 419 792 q 386 863 386 832 l 386 876 q 403 928 386 908 q 458 947 419 947 q 514 928 497 947 q 531 876 531 908 l 531 863 q 514 812 531 832 q 458 792 497 792 z "},"ỳ":{"ha":690,"x_min":26,"x_max":665,"o":"m 201 -257 q 192 -240 185 -257 l 290 8 l 33 661 q 43 678 26 678 l 142 678 q 157 667 153 678 l 282 331 q 315 242 299 288 q 346 151 331 196 l 347 151 q 380 242 363 196 q 413 331 397 288 l 538 667 q 554 678 542 678 l 647 678 q 658 661 665 678 l 307 -246 q 292 -257 303 -257 l 201 -257 m 336 772 q 321 781 326 772 l 206 950 q 203 960 201 956 q 213 965 206 965 l 310 965 q 326 956 322 965 l 418 786 q 411 772 425 772 l 336 772 z "},"z":{"ha":644,"x_min":35,"x_max":610,"o":"m 49 0 q 35 13 35 0 l 35 15 q 40 33 35 26 l 344 463 q 384 519 364 490 q 425 575 404 547 l 425 576 q 347 576 386 576 q 267 576 307 576 l 81 576 q 67 590 67 576 l 67 664 q 81 678 67 678 l 596 678 q 610 665 610 678 l 610 663 q 608 653 610 657 q 604 644 607 649 l 308 228 q 265 166 286 197 q 219 103 243 135 l 219 101 q 290 101 256 101 q 360 101 325 101 l 581 101 q 594 88 594 101 l 594 14 q 581 0 594 0 l 49 0 z "},"ź":{"ha":644,"x_min":35,"x_max":610,"o":"m 49 0 q 35 13 35 0 l 35 15 q 40 33 35 26 l 344 463 q 384 519 364 490 q 425 575 404 547 l 425 576 q 347 576 386 576 q 267 576 307 576 l 81 576 q 67 590 67 576 l 67 664 q 81 678 67 678 l 596 678 q 610 665 610 678 l 610 663 q 608 653 610 657 q 604 644 607 649 l 308 228 q 265 166 286 197 q 219 103 243 135 l 219 101 q 290 101 256 101 q 360 101 325 101 l 581 101 q 594 88 594 101 l 594 14 q 581 0 594 0 l 49 0 m 268 772 q 261 786 254 772 l 353 956 q 369 965 358 965 l 467 965 q 476 960 474 965 q 474 950 478 956 l 358 781 q 343 772 353 772 l 268 772 z "},"ž":{"ha":644,"x_min":35,"x_max":610,"o":"m 49 0 q 35 13 35 0 l 35 15 q 40 33 35 26 l 344 463 q 384 519 364 490 q 425 575 404 547 l 425 576 q 347 576 386 576 q 267 576 307 576 l 81 576 q 67 590 67 576 l 67 664 q 81 678 67 678 l 596 678 q 610 665 610 678 l 610 663 q 608 653 610 657 q 604 644 607 649 l 308 228 q 265 166 286 197 q 219 103 243 135 l 219 101 q 290 101 256 101 q 360 101 325 101 l 581 101 q 594 88 594 101 l 594 14 q 581 0 594 0 l 49 0 m 329 767 l 168 858 q 158 876 158 864 l 158 947 q 174 953 158 961 l 339 871 l 504 953 q 519 947 519 961 l 519 876 q 510 858 519 864 l 349 767 q 329 767 339 760 z "},"ż":{"ha":644,"x_min":35,"x_max":610,"o":"m 49 0 q 35 13 35 0 l 35 15 q 40 33 35 26 l 344 463 q 384 519 364 490 q 425 575 404 547 l 425 576 q 347 576 386 576 q 267 576 307 576 l 81 576 q 67 590 67 576 l 67 664 q 81 678 67 678 l 596 678 q 610 665 610 678 l 610 663 q 608 653 610 657 q 604 644 607 649 l 308 228 q 265 166 286 197 q 219 103 243 135 l 219 101 q 290 101 256 101 q 360 101 325 101 l 581 101 q 594 88 594 101 l 594 14 q 581 0 594 0 l 49 0 m 339 792 q 281 813 299 792 q 263 868 263 835 l 263 882 q 281 937 263 915 q 339 958 299 958 q 397 937 379 958 q 415 882 415 915 l 415 868 q 397 813 415 835 q 339 792 379 792 z "},"ﬀ":{"ha":1013,"x_min":28,"x_max":1026,"o":"m 163 0 q 153 4 157 0 q 149 14 149 8 l 149 576 l 42 576 q 32 581 36 576 q 28 590 28 585 l 28 664 q 32 674 28 671 q 42 678 36 678 l 149 678 l 149 750 q 209 909 149 853 q 375 965 269 965 q 440 959 407 965 q 497 943 474 953 q 524 919 524 933 l 524 846 q 517 835 524 838 q 492 840 511 832 q 439 856 469 850 q 383 863 408 863 q 297 833 326 863 q 267 747 267 804 l 267 678 l 468 678 q 482 664 482 678 l 482 590 q 478 581 482 585 q 468 576 475 576 l 267 576 l 267 14 q 263 4 267 8 q 253 0 260 0 l 163 0 m 665 0 q 656 4 660 0 q 651 14 651 8 l 651 576 l 544 576 q 535 581 539 576 q 531 590 531 585 l 531 664 q 535 674 531 671 q 544 678 539 678 l 651 678 l 651 750 q 712 909 651 853 q 878 965 772 965 q 943 959 910 965 q 1000 943 976 953 q 1026 919 1026 933 l 1026 846 q 1020 835 1026 838 q 994 840 1014 832 q 942 856 972 850 q 886 863 911 863 q 799 833 829 863 q 769 747 769 804 l 769 678 l 971 678 q 985 664 985 678 l 985 590 q 981 581 985 585 q 971 576 978 576 l 769 576 l 769 14 q 766 4 769 8 q 756 0 763 0 l 665 0 z "},"ﬁ":{"ha":789,"x_min":28,"x_max":685,"o":"m 163 0 q 153 4 157 0 q 149 14 149 8 l 149 576 l 42 576 q 32 581 36 576 q 28 590 28 585 l 28 664 q 32 674 28 671 q 42 678 36 678 l 149 678 l 149 742 q 210 910 149 856 q 403 965 272 965 q 482 960 439 965 q 554 950 525 956 q 567 935 567 949 l 567 861 q 551 849 567 846 q 475 863 513 857 q 401 868 438 868 q 301 842 335 868 q 267 763 267 817 l 267 678 l 671 678 q 685 664 685 678 l 685 14 q 671 0 685 0 l 581 0 q 567 14 567 0 l 567 576 l 267 576 l 267 14 q 263 4 267 8 q 253 0 260 0 l 163 0 z "},"ﬂ":{"ha":789,"x_min":28,"x_max":685,"o":"m 163 0 q 153 4 157 0 q 149 14 149 8 l 149 576 l 42 576 q 32 581 36 576 q 28 590 28 585 l 28 664 q 32 674 28 671 q 42 678 36 678 l 149 678 l 149 742 q 214 913 149 861 q 403 965 279 965 q 504 958 456 965 q 582 946 553 950 l 671 949 q 685 935 685 949 l 685 14 q 671 0 685 0 l 581 0 q 567 14 567 0 l 567 849 q 484 862 528 856 q 400 868 440 868 q 301 842 336 868 q 267 763 267 817 l 267 678 l 408 678 q 419 674 415 678 q 422 664 422 671 l 422 590 q 419 581 422 585 q 408 576 415 576 l 267 576 l 267 14 q 263 4 267 8 q 253 0 260 0 l 163 0 z "},"ª":{"ha":547,"x_min":76,"x_max":471,"o":"m 200 447 q 110 481 143 447 q 76 579 76 515 q 126 691 76 656 q 288 736 175 726 l 360 743 l 360 764 q 342 822 360 804 q 278 839 324 839 q 194 792 194 839 q 179 778 194 778 l 117 778 q 100 797 101 778 q 144 889 94 851 q 281 926 194 926 q 412 887 367 926 q 457 765 457 847 l 457 576 q 459 518 457 543 q 464 474 461 493 q 449 457 467 457 l 388 457 q 376 463 379 457 q 371 475 372 469 q 368 494 369 481 q 364 524 367 508 q 281 465 321 482 q 200 447 240 447 m 97 283 q 83 297 83 283 l 83 357 q 97 371 83 371 l 457 371 q 471 357 471 371 l 471 297 q 457 283 471 283 l 97 283 m 222 531 q 285 549 249 531 q 360 603 321 567 l 360 671 l 289 664 q 197 640 222 658 q 172 586 172 622 q 185 543 172 556 q 222 531 199 531 z "},"º":{"ha":558,"x_min":76,"x_max":482,"o":"m 278 447 q 130 502 183 447 q 76 653 76 557 l 76 721 q 130 872 76 817 q 278 926 183 926 q 428 872 374 926 q 482 721 482 817 l 482 653 q 428 502 482 557 q 278 447 374 447 m 99 283 q 85 297 85 283 l 85 357 q 99 371 85 371 l 458 371 q 472 357 472 371 l 472 297 q 458 283 472 283 l 99 283 m 278 535 q 357 565 329 535 q 385 646 385 594 l 385 729 q 357 810 385 782 q 278 839 329 839 q 201 810 228 839 q 174 729 174 782 l 174 646 q 201 564 174 593 q 278 535 228 535 z "},"А":{"ha":778,"x_min":-3,"x_max":781,"o":"m 13 0 q 1 15 -3 0 l 308 899 q 325 910 313 910 l 449 910 q 465 899 461 910 l 776 15 q 765 0 781 0 l 667 0 q 650 11 654 0 l 442 636 q 414 719 428 678 q 385 803 400 761 l 383 803 q 356 722 369 763 q 328 640 342 681 l 122 11 q 106 0 118 0 l 13 0 m 167 213 l 196 315 l 574 315 l 604 213 l 167 213 z "},"Б":{"ha":786,"x_min":118,"x_max":724,"o":"m 132 0 q 118 14 118 0 l 118 896 q 132 910 118 910 l 611 910 q 625 896 625 910 l 625 817 q 611 803 625 803 l 236 803 l 236 558 l 389 558 q 639 490 554 558 q 724 286 724 422 q 637 74 724 147 q 385 0 550 0 l 132 0 m 236 100 l 379 100 q 550 147 494 100 q 606 288 606 193 q 553 418 606 378 q 383 458 500 458 l 236 458 l 236 100 z "},"В":{"ha":796,"x_min":118,"x_max":733,"o":"m 132 0 q 118 14 118 0 l 118 896 q 132 910 118 910 l 379 910 q 616 853 538 910 q 694 682 694 797 q 658 560 694 607 q 540 483 622 514 l 540 481 q 685 404 638 463 q 733 250 733 346 q 648 61 733 122 q 381 0 563 0 l 132 0 m 236 103 l 379 103 q 561 139 507 103 q 615 258 615 175 q 560 384 615 344 q 383 424 506 424 l 236 424 l 236 103 m 236 519 l 374 519 q 528 555 479 519 q 576 667 576 590 q 527 776 576 744 q 361 808 478 808 l 236 808 l 236 519 z "},"Г":{"ha":660,"x_min":118,"x_max":618,"o":"m 132 0 q 118 14 118 0 l 118 896 q 132 910 118 910 l 604 910 q 618 896 618 910 l 618 817 q 604 803 618 803 l 236 803 l 236 14 q 222 0 236 0 l 132 0 z "},"Ѓ":{"ha":660,"x_min":118,"x_max":618,"o":"m 132 0 q 118 14 118 0 l 118 896 q 132 910 118 910 l 604 910 q 618 896 618 910 l 618 817 q 604 803 618 803 l 236 803 l 236 14 q 222 0 236 0 l 132 0 m 317 986 q 308 990 310 986 q 310 1000 307 994 l 388 1142 q 401 1151 393 1151 l 503 1151 q 512 1147 510 1151 q 510 1135 514 1142 l 410 994 q 394 986 404 986 l 317 986 z "},"Ґ":{"ha":660,"x_min":118,"x_max":618,"o":"m 132 0 q 118 14 118 0 l 118 896 q 132 910 118 910 l 604 910 q 618 896 618 910 l 618 817 q 604 803 618 803 l 236 803 l 236 14 q 222 0 236 0 l 132 0 m 504 818 l 504 1085 q 508 1095 504 1092 q 518 1099 513 1099 l 604 1099 q 615 1095 611 1099 q 618 1085 618 1092 l 618 818 l 504 818 z "},"Д":{"ha":833,"x_min":0,"x_max":833,"o":"m 161 11 l 43 15 l 336 899 q 353 910 340 910 l 476 910 q 493 899 489 910 l 789 15 l 665 11 l 490 564 q 452 683 472 624 q 413 803 432 743 l 411 803 q 372 681 392 742 q 333 558 353 619 l 161 11 m 14 -181 q 4 -176 8 -181 q 0 -167 0 -172 l 0 93 q 4 103 0 100 q 14 107 8 107 l 819 107 q 830 103 826 107 q 833 93 833 100 l 833 -167 q 830 -176 833 -172 q 819 -181 826 -181 l 729 -181 q 719 -176 724 -181 q 715 -167 715 -172 l 715 0 l 118 0 l 118 -167 q 115 -176 118 -172 q 104 -181 111 -181 l 14 -181 z "},"Е":{"ha":740,"x_min":118,"x_max":640,"o":"m 132 0 q 118 14 118 0 l 118 896 q 132 910 118 910 l 626 910 q 640 896 640 910 l 640 817 q 626 803 640 803 l 236 803 l 236 514 l 593 514 q 607 500 607 514 l 607 425 q 593 411 607 411 l 236 411 l 236 107 l 626 107 q 640 93 640 107 l 640 14 q 626 0 640 0 l 132 0 z "},"Ѐ":{"ha":740,"x_min":118,"x_max":640,"o":"m 132 0 q 118 14 118 0 l 118 896 q 132 910 118 910 l 626 910 q 640 896 640 910 l 640 817 q 626 803 640 803 l 236 803 l 236 514 l 593 514 q 607 500 607 514 l 607 425 q 593 411 607 411 l 236 411 l 236 107 l 626 107 q 640 93 640 107 l 640 14 q 626 0 640 0 l 132 0 m 376 986 q 361 994 367 986 l 261 1135 q 259 1147 257 1142 q 268 1151 261 1151 l 369 1151 q 383 1142 379 1151 l 461 1000 q 463 990 464 994 q 454 986 461 986 l 376 986 z "},"Ё":{"ha":740,"x_min":118,"x_max":640,"o":"m 132 0 q 118 14 118 0 l 118 896 q 132 910 118 910 l 626 910 q 640 896 640 910 l 640 817 q 626 803 640 803 l 236 803 l 236 514 l 593 514 q 607 500 607 514 l 607 425 q 593 411 607 411 l 236 411 l 236 107 l 626 107 q 640 93 640 107 l 640 14 q 626 0 640 0 l 132 0 m 272 988 q 217 1008 233 988 q 200 1058 200 1028 l 200 1072 q 217 1124 200 1104 q 272 1143 233 1143 q 328 1124 311 1143 q 344 1072 344 1104 l 344 1058 q 328 1008 344 1028 q 272 988 311 988 m 506 988 q 450 1008 467 988 q 433 1058 433 1028 l 433 1072 q 450 1124 433 1104 q 506 1143 467 1143 q 561 1124 544 1143 q 578 1072 578 1104 l 578 1058 q 561 1008 578 1028 q 506 988 544 988 z "},"Ж":{"ha":1190,"x_min":39,"x_max":1151,"o":"m 54 0 q 43 5 47 0 q 43 17 39 10 l 288 469 l 57 893 q 57 905 53 900 q 68 910 61 910 l 164 910 q 174 908 169 910 q 181 900 179 906 l 390 515 l 536 515 l 536 896 q 550 910 536 910 l 640 910 q 654 896 654 910 l 654 515 l 804 515 l 1015 900 q 1022 908 1018 906 q 1032 910 1026 910 l 1122 910 q 1133 905 1129 910 q 1133 893 1138 900 l 903 469 l 1147 17 q 1147 5 1151 10 q 1136 0 1143 0 l 1032 0 q 1015 10 1021 0 l 800 410 l 654 410 l 654 14 q 640 0 654 0 l 550 0 q 536 14 536 0 l 536 410 l 389 410 l 174 10 q 157 0 168 0 l 54 0 z "},"З":{"ha":801,"x_min":76,"x_max":725,"o":"m 376 -17 q 151 42 225 -17 q 76 224 76 101 q 81 234 76 231 q 90 238 85 238 l 181 238 q 193 224 193 238 q 235 119 193 151 q 375 88 278 88 q 551 128 494 88 q 607 257 607 168 q 554 372 607 335 q 381 408 501 408 l 247 408 q 233 422 233 408 l 233 497 q 247 511 233 511 l 361 511 q 523 550 472 511 q 574 674 574 589 q 527 787 574 751 q 379 822 481 822 q 244 790 286 822 q 201 685 201 758 q 189 671 201 671 l 99 671 q 89 675 93 671 q 85 685 85 679 q 160 864 85 801 q 388 926 236 926 q 615 867 539 926 q 692 692 692 808 q 649 551 692 608 q 531 471 606 494 l 531 469 q 676 399 628 451 q 725 258 725 346 q 639 56 725 128 q 376 -17 553 -17 z "},"И":{"ha":914,"x_min":118,"x_max":796,"o":"m 132 0 q 118 14 118 0 l 118 896 q 132 910 118 910 l 219 910 q 233 896 233 910 l 233 463 q 232 321 233 376 q 228 228 231 265 q 225 160 226 192 l 228 160 q 265 228 246 192 q 317 319 285 264 q 401 463 349 375 l 664 900 q 681 910 671 910 l 782 910 q 796 896 796 910 l 796 14 q 782 0 796 0 l 694 0 q 681 14 681 0 l 681 431 q 684 620 681 536 q 690 751 688 704 l 688 751 q 651 684 671 721 q 597 588 631 647 q 503 431 563 529 l 250 10 q 233 0 243 0 l 132 0 z "},"Й":{"ha":914,"x_min":118,"x_max":796,"o":"m 132 0 q 118 14 118 0 l 118 896 q 132 910 118 910 l 219 910 q 233 896 233 910 l 233 463 q 232 321 233 376 q 228 228 231 265 q 225 160 226 192 l 228 160 q 265 228 246 192 q 317 319 285 264 q 401 463 349 375 l 664 900 q 681 910 671 910 l 782 910 q 796 896 796 910 l 796 14 q 782 0 796 0 l 694 0 q 681 14 681 0 l 681 431 q 684 620 681 536 q 690 751 688 704 l 688 751 q 651 684 671 721 q 597 588 631 647 q 503 431 563 529 l 250 10 q 233 0 243 0 l 132 0 m 457 994 q 344 1016 394 994 q 275 1050 293 1038 q 267 1067 267 1057 l 267 1143 q 271 1154 267 1151 q 282 1153 275 1157 q 356 1116 308 1139 q 457 1093 404 1093 q 558 1116 510 1093 q 632 1153 606 1139 q 643 1154 639 1157 q 647 1143 647 1151 l 647 1067 q 639 1050 647 1057 q 570 1016 621 1038 q 457 994 519 994 z "},"Ѝ":{"ha":914,"x_min":118,"x_max":796,"o":"m 132 0 q 118 14 118 0 l 118 896 q 132 910 118 910 l 219 910 q 233 896 233 910 l 233 463 q 232 321 233 376 q 228 228 231 265 q 225 160 226 192 l 228 160 q 265 228 246 192 q 317 319 285 264 q 401 463 349 375 l 664 900 q 681 910 671 910 l 782 910 q 796 896 796 910 l 796 14 q 782 0 796 0 l 694 0 q 681 14 681 0 l 681 431 q 684 620 681 536 q 690 751 688 704 l 688 751 q 651 684 671 721 q 597 588 631 647 q 503 431 563 529 l 250 10 q 233 0 243 0 l 132 0 m 444 986 q 429 994 435 986 l 329 1135 q 327 1147 325 1142 q 336 1151 329 1151 l 438 1151 q 451 1142 447 1151 l 529 1000 q 531 990 532 994 q 522 986 529 986 l 444 986 z "},"К":{"ha":806,"x_min":118,"x_max":808,"o":"m 132 0 q 118 14 118 0 l 118 896 q 132 910 118 910 l 222 910 q 236 896 236 910 l 236 515 l 353 515 l 649 901 q 667 910 656 910 l 768 910 q 779 905 776 910 q 776 893 782 900 l 456 475 l 803 17 q 806 6 808 11 q 794 0 803 0 l 682 0 q 664 8 671 0 l 357 410 l 236 410 l 236 14 q 222 0 236 0 l 132 0 z "},"Ќ":{"ha":806,"x_min":118,"x_max":808,"o":"m 132 0 q 118 14 118 0 l 118 896 q 132 910 118 910 l 222 910 q 236 896 236 910 l 236 515 l 353 515 l 649 901 q 667 910 656 910 l 768 910 q 779 905 776 910 q 776 893 782 900 l 456 475 l 803 17 q 806 6 808 11 q 794 0 803 0 l 682 0 q 664 8 671 0 l 357 410 l 236 410 l 236 14 q 222 0 236 0 l 132 0 m 339 986 q 331 990 332 986 q 332 1000 329 994 l 410 1142 q 424 1151 415 1151 l 525 1151 q 534 1147 532 1151 q 532 1135 536 1142 l 432 994 q 417 986 426 986 l 339 986 z "},"Л":{"ha":769,"x_min":-3,"x_max":772,"o":"m 13 0 q 1 15 -3 0 l 304 899 q 321 910 308 910 l 444 910 q 461 899 457 910 l 768 15 q 757 0 772 0 l 658 0 q 642 11 646 0 l 436 636 q 408 719 422 678 q 381 803 394 761 l 379 803 q 353 721 365 763 q 326 639 340 679 l 122 11 q 106 0 118 0 l 13 0 z "},"М":{"ha":1068,"x_min":97,"x_max":971,"o":"m 111 0 q 97 14 97 0 l 117 896 q 131 910 117 910 l 278 910 q 293 899 288 910 l 536 353 l 775 899 q 790 910 781 910 l 938 910 q 951 896 951 910 l 971 14 q 957 0 971 0 l 869 0 q 856 14 856 0 l 842 572 q 842 674 840 624 q 846 775 844 724 l 843 775 q 801 674 822 724 q 756 572 779 624 l 550 126 q 535 117 546 117 l 532 117 q 517 126 521 117 l 308 579 q 266 677 286 628 q 226 775 246 726 l 224 775 q 227 676 226 726 q 226 578 228 626 l 213 14 q 199 0 213 0 l 111 0 z "},"Н":{"ha":918,"x_min":118,"x_max":800,"o":"m 132 0 q 118 14 118 0 l 118 896 q 132 910 118 910 l 222 910 q 236 896 236 910 l 236 521 l 682 521 l 682 896 q 696 910 682 910 l 786 910 q 800 896 800 910 l 800 14 q 786 0 800 0 l 696 0 q 682 14 682 0 l 682 418 l 236 418 l 236 14 q 222 0 236 0 l 132 0 z "},"О":{"ha":892,"x_min":101,"x_max":790,"o":"m 446 -17 q 187 69 272 -17 q 101 310 101 154 l 101 600 q 187 842 101 757 q 446 926 272 926 q 705 842 619 926 q 790 600 790 757 l 790 310 q 705 69 790 154 q 446 -17 619 -17 m 446 88 q 615 144 557 88 q 672 311 672 201 l 672 599 q 615 766 672 710 q 446 822 557 822 q 278 766 336 822 q 219 599 219 710 l 219 311 q 278 144 219 201 q 446 88 336 88 z "},"П":{"ha":917,"x_min":118,"x_max":799,"o":"m 132 0 q 118 14 118 0 l 118 896 q 132 910 118 910 l 785 910 q 799 896 799 910 l 799 14 q 785 0 799 0 l 694 0 q 681 14 681 0 l 681 803 l 236 803 l 236 14 q 222 0 236 0 l 132 0 z "},"Р":{"ha":757,"x_min":118,"x_max":701,"o":"m 132 0 q 118 14 118 0 l 118 896 q 132 910 118 910 l 364 910 q 617 838 532 910 q 701 626 701 767 q 616 415 701 488 q 364 343 531 343 l 236 343 l 236 14 q 222 0 236 0 l 132 0 m 236 443 l 361 443 q 531 487 478 443 q 583 622 583 531 q 528 765 583 721 q 358 810 474 810 l 236 810 l 236 443 z "},"С":{"ha":879,"x_min":101,"x_max":797,"o":"m 444 -17 q 188 68 275 -17 q 101 310 101 153 l 101 600 q 190 842 101 757 q 446 926 278 926 q 634 890 553 926 q 756 784 715 853 q 783 619 797 715 q 779 606 782 613 q 768 600 776 600 l 678 600 q 665 614 663 600 q 613 768 669 714 q 447 822 557 822 q 278 765 338 822 q 219 601 219 708 l 219 308 q 278 144 219 201 q 447 88 338 88 q 617 142 557 88 q 665 296 676 197 q 678 310 663 310 l 767 310 q 783 290 781 310 q 751 128 792 197 q 631 22 710 60 q 444 -17 551 -17 z "},"Т":{"ha":743,"x_min":49,"x_max":694,"o":"m 326 0 q 313 14 313 0 l 313 803 l 63 803 q 49 817 49 803 l 49 896 q 63 910 49 910 l 681 910 q 694 896 694 910 l 694 817 q 681 803 694 803 l 431 803 l 431 14 q 417 0 431 0 l 326 0 z "},"У":{"ha":760,"x_min":33,"x_max":747,"o":"m 190 0 q 181 5 183 0 q 181 17 178 10 l 331 319 l 36 893 q 36 905 33 900 q 46 910 39 910 l 149 910 q 165 900 161 910 l 326 572 q 360 506 343 539 q 390 440 376 474 l 393 440 q 424 506 408 474 q 457 572 440 539 l 619 900 q 636 910 624 910 l 735 910 q 744 905 742 910 q 744 893 747 900 l 297 10 q 281 0 293 0 l 190 0 z "},"Ў":{"ha":760,"x_min":33,"x_max":747,"o":"m 190 0 q 181 5 183 0 q 181 17 178 10 l 331 319 l 36 893 q 36 905 33 900 q 46 910 39 910 l 149 910 q 165 900 161 910 l 326 572 q 360 506 343 539 q 390 440 376 474 l 393 440 q 424 506 408 474 q 457 572 440 539 l 619 900 q 636 910 624 910 l 735 910 q 744 905 742 910 q 744 893 747 900 l 297 10 q 281 0 293 0 l 190 0 m 390 994 q 277 1016 328 994 q 208 1050 226 1038 q 200 1067 200 1057 l 200 1143 q 204 1154 200 1151 q 215 1153 208 1157 q 290 1116 242 1139 q 390 1093 338 1093 q 491 1116 443 1093 q 565 1153 539 1139 q 576 1154 572 1157 q 581 1143 581 1151 l 581 1067 q 572 1050 581 1057 q 503 1016 554 1038 q 390 994 453 994 z "},"Ф":{"ha":1156,"x_min":101,"x_max":1054,"o":"m 521 -17 q 300 19 394 -17 q 153 133 206 56 q 101 332 101 210 l 101 576 q 154 777 101 700 q 303 890 207 854 q 526 925 399 925 l 629 925 q 853 890 757 925 q 1001 777 949 854 q 1054 576 1054 700 l 1054 332 q 1002 133 1054 210 q 856 19 950 56 q 635 -17 761 -17 l 521 -17 m 525 83 l 631 83 q 794 110 726 83 q 899 192 863 136 q 936 339 936 249 l 936 569 q 900 716 936 660 q 795 799 864 772 q 631 825 726 825 l 525 825 q 361 799 429 825 q 256 716 293 772 q 219 569 219 660 l 219 339 q 256 192 219 249 q 362 110 293 136 q 525 83 431 83 m 532 -99 q 518 -85 518 -99 l 518 21 l 521 33 l 521 876 l 518 889 l 518 994 q 532 1008 518 1008 l 622 1008 q 636 994 636 1008 l 636 889 l 633 876 l 633 33 l 636 21 l 636 -85 q 622 -99 636 -99 l 532 -99 z "},"Х":{"ha":765,"x_min":6,"x_max":760,"o":"m 18 0 q 8 5 10 0 q 10 17 6 10 l 307 469 l 29 893 q 27 905 25 900 q 38 910 29 910 l 149 910 q 164 901 158 910 l 321 661 q 353 609 336 636 q 386 557 371 582 l 388 557 q 422 613 404 585 q 457 667 439 640 l 608 901 q 625 910 615 910 l 731 910 q 741 905 739 910 q 739 893 743 900 l 463 467 l 756 17 q 758 5 760 10 q 747 0 756 0 l 636 0 q 619 8 626 0 l 454 263 q 417 320 436 290 q 382 378 399 350 l 381 378 q 346 322 364 351 q 310 265 328 293 l 144 10 q 128 0 138 0 l 18 0 z "},"Ч":{"ha":875,"x_min":104,"x_max":757,"o":"m 354 301 q 167 363 229 301 q 104 558 104 424 l 104 896 q 118 910 104 910 l 208 910 q 222 896 222 910 l 222 576 q 258 446 222 485 q 379 407 294 407 q 524 437 454 407 q 657 519 594 467 l 657 408 q 563 352 613 376 q 460 315 513 328 q 354 301 408 301 m 653 0 q 639 14 639 0 l 639 896 q 653 910 639 910 l 743 910 q 757 896 757 910 l 757 14 q 743 0 757 0 l 653 0 z "},"Ц":{"ha":906,"x_min":118,"x_max":871,"o":"m 767 -181 q 757 -176 761 -181 q 753 -167 753 -172 l 753 0 l 132 0 q 118 14 118 0 l 118 896 q 132 910 118 910 l 222 910 q 236 896 236 910 l 236 107 l 658 107 l 658 896 q 672 910 658 910 l 763 910 q 776 896 776 910 l 776 107 l 857 107 q 867 103 864 107 q 871 93 871 100 l 871 -167 q 867 -176 871 -172 q 857 -181 864 -181 l 767 -181 z "},"Ш":{"ha":1235,"x_min":118,"x_max":1117,"o":"m 132 0 q 118 14 118 0 l 118 896 q 132 910 118 910 l 222 910 q 236 896 236 910 l 236 107 l 560 107 l 560 896 q 574 910 560 910 l 661 910 q 675 896 675 910 l 675 107 l 999 107 l 999 896 q 1013 910 999 910 l 1103 910 q 1117 896 1117 910 l 1117 14 q 1103 0 1117 0 l 132 0 z "},"Щ":{"ha":1243,"x_min":118,"x_max":1208,"o":"m 1104 -181 q 1094 -176 1099 -181 q 1090 -167 1090 -172 l 1090 0 l 132 0 q 118 14 118 0 l 118 896 q 132 910 118 910 l 222 910 q 236 896 236 910 l 236 107 l 560 107 l 560 896 q 574 910 560 910 l 661 910 q 675 896 675 910 l 675 107 l 999 107 l 999 896 q 1013 910 999 910 l 1103 910 q 1117 896 1117 910 l 1117 107 l 1194 107 q 1205 103 1201 107 q 1208 93 1208 100 l 1208 -167 q 1205 -176 1208 -172 q 1194 -181 1201 -181 l 1104 -181 z "},"Џ":{"ha":917,"x_min":118,"x_max":799,"o":"m 414 -181 q 404 -176 408 -181 q 400 -167 400 -172 l 400 0 l 132 0 q 118 14 118 0 l 118 896 q 132 910 118 910 l 222 910 q 236 896 236 910 l 236 107 l 681 107 l 681 896 q 694 910 681 910 l 785 910 q 799 896 799 910 l 799 14 q 795 4 799 8 q 785 0 792 0 l 518 0 l 518 -167 q 515 -176 518 -172 q 504 -181 511 -181 l 414 -181 z "},"Ь":{"ha":779,"x_min":118,"x_max":724,"o":"m 132 0 q 118 14 118 0 l 118 896 q 132 910 118 910 l 222 910 q 236 896 236 910 l 236 569 l 389 569 q 641 502 558 569 q 724 297 724 435 q 637 76 724 153 q 385 0 550 0 l 132 0 m 236 100 l 379 100 q 549 149 493 100 q 606 297 606 199 q 554 429 606 389 q 383 469 503 469 l 236 469 l 236 100 z "},"Ъ":{"ha":911,"x_min":49,"x_max":856,"o":"m 264 0 q 250 14 250 0 l 250 803 l 63 803 q 49 817 49 803 l 49 896 q 63 910 49 910 l 354 910 q 368 896 368 910 l 368 569 l 521 569 q 773 502 690 569 q 856 297 856 435 q 769 76 856 153 q 517 0 682 0 l 264 0 m 368 100 l 511 100 q 681 149 625 100 q 738 297 738 199 q 686 429 738 389 q 515 469 635 469 l 368 469 l 368 100 z "},"Ы":{"ha":1133,"x_min":118,"x_max":1015,"o":"m 132 0 q 118 14 118 0 l 118 896 q 132 910 118 910 l 222 910 q 236 896 236 910 l 236 569 l 389 569 q 641 502 558 569 q 724 297 724 435 q 637 76 724 153 q 385 0 550 0 l 132 0 m 236 100 l 379 100 q 549 149 493 100 q 606 297 606 199 q 554 429 606 389 q 383 469 503 469 l 236 469 l 236 100 m 911 0 q 897 14 897 0 l 897 896 q 911 910 897 910 l 1001 910 q 1015 896 1015 910 l 1015 14 q 1001 0 1015 0 l 911 0 z "},"Љ":{"ha":1204,"x_min":-3,"x_max":1149,"o":"m 13 0 q 1 15 -3 0 l 304 899 q 321 910 308 910 l 444 910 q 461 899 457 910 l 575 569 l 814 569 q 1066 502 983 569 q 1149 297 1149 435 q 1062 76 1149 153 q 810 0 975 0 l 658 0 q 642 11 646 0 l 436 636 q 408 719 422 678 q 381 803 394 761 l 379 803 q 353 721 365 763 q 326 639 340 679 l 122 11 q 106 0 118 0 l 13 0 m 739 100 l 804 100 q 974 149 918 100 q 1031 297 1031 199 q 979 429 1031 389 q 808 469 928 469 l 610 469 l 739 100 z "},"Њ":{"ha":1343,"x_min":118,"x_max":1288,"o":"m 132 0 q 118 14 118 0 l 118 896 q 132 910 118 910 l 222 910 q 236 896 236 910 l 236 550 l 682 550 l 682 896 q 696 910 682 910 l 786 910 q 800 896 800 910 l 800 550 l 953 550 q 1202 482 1117 550 q 1288 285 1288 414 q 1199 75 1288 150 q 949 0 1110 0 l 696 0 q 682 14 682 0 l 682 447 l 236 447 l 236 14 q 222 0 236 0 l 132 0 m 800 100 l 943 100 q 1112 147 1054 100 q 1169 283 1169 194 q 1116 408 1169 368 q 947 447 1063 447 l 800 447 l 800 100 z "},"Ѕ":{"ha":789,"x_min":64,"x_max":714,"o":"m 386 -17 q 142 55 219 -17 q 72 242 64 126 q 89 267 74 267 l 176 267 q 193 244 193 267 q 243 123 193 160 q 396 86 293 86 q 545 122 494 86 q 596 229 596 157 q 584 291 596 265 q 544 336 572 317 q 469 375 517 356 l 265 460 q 162 519 201 486 q 105 594 122 551 q 88 690 88 636 q 165 865 89 806 q 385 925 240 925 q 556 896 483 925 q 665 811 628 867 q 696 675 703 756 q 681 649 693 649 l 592 649 q 581 654 585 649 q 579 675 578 660 q 531 784 585 746 q 381 822 478 822 q 251 792 294 822 q 206 697 207 761 q 217 639 206 664 q 258 593 229 614 q 336 551 286 572 l 538 467 q 640 408 601 440 q 697 334 679 376 q 714 232 714 292 q 635 49 714 115 q 386 -17 556 -17 z "},"Є":{"ha":844,"x_min":101,"x_max":751,"o":"m 446 -17 q 182 49 263 -17 q 101 264 101 115 l 101 646 q 176 860 101 794 q 415 926 250 926 q 602 900 526 926 q 714 823 678 874 q 740 700 750 772 q 725 671 736 671 l 635 671 q 622 699 622 671 q 601 769 622 742 q 538 809 581 796 q 425 822 494 822 q 266 786 313 822 q 219 663 219 750 l 219 515 l 594 515 q 608 501 608 515 l 608 424 q 594 410 608 410 l 219 410 l 219 250 q 269 124 219 161 q 436 88 318 88 q 551 100 507 88 q 615 140 594 113 q 635 210 635 167 q 647 238 635 238 l 738 238 q 748 229 744 238 q 751 197 751 221 q 719 76 751 124 q 620 6 688 28 q 446 -17 553 -17 z "},"Э":{"ha":839,"x_min":88,"x_max":738,"o":"m 393 -17 q 219 6 288 -17 q 119 76 151 28 q 88 197 88 124 q 91 229 88 221 q 101 238 94 238 l 192 238 q 204 210 204 238 q 224 140 204 167 q 288 100 244 113 q 403 88 332 88 q 571 124 522 88 q 619 250 619 161 l 619 410 l 244 410 q 231 424 231 410 l 231 501 q 244 515 231 515 l 619 515 l 619 663 q 573 786 619 750 q 414 822 526 822 q 302 809 346 822 q 238 769 258 796 q 217 699 217 742 q 204 671 217 671 l 114 671 q 99 700 103 671 q 128 823 93 772 q 239 900 164 874 q 424 926 314 926 q 663 860 589 926 q 738 646 738 794 l 738 264 q 657 49 738 115 q 393 -17 576 -17 z "},"І":{"ha":354,"x_min":118,"x_max":236,"o":"m 132 0 q 118 14 118 0 l 118 896 q 132 910 118 910 l 222 910 q 236 896 236 910 l 236 14 q 222 0 236 0 l 132 0 z "},"Ї":{"ha":354,"x_min":-11,"x_max":367,"o":"m 132 0 q 118 14 118 0 l 118 896 q 132 910 118 910 l 222 910 q 236 896 236 910 l 236 14 q 222 0 236 0 l 132 0 m 61 988 q 6 1008 22 988 q -11 1058 -11 1028 l -11 1072 q 6 1124 -11 1104 q 61 1143 22 1143 q 117 1124 100 1143 q 133 1072 133 1104 l 133 1058 q 117 1008 133 1028 q 61 988 100 988 m 294 988 q 239 1008 256 988 q 222 1058 222 1028 l 222 1072 q 239 1124 222 1104 q 294 1143 256 1143 q 350 1124 333 1143 q 367 1072 367 1104 l 367 1058 q 350 1008 367 1028 q 294 988 333 988 z "},"Ј":{"ha":368,"x_min":-11,"x_max":250,"o":"m 51 -193 q 17 -187 21 -200 l -7 -106 q 18 -83 -11 -90 q 103 -19 75 -69 q 132 114 132 31 l 132 896 q 146 910 132 910 l 236 910 q 250 896 250 910 l 250 119 q 199 -92 250 -15 q 51 -193 149 -169 z "},"Ћ":{"ha":1031,"x_min":49,"x_max":926,"o":"m 326 0 q 313 14 313 0 l 313 803 l 63 803 q 49 817 49 803 l 49 896 q 63 910 49 910 l 708 910 q 722 896 722 910 l 722 817 q 708 803 722 803 l 431 803 l 431 500 q 558 583 492 556 q 697 611 625 611 q 867 547 807 611 q 926 365 926 483 l 926 14 q 913 0 926 0 l 822 0 q 808 14 808 0 l 808 353 q 773 469 808 431 q 665 507 738 507 q 552 480 607 507 q 431 392 497 453 l 431 14 q 417 0 431 0 l 326 0 z "},"Ю":{"ha":1210,"x_min":118,"x_max":1108,"o":"m 782 -17 q 539 69 622 -17 q 456 310 456 156 l 456 600 q 539 840 456 754 q 782 926 622 926 q 1025 840 942 926 q 1108 600 1108 754 l 1108 310 q 1025 69 1108 156 q 782 -17 942 -17 m 132 0 q 118 14 118 0 l 118 896 q 132 910 118 910 l 222 910 q 236 896 236 910 l 236 521 l 496 521 l 496 418 l 236 418 l 236 14 q 222 0 236 0 l 132 0 m 782 88 q 938 144 885 88 q 990 308 990 201 l 990 601 q 938 765 990 708 q 782 822 885 822 q 627 765 681 822 q 574 601 574 708 l 574 308 q 627 144 574 201 q 782 88 681 88 z "},"Я":{"ha":844,"x_min":47,"x_max":726,"o":"m 61 0 q 50 5 53 0 q 51 17 47 10 l 189 261 q 229 333 208 297 q 272 404 250 369 l 272 407 q 151 494 192 433 q 110 647 110 556 q 146 793 110 735 q 255 881 182 851 q 435 910 328 910 l 713 910 q 726 896 726 910 l 726 14 q 713 0 726 0 l 622 0 q 608 14 608 0 l 608 388 l 389 388 l 182 10 q 165 0 176 0 l 61 0 m 444 482 l 608 482 l 608 810 l 439 810 q 278 768 328 810 q 228 636 228 726 q 249 545 228 579 q 317 497 269 511 q 444 482 364 482 z "},"Ђ":{"ha":1031,"x_min":49,"x_max":926,"o":"m 694 -15 q 673 -16 678 -17 q 665 -8 668 -15 l 642 74 q 642 87 640 82 q 664 94 644 92 q 771 149 733 106 q 808 268 808 193 l 808 353 q 774 469 808 431 q 668 507 739 507 q 554 480 610 507 q 431 392 499 453 l 431 14 q 417 0 431 0 l 326 0 q 313 14 313 0 l 313 803 l 63 803 q 49 817 49 803 l 49 896 q 63 910 49 910 l 708 910 q 722 896 722 910 l 722 817 q 708 803 722 803 l 431 803 l 431 500 q 558 583 492 556 q 697 611 625 611 q 867 547 807 611 q 926 365 926 483 l 926 271 q 864 73 926 147 q 694 -15 801 -1 z "},"Ӏ":{"ha":354,"x_min":118,"x_max":236,"o":"m 132 0 q 118 14 118 0 l 118 896 q 132 910 118 910 l 222 910 q 236 896 236 910 l 236 14 q 222 0 236 0 l 132 0 z "},"Ӣ":{"ha":914,"x_min":118,"x_max":796,"o":"m 132 0 q 118 14 118 0 l 118 896 q 132 910 118 910 l 219 910 q 233 896 233 910 l 233 463 q 232 321 233 376 q 228 228 231 265 q 225 160 226 192 l 228 160 q 265 228 246 192 q 317 319 285 264 q 401 463 349 375 l 664 900 q 681 910 671 910 l 782 910 q 796 896 796 910 l 796 14 q 782 0 796 0 l 694 0 q 681 14 681 0 l 681 431 q 684 620 681 536 q 690 751 688 704 l 688 751 q 651 684 671 721 q 597 588 631 647 q 503 431 563 529 l 250 10 q 233 0 243 0 l 132 0 m 307 996 q 293 1010 293 996 l 293 1082 q 307 1096 293 1096 l 606 1096 q 619 1082 619 1096 l 619 1010 q 606 996 619 996 l 307 996 z "},"Ӯ":{"ha":760,"x_min":33,"x_max":747,"o":"m 190 0 q 181 5 183 0 q 181 17 178 10 l 331 319 l 36 893 q 36 905 33 900 q 46 910 39 910 l 149 910 q 165 900 161 910 l 326 572 q 360 506 343 539 q 390 440 376 474 l 393 440 q 424 506 408 474 q 457 572 440 539 l 619 900 q 636 910 624 910 l 735 910 q 744 905 742 910 q 744 893 747 900 l 297 10 q 281 0 293 0 l 190 0 m 240 996 q 226 1010 226 996 l 226 1082 q 240 1096 226 1096 l 539 1096 q 553 1082 553 1096 l 553 1010 q 539 996 553 996 l 240 996 z "},"а":{"ha":686,"x_min":67,"x_max":594,"o":"m 497 0 q 486 6 489 0 q 481 19 483 11 q 474 67 479 31 q 468 133 469 104 l 464 186 l 464 463 q 436 561 464 532 q 339 590 408 590 q 214 504 214 590 q 201 490 214 490 l 110 490 q 94 517 96 490 q 156 645 88 596 q 343 694 225 694 q 523 638 464 694 q 582 465 582 581 l 582 168 q 585 81 582 119 q 592 15 588 43 q 578 0 594 0 l 497 0 m 232 -17 q 109 32 151 -17 q 67 174 67 81 q 95 292 67 246 q 187 363 124 338 q 356 396 250 388 l 486 407 l 486 317 l 353 306 q 221 271 257 297 q 185 182 185 244 q 204 111 185 135 q 263 88 224 88 q 358 119 308 88 q 490 235 408 150 l 490 131 q 399 45 442 78 q 317 -2 357 13 q 232 -17 276 -17 z "},"б":{"ha":757,"x_min":104,"x_max":667,"o":"m 383 -17 q 174 50 243 -17 q 104 253 104 117 l 104 575 q 144 769 104 703 q 246 869 183 836 q 328 902 286 890 q 411 923 369 914 q 490 944 453 932 q 558 976 528 956 q 576 968 571 985 l 600 888 q 594 869 603 876 q 519 835 565 846 q 419 815 472 825 q 315 782 365 806 q 245 716 268 760 q 222 607 222 672 l 222 264 q 260 131 222 175 q 386 88 297 88 q 511 133 474 88 q 549 264 549 178 l 549 399 q 516 510 549 476 q 426 543 483 543 q 308 506 367 543 q 208 407 249 469 l 208 521 q 276 589 239 561 q 356 632 313 617 q 450 647 400 647 q 608 590 549 647 q 667 415 667 532 l 667 253 q 595 51 667 119 q 383 -17 524 -17 z "},"в":{"ha":750,"x_min":104,"x_max":660,"o":"m 372 -17 q 171 51 238 -17 q 104 253 104 118 l 104 722 q 135 856 104 803 q 226 938 165 910 q 375 965 286 965 q 555 915 496 965 q 614 763 614 864 q 583 633 614 689 q 500 554 553 576 l 500 553 q 624 483 588 539 q 660 333 660 426 l 660 264 q 586 55 660 126 q 372 -17 513 -17 m 375 88 q 501 132 460 88 q 542 268 542 176 l 542 342 q 510 443 542 411 q 413 475 479 475 q 358 472 389 475 q 294 460 328 468 q 222 442 260 453 l 222 264 q 258 129 222 171 q 375 88 294 88 m 222 536 l 335 560 q 453 615 408 575 q 497 735 497 654 q 465 833 497 801 q 367 864 433 864 q 259 829 296 864 q 222 728 222 794 l 222 536 z "},"г":{"ha":663,"x_min":69,"x_max":597,"o":"m 318 -17 q 135 20 199 -17 q 71 156 72 57 q 106 281 69 233 q 219 358 142 329 l 376 417 q 445 458 428 436 q 463 517 463 481 q 433 575 463 558 q 339 592 403 592 q 235 571 269 592 q 201 511 201 550 q 189 490 201 490 l 97 490 q 82 511 85 490 q 140 642 74 590 q 338 694 207 694 q 517 651 453 694 q 581 515 581 607 q 547 400 581 444 q 433 326 514 356 l 272 268 q 206 226 225 251 q 189 160 188 201 q 223 99 190 114 q 324 85 256 83 q 435 108 397 86 q 474 175 474 129 q 485 196 474 196 l 576 196 q 587 193 583 196 q 592 176 590 190 q 534 38 597 92 q 318 -17 471 -17 z "},"ѓ":{"ha":663,"x_min":69,"x_max":597,"o":"m 318 -17 q 135 20 199 -17 q 71 156 72 57 q 106 281 69 233 q 219 358 142 329 l 376 417 q 445 458 428 436 q 463 517 463 481 q 433 575 463 558 q 339 592 403 592 q 235 571 269 592 q 201 511 201 550 q 189 490 201 490 l 97 490 q 82 511 85 490 q 140 642 74 590 q 338 694 207 694 q 517 651 453 694 q 581 515 581 607 q 547 400 581 444 q 433 326 514 356 l 272 268 q 206 226 225 251 q 189 160 188 201 q 223 99 190 114 q 324 85 256 83 q 435 108 397 86 q 474 175 474 129 q 485 196 474 196 l 576 196 q 587 193 583 196 q 592 176 590 190 q 534 38 597 92 q 318 -17 471 -17 m 261 772 q 254 786 247 772 l 346 956 q 363 965 351 965 l 460 965 q 469 960 467 965 q 467 950 471 956 l 351 781 q 336 772 346 772 l 261 772 z "},"ґ":{"ha":579,"x_min":14,"x_max":593,"o":"m 119 -17 q 76 -14 97 -17 q 25 1 56 -11 q 14 17 14 6 l 14 93 q 19 103 14 100 q 31 103 24 106 q 69 90 50 94 q 103 86 89 86 q 137 102 126 86 q 151 176 147 118 l 168 428 q 224 623 176 557 q 386 689 272 689 q 458 703 435 689 q 488 739 481 717 q 492 768 492 753 q 492 794 492 783 q 507 806 492 806 l 583 806 q 593 789 593 806 q 586 708 593 744 q 560 647 579 671 q 506 605 539 621 q 403 586 472 589 q 318 549 343 585 q 286 425 293 513 l 269 201 q 226 33 261 83 q 119 -17 190 -17 z "},"д":{"ha":749,"x_min":86,"x_max":644,"o":"m 365 -274 q 174 -224 243 -274 q 111 -100 106 -174 q 128 -76 113 -76 l 219 -76 q 232 -96 232 -76 q 267 -151 232 -131 q 367 -171 303 -171 q 489 -135 451 -171 q 526 -19 526 -100 l 526 22 q 526 70 526 46 q 528 118 526 94 l 526 118 q 413 43 467 67 q 296 19 358 19 q 139 83 192 19 q 86 278 86 147 l 86 413 q 154 624 86 553 q 364 694 222 694 q 458 688 415 694 q 546 672 501 681 q 644 660 590 664 l 644 -12 q 613 -154 644 -96 q 518 -243 581 -212 q 365 -274 456 -274 m 321 124 q 414 147 368 124 q 526 228 460 171 l 526 575 q 448 586 492 582 q 374 590 404 590 q 244 545 283 590 q 204 401 204 500 l 204 285 q 233 162 204 200 q 321 124 261 124 z "},"е":{"ha":721,"x_min":86,"x_max":638,"o":"m 363 -17 q 158 46 229 -17 q 86 231 86 108 l 86 425 q 157 626 86 557 q 363 694 228 694 q 567 627 497 694 q 638 432 638 560 l 638 324 q 624 310 638 310 l 204 310 l 204 265 q 243 130 204 172 q 369 88 282 88 q 470 109 435 88 q 506 172 506 131 q 521 188 506 188 l 611 188 q 625 175 622 188 q 560 35 631 86 q 363 -17 489 -17 m 204 411 l 519 411 l 519 419 q 481 549 519 507 q 364 590 442 590 q 244 547 283 590 q 204 418 204 504 l 204 411 z "},"ѐ":{"ha":721,"x_min":86,"x_max":638,"o":"m 363 -17 q 158 46 229 -17 q 86 231 86 108 l 86 425 q 157 626 86 557 q 363 694 228 694 q 567 627 497 694 q 638 432 638 560 l 638 324 q 624 310 638 310 l 204 310 l 204 265 q 243 130 204 172 q 369 88 282 88 q 470 109 435 88 q 506 172 506 131 q 521 188 506 188 l 611 188 q 625 175 622 188 q 560 35 631 86 q 363 -17 489 -17 m 204 411 l 519 411 l 519 419 q 481 549 519 507 q 364 590 442 590 q 244 547 283 590 q 204 418 204 504 l 204 411 m 353 789 q 338 797 343 789 l 222 967 q 220 977 218 972 q 229 982 222 982 l 326 982 q 343 972 339 982 l 435 803 q 428 789 442 789 l 353 789 z "},"ё":{"ha":721,"x_min":86,"x_max":638,"o":"m 363 -17 q 158 46 229 -17 q 86 231 86 108 l 86 425 q 157 626 86 557 q 363 694 228 694 q 567 627 497 694 q 638 432 638 560 l 638 324 q 624 310 638 310 l 204 310 l 204 265 q 243 130 204 172 q 369 88 282 88 q 470 109 435 88 q 506 172 506 131 q 521 188 506 188 l 611 188 q 625 175 622 188 q 560 35 631 86 q 363 -17 489 -17 m 204 411 l 519 411 l 519 419 q 481 549 519 507 q 364 590 442 590 q 244 547 283 590 q 204 418 204 504 l 204 411 m 240 808 q 185 828 201 808 q 168 879 168 849 l 168 893 q 185 944 168 925 q 240 964 201 964 q 296 944 279 964 q 313 893 313 925 l 313 879 q 296 828 313 849 q 240 808 279 808 m 475 808 q 419 828 436 808 q 403 879 403 849 l 403 893 q 419 944 403 925 q 475 964 436 964 q 531 944 514 964 q 547 893 547 925 l 547 879 q 531 828 547 849 q 475 808 514 808 z "},"ж":{"ha":971,"x_min":21,"x_max":950,"o":"m 35 0 q 24 6 26 0 q 25 17 21 11 l 238 376 l 49 661 q 47 673 44 668 q 57 678 49 678 l 160 678 q 178 669 172 678 l 336 410 l 426 410 l 426 935 q 440 949 426 949 l 531 949 q 544 935 544 949 l 544 410 l 635 410 l 793 669 q 811 678 799 678 l 914 678 q 924 673 922 678 q 922 661 926 668 l 733 376 l 946 17 q 947 6 950 11 q 936 0 944 0 l 831 0 q 814 8 819 0 l 639 315 l 544 315 l 544 14 q 531 0 544 0 l 440 0 q 426 14 426 0 l 426 315 l 331 315 l 156 8 q 139 0 150 0 l 35 0 z "},"з":{"ha":658,"x_min":40,"x_max":579,"o":"m 299 -274 q 156 -248 215 -274 q 69 -178 97 -222 q 47 -79 40 -135 q 54 -59 50 -64 q 65 -54 58 -54 l 156 -54 q 168 -76 168 -54 q 203 -145 168 -119 q 301 -171 238 -171 q 422 -134 381 -171 q 463 -28 463 -97 l 463 60 q 421 154 463 124 q 293 185 379 185 l 185 185 q 175 189 179 185 q 171 199 171 193 l 171 272 q 175 283 171 279 q 185 286 179 286 l 283 286 q 399 326 357 286 q 442 433 442 365 l 442 464 q 407 561 442 529 q 301 593 372 593 q 210 572 242 593 q 178 511 178 550 q 175 496 178 501 q 165 490 172 490 l 74 490 q 56 515 57 490 q 82 607 51 567 q 173 671 113 647 q 317 694 233 694 q 494 642 435 694 q 554 485 554 589 l 554 432 q 524 323 554 372 q 438 247 493 274 l 438 246 q 545 178 511 228 q 579 63 579 129 l 579 -12 q 547 -154 579 -96 q 451 -243 514 -212 q 299 -274 389 -274 z "},"и":{"ha":753,"x_min":104,"x_max":661,"o":"m 288 -17 q 151 43 199 -17 q 104 215 104 103 l 104 664 q 118 678 104 678 l 208 678 q 222 664 222 678 l 222 221 q 247 120 222 153 q 322 88 271 88 q 426 119 374 88 q 556 231 478 151 l 553 121 q 464 44 508 75 q 376 -1 419 14 q 288 -17 332 -17 m 565 0 q 549 14 550 0 q 542 68 544 40 q 538 125 539 96 l 531 183 l 531 664 q 544 678 531 678 l 635 678 q 649 664 649 678 l 649 169 q 651 92 649 132 q 658 14 653 51 q 643 0 661 0 l 565 0 z "},"й":{"ha":753,"x_min":104,"x_max":661,"o":"m 288 -17 q 151 43 199 -17 q 104 215 104 103 l 104 664 q 118 678 104 678 l 208 678 q 222 664 222 678 l 222 221 q 247 120 222 153 q 322 88 271 88 q 426 119 374 88 q 556 231 478 151 l 553 121 q 464 44 508 75 q 376 -1 419 14 q 288 -17 332 -17 m 565 0 q 549 14 550 0 q 542 68 544 40 q 538 125 539 96 l 531 183 l 531 664 q 544 678 531 678 l 635 678 q 649 664 649 678 l 649 169 q 651 92 649 132 q 658 14 653 51 q 643 0 661 0 l 565 0 m 376 772 q 295 785 329 772 q 240 815 261 799 q 210 840 219 831 q 204 857 204 846 l 204 932 q 208 944 204 940 q 219 940 213 947 q 280 897 239 922 q 376 871 321 871 q 474 897 433 871 q 533 940 515 922 q 544 944 540 947 q 549 932 549 940 l 549 857 q 547 847 549 851 q 543 840 546 843 q 513 815 533 831 q 458 785 492 799 q 376 772 425 772 z "},"ѝ":{"ha":753,"x_min":104,"x_max":661,"o":"m 288 -17 q 151 43 199 -17 q 104 215 104 103 l 104 664 q 118 678 104 678 l 208 678 q 222 664 222 678 l 222 221 q 247 120 222 153 q 322 88 271 88 q 426 119 374 88 q 556 231 478 151 l 553 121 q 464 44 508 75 q 376 -1 419 14 q 288 -17 332 -17 m 565 0 q 549 14 550 0 q 542 68 544 40 q 538 125 539 96 l 531 183 l 531 664 q 544 678 531 678 l 635 678 q 649 664 649 678 l 649 169 q 651 92 649 132 q 658 14 653 51 q 643 0 661 0 l 565 0 m 371 772 q 356 781 361 772 l 240 950 q 238 960 236 956 q 247 965 240 965 l 344 965 q 361 956 357 965 l 453 786 q 446 772 460 772 l 371 772 z "},"к":{"ha":672,"x_min":104,"x_max":669,"o":"m 665 17 q 667 6 669 11 q 656 0 664 0 l 547 0 q 531 8 536 0 l 322 315 l 222 315 l 222 14 q 208 0 222 0 l 118 0 q 104 14 104 0 l 104 935 q 118 949 104 949 l 208 949 q 222 935 222 949 l 222 410 l 318 410 l 511 669 q 529 678 518 678 l 633 678 q 644 673 642 678 q 642 661 647 668 l 422 375 l 665 17 z "},"ќ":{"ha":672,"x_min":104,"x_max":669,"o":"m 665 17 q 667 6 669 11 q 656 0 664 0 l 547 0 q 531 8 536 0 l 322 315 l 222 315 l 222 14 q 208 0 222 0 l 118 0 q 104 14 104 0 l 104 935 q 118 949 104 949 l 208 949 q 222 935 222 949 l 222 410 l 318 410 l 511 669 q 529 678 518 678 l 633 678 q 644 673 642 678 q 642 661 647 668 l 422 375 l 665 17 m 314 772 q 307 786 300 772 l 399 956 q 415 965 404 965 l 513 965 q 522 960 519 965 q 519 950 524 956 l 404 781 q 389 772 399 772 l 314 772 z "},"л":{"ha":632,"x_min":1,"x_max":631,"o":"m 18 0 q 8 17 1 0 l 244 658 q 268 678 251 678 l 364 678 q 388 658 381 678 l 624 17 q 614 0 631 0 l 518 0 q 503 11 507 0 l 374 385 q 345 465 360 425 q 318 543 331 504 l 315 543 q 289 463 303 503 q 260 382 275 422 l 129 11 q 114 0 125 0 l 18 0 z "},"м":{"ha":869,"x_min":92,"x_max":778,"o":"m 106 0 q 92 14 92 0 l 103 664 q 117 678 103 678 l 215 678 q 231 667 225 678 l 435 267 l 639 667 q 654 678 644 678 l 753 678 q 767 664 767 678 l 778 14 q 764 0 778 0 l 678 0 q 664 14 664 0 l 661 347 q 663 393 661 365 q 666 451 664 421 q 669 507 668 482 l 665 507 q 637 442 651 472 q 610 388 622 411 l 446 92 q 435 86 442 86 q 428 88 431 86 q 424 92 426 89 l 260 388 q 233 442 247 411 q 204 507 219 472 l 200 507 q 204 451 203 482 q 207 393 206 421 q 208 347 208 365 l 206 14 q 192 0 206 0 l 106 0 z "},"н":{"ha":756,"x_min":104,"x_max":651,"o":"m 547 0 q 533 14 533 0 l 533 664 q 547 678 533 678 l 638 678 q 651 664 651 678 l 651 14 q 638 0 651 0 l 547 0 m 118 0 q 104 14 104 0 l 104 664 q 118 678 104 678 l 208 678 q 222 664 222 678 l 222 14 q 208 0 222 0 l 118 0 m 200 296 l 200 397 l 556 397 l 556 296 l 200 296 z "},"о":{"ha":744,"x_min":86,"x_max":658,"o":"m 372 -17 q 159 51 232 -17 q 86 258 86 119 l 86 419 q 158 626 86 558 q 372 694 231 694 q 585 626 513 694 q 658 419 658 558 l 658 258 q 586 51 658 119 q 372 -17 514 -17 m 372 88 q 501 133 461 88 q 540 269 540 178 l 540 408 q 501 545 540 500 q 372 590 461 590 q 244 545 283 590 q 204 408 204 500 l 204 269 q 244 133 204 178 q 372 88 283 88 z "},"п":{"ha":772,"x_min":92,"x_max":668,"o":"m 564 0 q 550 14 550 0 l 550 457 q 522 558 550 526 q 436 590 493 590 q 329 558 382 590 q 197 449 276 526 l 199 556 q 288 636 246 606 q 373 681 331 667 q 463 694 415 694 q 615 636 563 694 q 668 463 668 578 l 668 14 q 654 0 668 0 l 564 0 m 118 0 q 104 14 104 0 l 104 508 q 101 590 104 544 q 94 660 97 635 q 108 678 92 678 l 193 678 q 208 664 206 678 q 214 629 211 653 q 219 580 217 606 q 222 536 222 554 l 222 500 l 222 14 q 208 0 222 0 l 118 0 z "},"р":{"ha":746,"x_min":93,"x_max":657,"o":"m 408 -17 q 299 -3 356 -17 q 207 35 242 11 l 203 135 q 292 100 243 113 q 383 88 340 88 q 501 135 464 88 q 539 276 539 182 l 539 429 q 510 551 539 513 q 424 590 481 590 q 326 562 375 590 q 196 461 276 533 l 196 572 q 284 642 243 615 q 365 682 325 669 q 449 694 404 694 q 604 631 551 694 q 657 436 657 567 l 657 263 q 593 56 657 128 q 408 -17 529 -17 m 118 -257 q 104 -243 104 -257 l 104 521 q 101 592 104 553 q 94 661 99 631 q 108 678 93 678 l 193 678 q 208 664 207 678 q 214 636 211 654 q 218 601 217 618 q 218 576 219 583 l 222 507 l 222 -243 q 208 -257 222 -257 l 118 -257 z "},"с":{"ha":718,"x_min":86,"x_max":635,"o":"m 369 -17 q 158 53 231 -17 q 86 253 86 122 l 86 425 q 160 625 86 556 q 372 694 233 694 q 513 669 454 694 q 603 601 571 644 q 635 497 635 557 q 621 465 635 465 l 529 465 q 517 488 517 465 q 478 563 517 536 q 372 590 439 590 q 246 547 288 590 q 204 414 204 504 l 204 264 q 246 131 204 175 q 371 88 288 88 q 476 117 438 88 q 515 189 515 146 q 528 211 515 211 l 619 211 q 633 199 633 211 q 565 42 633 100 q 369 -17 497 -17 z "},"т":{"ha":1174,"x_min":92,"x_max":1069,"o":"m 118 0 q 104 14 104 0 l 104 508 q 102 587 104 546 q 94 661 100 628 q 110 678 92 678 l 193 678 q 207 668 206 678 q 214 624 210 647 q 219 575 218 600 q 338 666 282 638 q 457 694 393 694 q 572 662 528 694 q 633 565 615 629 q 757 664 700 633 q 881 694 814 694 q 1022 636 974 694 q 1069 464 1069 578 l 1069 14 q 1056 0 1069 0 l 965 0 q 951 14 951 0 l 951 457 q 927 557 951 524 q 851 590 903 590 q 758 562 806 590 q 646 472 710 533 l 646 14 q 632 0 646 0 l 542 0 q 528 14 528 0 l 528 457 q 503 557 528 524 q 428 590 479 590 q 334 562 382 590 q 222 472 286 533 l 222 14 q 208 0 222 0 l 118 0 z "},"у":{"ha":690,"x_min":26,"x_max":665,"o":"m 201 -257 q 192 -240 185 -257 l 290 8 l 33 661 q 43 678 26 678 l 142 678 q 157 667 153 678 l 282 331 q 315 242 299 288 q 346 151 331 196 l 347 151 q 380 242 363 196 q 413 331 397 288 l 538 667 q 554 678 542 678 l 647 678 q 658 661 665 678 l 307 -246 q 292 -257 303 -257 l 201 -257 z "},"ў":{"ha":690,"x_min":26,"x_max":665,"o":"m 201 -257 q 192 -240 185 -257 l 290 8 l 33 661 q 43 678 26 678 l 142 678 q 157 667 153 678 l 282 331 q 315 242 299 288 q 346 151 331 196 l 347 151 q 380 242 363 196 q 413 331 397 288 l 538 667 q 554 678 542 678 l 647 678 q 658 661 665 678 l 307 -246 q 292 -257 303 -257 l 201 -257 m 342 772 q 260 785 294 772 q 206 815 226 799 q 175 840 185 831 q 169 857 169 846 l 169 932 q 174 944 169 940 q 185 940 178 947 q 245 897 204 922 q 342 871 286 871 q 440 897 399 871 q 499 940 481 922 q 510 944 506 947 q 514 932 514 940 l 514 857 q 513 847 514 851 q 508 840 511 843 q 478 815 499 831 q 424 785 457 799 q 342 772 390 772 z "},"ф":{"ha":974,"x_min":86,"x_max":888,"o":"m 403 -17 q 165 49 244 -17 q 86 250 86 115 l 86 428 q 165 628 86 563 q 403 694 244 694 l 571 694 q 808 628 729 694 q 888 428 888 563 l 888 250 q 808 49 888 115 q 571 -17 729 -17 l 403 -17 m 392 85 l 582 85 q 723 128 676 85 q 769 261 769 172 l 769 417 q 723 550 769 507 q 582 593 676 593 l 392 593 q 251 550 299 593 q 204 417 204 507 l 204 261 q 251 128 204 172 q 392 85 299 85 m 442 -257 q 428 -243 428 -257 l 428 14 l 428 40 l 428 629 l 428 665 l 428 936 q 442 950 428 950 l 532 950 q 546 936 546 950 l 546 663 l 546 624 l 546 47 l 546 17 l 546 -243 q 532 -257 546 -257 l 442 -257 z "},"х":{"ha":663,"x_min":11,"x_max":651,"o":"m 25 0 q 14 6 17 0 q 17 17 11 11 l 257 349 l 33 661 q 31 673 28 668 q 42 678 33 678 l 150 678 q 167 669 161 678 l 264 529 q 298 479 281 506 q 331 429 315 453 l 332 429 q 369 483 350 456 q 407 538 389 511 l 500 669 q 517 678 506 678 l 618 678 q 629 673 626 678 q 626 661 632 668 l 403 353 l 646 17 q 649 6 651 11 q 638 0 646 0 l 529 0 q 513 8 518 0 l 419 139 q 374 204 397 171 q 329 269 351 238 l 328 269 q 285 204 307 238 q 240 139 263 171 l 149 8 q 132 0 143 0 l 25 0 z "},"ч":{"ha":725,"x_min":83,"x_max":621,"o":"m 517 0 q 503 14 503 0 l 503 297 q 389 220 449 249 q 272 192 329 192 q 131 250 179 192 q 83 418 83 308 l 83 664 q 97 678 83 678 l 188 678 q 201 664 201 678 l 201 438 q 225 329 201 365 q 297 293 249 293 q 404 324 353 293 q 503 406 456 356 l 503 664 q 517 678 503 678 l 607 678 q 621 664 621 678 l 621 14 q 607 0 621 0 l 517 0 z "},"ц":{"ha":760,"x_min":104,"x_max":746,"o":"m 650 -167 q 640 -162 644 -167 q 636 -153 636 -158 l 636 0 l 574 0 l 649 101 l 732 101 q 742 98 739 101 q 746 88 746 94 l 746 -153 q 742 -162 746 -158 q 732 -167 739 -167 l 650 -167 m 288 -17 q 151 43 199 -17 q 104 215 104 103 l 104 664 q 118 678 104 678 l 208 678 q 222 664 222 678 l 222 221 q 247 120 222 153 q 322 88 271 88 q 426 119 374 88 q 556 231 478 151 l 553 121 q 464 44 508 75 q 376 -1 419 14 q 288 -17 332 -17 m 565 0 q 549 14 550 0 q 542 68 544 40 q 538 125 539 96 l 531 183 l 531 664 q 544 678 531 678 l 635 678 q 649 664 649 678 l 649 169 q 651 92 649 132 q 658 14 653 51 q 643 0 661 0 l 565 0 z "},"ш":{"ha":1157,"x_min":104,"x_max":1065,"o":"m 289 -17 q 152 42 200 -17 q 104 214 104 100 l 104 664 q 118 678 104 678 l 208 678 q 222 664 222 678 l 222 221 q 247 121 222 154 q 318 88 271 88 q 408 116 361 88 q 519 206 456 144 l 519 664 q 533 678 519 678 l 624 678 q 638 664 638 678 l 638 221 q 662 121 638 154 q 733 88 686 88 q 824 116 776 88 q 935 206 871 144 l 935 664 q 949 678 935 678 l 1039 678 q 1053 664 1053 678 l 1053 169 q 1055 91 1053 132 q 1063 17 1057 50 q 1047 0 1065 0 l 964 0 q 950 10 951 0 q 944 54 947 31 q 938 103 940 78 q 820 12 875 40 q 704 -17 765 -17 q 593 16 636 -17 q 532 113 550 49 q 409 14 465 44 q 289 -17 353 -17 z "},"щ":{"ha":1165,"x_min":104,"x_max":1151,"o":"m 1056 -167 q 1046 -162 1050 -167 q 1042 -153 1042 -158 l 1042 0 l 979 0 l 1054 101 l 1138 101 q 1148 98 1144 101 q 1151 88 1151 94 l 1151 -153 q 1148 -162 1151 -158 q 1138 -167 1144 -167 l 1056 -167 m 289 -17 q 152 42 200 -17 q 104 214 104 100 l 104 664 q 118 678 104 678 l 208 678 q 222 664 222 678 l 222 221 q 247 121 222 154 q 318 88 271 88 q 408 116 361 88 q 519 206 456 144 l 519 664 q 533 678 519 678 l 624 678 q 638 664 638 678 l 638 221 q 662 121 638 154 q 733 88 686 88 q 824 116 776 88 q 935 206 871 144 l 935 664 q 949 678 935 678 l 1039 678 q 1053 664 1053 678 l 1053 169 q 1055 91 1053 132 q 1063 17 1057 50 q 1047 0 1065 0 l 964 0 q 950 10 951 0 q 944 54 947 31 q 938 103 940 78 q 820 12 875 40 q 704 -17 765 -17 q 593 16 636 -17 q 532 113 550 49 q 409 14 465 44 q 289 -17 353 -17 z "},"џ":{"ha":753,"x_min":104,"x_max":661,"o":"m 308 -167 q 299 -162 303 -167 q 294 -153 294 -158 l 294 42 l 404 42 l 404 -153 q 401 -162 404 -158 q 390 -167 397 -167 l 308 -167 m 288 -17 q 151 43 199 -17 q 104 215 104 103 l 104 664 q 118 678 104 678 l 208 678 q 222 664 222 678 l 222 221 q 247 120 222 153 q 322 88 271 88 q 426 119 374 88 q 556 231 478 151 l 553 121 q 464 44 508 75 q 376 -1 419 14 q 288 -17 332 -17 m 565 0 q 549 14 550 0 q 542 68 544 40 q 538 125 539 96 l 531 183 l 531 664 q 544 678 531 678 l 635 678 q 649 664 649 678 l 649 169 q 651 92 649 132 q 658 14 653 51 q 643 0 661 0 l 565 0 z "},"ь":{"ha":707,"x_min":104,"x_max":631,"o":"m 354 -17 q 163 44 222 -17 q 104 238 104 104 l 104 664 q 118 678 104 678 l 208 678 q 222 664 222 678 l 222 218 q 258 116 222 150 q 363 82 293 82 q 471 117 432 82 q 510 218 510 153 l 510 286 q 482 372 510 343 q 401 400 454 400 q 296 367 344 400 q 207 274 247 335 l 206 389 q 309 475 254 446 q 433 504 364 504 q 580 450 529 504 q 631 290 631 396 l 631 231 q 560 46 631 108 q 354 -17 489 -17 z "},"ъ":{"ha":808,"x_min":28,"x_max":732,"o":"m 42 576 q 28 590 28 576 l 28 664 q 42 678 28 678 l 267 678 l 267 576 l 42 576 m 456 -17 q 265 44 324 -17 q 206 238 206 104 l 206 664 q 219 678 206 678 l 310 678 q 324 664 324 678 l 324 218 q 359 116 324 150 q 464 82 394 82 q 572 117 533 82 q 611 218 611 153 l 611 286 q 583 372 611 343 q 503 400 556 400 q 397 367 446 400 q 308 274 349 335 l 307 389 q 410 475 356 446 q 535 504 465 504 q 681 450 631 504 q 732 290 732 396 l 732 231 q 661 46 732 108 q 456 -17 590 -17 z "},"ы":{"ha":996,"x_min":104,"x_max":892,"o":"m 354 -17 q 163 44 222 -17 q 104 238 104 104 l 104 664 q 118 678 104 678 l 208 678 q 222 664 222 678 l 222 218 q 258 116 222 150 q 363 82 293 82 q 471 117 432 82 q 510 218 510 153 l 510 286 q 482 372 510 343 q 401 400 454 400 q 296 367 344 400 q 207 274 247 335 l 206 389 q 309 475 254 446 q 433 504 364 504 q 580 450 529 504 q 631 290 631 396 l 631 231 q 560 46 631 108 q 354 -17 489 -17 m 788 0 q 774 14 774 0 l 774 664 q 788 678 774 678 l 878 678 q 892 664 892 678 l 892 14 q 878 0 892 0 l 788 0 z "},"љ":{"ha":1025,"x_min":1,"x_max":949,"o":"m 688 -17 q 578 -1 622 -17 q 506 51 535 15 q 456 144 476 86 l 372 385 q 344 465 358 425 q 318 543 331 504 l 315 543 q 290 463 303 503 q 261 382 276 422 l 131 11 q 115 0 126 0 l 18 0 q 8 17 1 0 l 243 658 q 267 678 250 678 l 367 678 q 390 658 383 678 l 497 364 q 614 469 550 433 q 751 504 678 504 q 898 449 847 504 q 949 290 949 393 l 949 231 q 881 47 949 110 q 688 -17 813 -17 m 689 82 q 791 117 754 82 q 828 218 828 153 l 828 286 q 801 372 828 343 q 721 400 774 400 q 619 369 668 400 q 529 276 569 338 l 563 185 q 613 101 586 121 q 689 82 640 82 z "},"њ":{"ha":1136,"x_min":104,"x_max":1060,"o":"m 118 0 q 104 14 104 0 l 104 664 q 118 678 104 678 l 208 678 q 222 664 222 678 l 222 397 l 538 397 l 538 296 l 222 296 l 222 14 q 208 0 222 0 l 118 0 m 783 -17 q 592 44 651 -17 q 533 238 533 104 l 533 664 q 547 678 533 678 l 638 678 q 651 664 651 678 l 651 218 q 687 116 651 150 q 792 82 722 82 q 900 117 861 82 q 939 218 939 153 l 939 286 q 911 372 939 343 q 831 400 883 400 q 725 367 774 400 q 636 274 676 335 l 635 389 q 738 475 683 446 q 863 504 793 504 q 1009 450 958 504 q 1060 290 1060 396 l 1060 231 q 989 46 1060 108 q 783 -17 918 -17 z "},"ѕ":{"ha":644,"x_min":74,"x_max":581,"o":"m 324 -17 q 136 38 199 -17 q 74 203 74 93 q 88 215 74 215 l 179 215 q 192 204 192 215 q 223 114 192 142 q 325 86 254 86 q 428 109 393 86 q 463 175 463 132 q 443 228 463 207 q 382 268 424 250 l 224 333 q 115 406 147 365 q 83 510 83 446 q 142 648 83 601 q 315 694 200 694 q 499 645 433 694 q 564 506 564 596 q 550 493 564 493 l 458 493 q 444 515 444 493 q 411 572 444 551 q 319 592 378 592 q 231 572 260 592 q 201 510 201 551 q 217 464 201 479 q 282 428 233 449 l 440 361 q 547 289 514 331 q 581 182 581 247 q 514 35 581 86 q 324 -17 447 -17 z "},"є":{"ha":719,"x_min":86,"x_max":642,"o":"m 365 -17 q 156 46 226 -17 q 86 236 86 108 l 86 456 q 153 635 86 575 q 356 694 221 694 q 506 672 444 694 q 598 610 567 650 q 625 517 629 571 q 608 493 624 493 l 517 493 q 504 513 504 493 q 467 569 504 549 q 364 590 429 590 q 244 558 283 590 q 204 460 204 525 l 204 393 l 501 393 q 515 379 515 393 l 515 310 q 501 296 515 296 l 204 296 l 204 222 q 244 119 204 151 q 369 88 283 88 q 478 108 440 88 q 515 167 515 128 q 528 188 515 188 l 619 188 q 636 163 635 188 q 610 69 642 110 q 517 6 579 29 q 365 -17 456 -17 z "},"э":{"ha":707,"x_min":67,"x_max":621,"o":"m 342 -17 q 190 6 253 -17 q 97 69 128 29 q 71 163 67 110 q 88 188 72 188 l 179 188 q 192 167 192 188 q 229 108 192 128 q 338 88 267 88 q 463 119 424 88 q 503 222 503 151 l 503 296 l 206 296 q 192 310 192 296 l 192 379 q 206 393 192 393 l 503 393 l 503 460 q 464 558 503 525 q 343 590 425 590 q 240 569 278 590 q 203 513 203 549 q 190 493 203 493 l 99 493 q 82 517 83 493 q 108 610 78 571 q 201 672 139 650 q 351 694 263 694 q 553 635 486 694 q 621 456 621 575 l 621 236 q 551 46 621 108 q 342 -17 482 -17 z "},"і":{"ha":326,"x_min":88,"x_max":240,"o":"m 118 0 q 104 14 104 0 l 104 664 q 118 678 104 678 l 208 678 q 222 664 222 678 l 222 14 q 208 0 222 0 l 118 0 m 164 792 q 106 813 124 792 q 88 868 88 835 l 88 882 q 106 937 88 915 q 164 958 124 958 q 222 937 204 958 q 240 882 240 915 l 240 868 q 222 813 240 835 q 164 792 204 792 z "},"ї":{"ha":326,"x_min":-26,"x_max":353,"o":"m 118 0 q 104 14 104 0 l 104 664 q 118 678 104 678 l 208 678 q 222 664 222 678 l 222 14 q 208 0 222 0 l 118 0 m 46 792 q -10 812 7 792 q -26 863 -26 832 l -26 876 q -10 928 -26 908 q 46 947 7 947 q 101 928 85 947 q 118 876 118 908 l 118 863 q 101 812 118 832 q 46 792 85 792 m 281 792 q 225 812 242 792 q 208 863 208 832 l 208 876 q 225 928 208 908 q 281 947 242 947 q 336 928 319 947 q 353 876 353 908 l 353 863 q 336 812 353 832 q 281 792 319 792 z "},"ј":{"ha":328,"x_min":-19,"x_max":240,"o":"m 58 -264 q 39 -260 47 -271 l -15 -192 q -18 -181 -19 -185 q -11 -172 -17 -176 q 51 -110 25 -147 q 90 -24 76 -74 q 104 89 104 25 l 104 664 q 108 674 104 671 q 118 678 113 678 l 208 678 q 219 674 215 678 q 222 664 222 671 l 222 82 q 205 -67 222 -1 q 151 -181 188 -132 q 58 -264 115 -229 m 164 792 q 106 813 124 792 q 88 868 88 835 l 88 882 q 106 937 88 915 q 164 958 124 958 q 222 937 204 958 q 240 882 240 915 l 240 868 q 222 813 240 835 q 164 792 204 792 z "},"ћ":{"ha":772,"x_min":-8,"x_max":668,"o":"m 6 768 q -8 782 -8 768 l -8 851 q 6 865 -8 865 l 368 865 q 382 851 382 865 l 382 782 q 368 768 382 768 l 104 768 l 6 768 m 564 0 q 550 14 550 0 l 550 457 q 522 558 550 525 q 438 590 494 590 q 325 556 382 590 q 201 450 268 522 l 203 558 q 290 637 249 607 q 374 681 332 667 q 464 694 417 694 q 616 636 564 694 q 668 463 668 578 l 668 14 q 654 0 668 0 l 564 0 m 118 0 q 104 14 104 0 l 104 935 q 118 949 104 949 l 208 949 q 222 935 222 949 l 222 14 q 208 0 222 0 l 118 0 z "},"ю":{"ha":1014,"x_min":104,"x_max":928,"o":"m 104 547 l 104 935 q 118 949 104 949 l 208 949 q 222 935 222 949 l 222 547 l 104 547 m 651 -17 q 446 51 517 -17 q 375 253 375 119 l 375 425 q 446 626 375 558 q 651 694 517 694 q 857 626 786 694 q 928 425 928 558 l 928 253 q 857 51 928 119 q 651 -17 786 -17 m 118 0 q 104 14 104 0 l 104 664 q 118 678 104 678 l 208 678 q 222 664 222 678 l 222 397 l 407 397 l 407 296 l 222 296 l 222 14 q 208 0 222 0 l 118 0 m 651 88 q 772 133 733 88 q 810 264 810 178 l 810 414 q 772 545 810 500 q 651 590 733 590 q 532 545 571 590 q 493 414 493 500 l 493 264 q 532 133 493 178 q 651 88 571 88 z "},"я":{"ha":703,"x_min":49,"x_max":599,"o":"m 63 0 q 51 5 54 0 q 53 17 49 10 l 149 167 q 183 219 165 193 q 218 272 200 246 l 218 274 q 116 339 151 293 q 81 463 81 385 q 110 583 81 535 q 195 654 139 631 q 331 678 251 678 l 585 678 q 599 664 599 678 l 599 14 q 585 0 599 0 l 494 0 q 481 14 481 0 l 481 256 l 336 256 l 185 10 q 167 0 179 0 l 63 0 m 350 356 l 481 356 l 481 576 l 329 576 q 226 547 254 576 q 199 464 199 517 q 235 380 199 404 q 350 356 272 356 z "},"ђ":{"ha":774,"x_min":-8,"x_max":668,"o":"m 504 -264 q 485 -260 493 -271 l 431 -192 q 428 -181 426 -185 q 435 -172 429 -176 q 498 -111 472 -147 q 537 -25 524 -75 q 550 89 550 25 l 550 457 q 522 558 550 525 q 438 590 494 590 q 334 562 386 590 q 222 472 282 533 l 222 14 q 208 0 222 0 l 118 0 q 104 14 104 0 l 104 768 l 6 768 q -8 782 -8 768 l -8 851 q 6 865 -8 865 l 104 865 l 104 935 q 118 949 104 949 l 208 949 q 222 935 222 949 l 222 865 l 371 865 q 385 851 385 865 l 385 782 q 371 768 385 768 l 222 768 l 222 579 q 341 667 283 640 q 464 694 399 694 q 616 636 564 694 q 668 463 668 578 l 668 82 q 651 -67 668 -1 q 597 -181 633 -132 q 504 -264 561 -229 z "},"ӏ":{"ha":326,"x_min":104,"x_max":222,"o":"m 118 0 q 104 14 104 0 l 104 935 q 118 949 104 949 l 208 949 q 222 935 222 949 l 222 14 q 208 0 222 0 l 118 0 z "},"ӣ":{"ha":753,"x_min":104,"x_max":661,"o":"m 288 -17 q 151 43 199 -17 q 104 215 104 103 l 104 664 q 118 678 104 678 l 208 678 q 222 664 222 678 l 222 221 q 247 120 222 153 q 322 88 271 88 q 426 119 374 88 q 556 231 478 151 l 553 121 q 464 44 508 75 q 376 -1 419 14 q 288 -17 332 -17 m 565 0 q 549 14 550 0 q 542 68 544 40 q 538 125 539 96 l 531 183 l 531 664 q 544 678 531 678 l 635 678 q 649 664 649 678 l 649 169 q 651 92 649 132 q 658 14 653 51 q 643 0 661 0 l 565 0 m 240 792 q 226 806 226 792 l 226 878 q 240 892 226 892 l 511 892 q 525 878 525 892 l 525 806 q 511 792 525 792 l 240 792 z "},"ӯ":{"ha":690,"x_min":26,"x_max":665,"o":"m 201 -257 q 192 -240 185 -257 l 290 8 l 33 661 q 43 678 26 678 l 142 678 q 157 667 153 678 l 282 331 q 315 242 299 288 q 346 151 331 196 l 347 151 q 380 242 363 196 q 413 331 397 288 l 538 667 q 554 678 542 678 l 647 678 q 658 661 665 678 l 307 -246 q 292 -257 303 -257 l 201 -257 m 206 792 q 192 806 192 792 l 192 878 q 206 892 192 892 l 476 892 q 490 878 490 892 l 490 806 q 476 792 490 792 l 206 792 z "},"Α":{"ha":778,"x_min":-3,"x_max":781,"o":"m 13 0 q 1 15 -3 0 l 308 899 q 325 910 313 910 l 449 910 q 465 899 461 910 l 776 15 q 765 0 781 0 l 667 0 q 650 11 654 0 l 442 636 q 414 719 428 678 q 385 803 400 761 l 383 803 q 356 722 369 763 q 328 640 342 681 l 122 11 q 106 0 118 0 l 13 0 m 167 213 l 196 315 l 574 315 l 604 213 l 167 213 z "},"Β":{"ha":796,"x_min":118,"x_max":733,"o":"m 132 0 q 118 14 118 0 l 118 896 q 132 910 118 910 l 379 910 q 616 853 538 910 q 694 682 694 797 q 658 560 694 607 q 540 483 622 514 l 540 481 q 685 404 638 463 q 733 250 733 346 q 648 61 733 122 q 381 0 563 0 l 132 0 m 236 103 l 379 103 q 561 139 507 103 q 615 258 615 175 q 560 384 615 344 q 383 424 506 424 l 236 424 l 236 103 m 236 519 l 374 519 q 528 555 479 519 q 576 667 576 590 q 527 776 576 744 q 361 808 478 808 l 236 808 l 236 519 z "},"Γ":{"ha":660,"x_min":118,"x_max":618,"o":"m 132 0 q 118 14 118 0 l 118 896 q 132 910 118 910 l 604 910 q 618 896 618 910 l 618 817 q 604 803 618 803 l 236 803 l 236 14 q 222 0 236 0 l 132 0 z "},"Δ":{"ha":774,"x_min":21,"x_max":753,"o":"m 35 0 q 21 14 21 0 l 21 68 q 22 76 21 72 q 24 85 22 81 l 307 899 q 324 910 311 910 l 449 910 q 464 899 460 910 l 750 88 q 752 79 751 83 q 753 71 753 75 l 753 14 q 739 0 753 0 l 35 0 m 151 106 l 618 106 l 429 671 q 406 737 418 704 q 383 803 394 769 l 382 803 q 359 735 371 769 q 336 668 347 701 l 151 106 z "},"Ε":{"ha":740,"x_min":118,"x_max":640,"o":"m 132 0 q 118 14 118 0 l 118 896 q 132 910 118 910 l 626 910 q 640 896 640 910 l 640 817 q 626 803 640 803 l 236 803 l 236 514 l 593 514 q 607 500 607 514 l 607 425 q 593 411 607 411 l 236 411 l 236 107 l 626 107 q 640 93 640 107 l 640 14 q 626 0 640 0 l 132 0 z "}}}
